<?xml version="1.0" standalone="no"?>
<!DOCTYPE svg PUBLIC "-//W3C//DTD SVG 1.1//EN" "http://www.w3.org/Graphics/SVG/1.1/DTD/svg11.dtd" >
<svg xmlns="http://www.w3.org/2000/svg">
<metadata></metadata>
<defs>
<font id="bandera_promedium_italic" horiz-adv-x="1542" >
<font-face units-per-em="2048" ascent="1536" descent="-512" />
<missing-glyph horiz-adv-x="571" />
<glyph unicode="&#xfb01;" horiz-adv-x="1306" d="M-276 -502l81 174q53 -22 121 -22q64 0 119.5 75.5t77.5 211.5l143 915h-116l12 162l131 10l22 145q15 97 45 167t83 123.5t136.5 80.5t198.5 27q95 0 287 -66l12 45h158l-39 -332h-154l7 129q-173 60 -246 60q-131 0 -186.5 -57.5t-79.5 -198.5l-21 -123h326l-23 -172 h-330l-143 -915q-19 -123 -64 -218t-104 -151t-123.5 -84.5t-130.5 -28.5q-71 0 -121 10.5t-65 21.5zM883 104q0 16 4 52l106 698l-108 8l12 162h346l-121 -782v-15q0 -65 43 -65l92 4l-8 -152q-122 -28 -237 -28q-65 0 -97 27t-32 91z" />
<glyph unicode="&#xfb02;" horiz-adv-x="1316" d="M-276 -502l81 174q53 -22 121 -22q64 0 119.5 75.5t77.5 211.5l143 915h-116l12 162l131 10l22 145q15 97 45 167t83 123.5t136.5 80.5t198.5 27q93 0 324 -78l8 47h223l-200 -1294q-2 -80 43 -80l92 4l-8 -152q-123 -28 -238 -28q-65 0 -97 27t-32 91q0 16 4 52 l180 1175q-197 72 -274 72q-131 0 -186.5 -57.5t-79.5 -198.5l-21 -123h326l-23 -172h-330l-143 -915q-19 -123 -64 -218t-104 -151t-123.5 -84.5t-130.5 -28.5q-71 0 -121 10.5t-65 21.5z" />
<glyph unicode="&#xfb03;" horiz-adv-x="2080" d="M-254 -502l80 174q55 -22 123 -22q62 0 118 75.5t78 211.5l144 915h-117l10 162l133 10l23 145q15 97 45 167t83 123.5t136 80.5t197 27q57 0 159.5 -27.5t175.5 -54.5l74 -27l-4 -10q113 119 346 119q93 0 289 -66l12 45h158l-39 -332h-153l6 129q-173 60 -246 60 q-133 0 -187.5 -57t-78.5 -199l-21 -123h326l-25 -172h-327l-144 -915q-19 -123 -64 -218t-104 -151t-123.5 -84.5t-130.5 -28.5q-45 0 -82.5 4.5t-58.5 10.5t-35 12.5t-19 11.5l-5 4l80 174q54 -22 122 -22q64 0 119.5 75.5t77.5 211.5l143 915h-116l12 162l131 10l23 145 q13 88 38 154q-212 80 -303 80q-133 0 -188.5 -57.5t-79.5 -198.5l-20 -123h327l-24 -172h-330l-141 -915q-19 -122 -64 -217.5t-104.5 -151.5t-124.5 -84.5t-131 -28.5q-45 0 -82 4.5t-57.5 10.5t-35 12.5t-19.5 11.5zM1657 104q0 16 4 52l106 698l-108 8l12 162h346 l-121 -782v-15q0 -65 43 -65l93 4l-9 -152q-122 -28 -237 -28q-65 0 -97 27t-32 91z" />
<glyph unicode="&#xfb04;" horiz-adv-x="2091" d="M-254 -502l80 174q55 -22 123 -22q62 0 118 75.5t78 211.5l144 915h-117l10 162l133 10l23 145q15 97 45 167t83 123.5t136 80.5t197 27q137 0 409 -115q112 115 342 115q95 0 326 -78l8 47h223l-200 -1294q-2 -80 41 -80l94 4l-10 -152q-121 -28 -238 -28 q-64 0 -95.5 27t-31.5 91q0 16 4 52l180 1175q-197 72 -274 72q-133 0 -187.5 -57t-78.5 -199l-21 -123h326l-25 -172h-327l-144 -915q-19 -123 -64 -218t-104 -151t-123.5 -84.5t-130.5 -28.5q-45 0 -82.5 4.5t-58.5 10.5t-35 12.5t-19 11.5l-5 4l80 174q54 -22 122 -22 q64 0 119.5 75.5t77.5 211.5l143 915h-116l12 162l131 10l23 145q13 86 36 148q-203 86 -301 86q-133 0 -188.5 -57.5t-79.5 -198.5l-20 -123h327l-24 -172h-330l-141 -915q-19 -122 -64 -217.5t-104.5 -151.5t-124.5 -84.5t-131 -28.5q-45 0 -82 4.5t-57.5 10.5t-35 12.5 t-19.5 11.5z" />
<glyph horiz-adv-x="2048" />
<glyph horiz-adv-x="2048" />
<glyph unicode="&#xd;" horiz-adv-x="2048" />
<glyph unicode=" "  horiz-adv-x="571" />
<glyph unicode="&#x09;" horiz-adv-x="571" />
<glyph unicode="&#xa0;" horiz-adv-x="571" />
<glyph unicode="!" horiz-adv-x="692" d="M168 84q0 61 46.5 101t109.5 40q53 0 85.5 -29.5t32.5 -78.5q0 -57 -43.5 -99.5t-111.5 -42.5q-55 0 -87 29.5t-32 79.5zM270 451l111 907l29 178h235l-29 -178l-170 -907h-176z" />
<glyph unicode="&#x22;" horiz-adv-x="782" d="M176 1047l72 485l207 -2l-121 -483h-158zM555 1047l72 485l207 -2l-121 -483h-158z" />
<glyph unicode="#" horiz-adv-x="1157" d="M111 418l20 141h209l82 209h-258l20 143h295l111 279l125 -35l-97 -244h191l100 258l123 -34l-88 -224h182l-22 -143h-215l-82 -209h266l-20 -141h-301l-109 -281l-123 37l94 244h-192l-103 -260l-122 37l88 223h-174zM479 559h191l82 209h-191z" />
<glyph unicode="$" horiz-adv-x="983" d="M92 156l21 280l139 10l-6 -159q98 -27 194 -27q123 0 188.5 50.5t65.5 123.5q0 37 -27.5 66t-71 49.5t-96 40.5t-105.5 45t-96.5 56t-71 80t-27.5 112q0 134 88 212.5t231 94.5l43 244h162l-27 -258q74 -21 140 -68l32 63h113l-33 -299h-137l-6 99q-88 67 -195 67 q-81 0 -132.5 -35t-51.5 -96q0 -39 28 -69t72 -50.5t98 -39.5t108 -41.5t98 -51.5t72 -75.5t28 -106.5q0 -140 -94.5 -237.5t-290.5 -122.5l-37 -215h-162l19 206q-78 4 -146.5 17t-97.5 24z" />
<glyph unicode="%" horiz-adv-x="1941" d="M176 895q0 206 125 336.5t330 130.5q156 0 244 -90.5t88 -243.5q0 -202 -123 -332.5t-330 -130.5q-162 0 -248 89t-86 241zM360 901q0 -82 43.5 -130t126.5 -48q112 0 181 80.5t69 220.5q0 86 -44 135t-128 49q-114 0 -181 -80.5t-67 -226.5zM492 20l854 1289l163 -31 l-856 -1286zM1059 297q0 206 124.5 336.5t329.5 130.5q156 0 244 -90.5t88 -243.5q0 -202 -122.5 -332.5t-329.5 -130.5q-162 0 -248 89t-86 241zM1243 303q0 -82 43.5 -130t126.5 -48q112 0 181 80.5t69 220.5q0 86 -44 135t-128 49q-114 0 -181 -80.5t-67 -226.5z" />
<glyph unicode="&#x26;" horiz-adv-x="1445" d="M88 324q0 78 27.5 142.5t76 108t104 73t122.5 48.5q-148 102 -148 273q0 175 115 284t299 109q124 0 215 -78l31 57h125l-49 -321h-158l10 123q-53 49 -129 49q-115 0 -180.5 -64.5t-65.5 -183.5q0 -84 52 -135t120 -53h306l96 268h129l-43 -268h289l-23 -156h-291 l-45 -293q-6 -34 -6 -57q0 -115 113 -115q36 0 73.5 4.5t57.5 8.5l20 4l-22 -152q-6 -4 -20 -9.5t-67.5 -14.5t-121.5 -9q-191 0 -234 129q-144 -129 -364 -129q-107 0 -188.5 28.5t-129.5 79t-72 113t-24 136.5zM322 354q0 -93 62 -155t187 -62q62 0 114.5 17t86.5 44.5 t54 51t34 47.5q0 5 6 47t19 116.5t28 139.5h-313q-54 -2 -101 -16t-88 -42t-65 -76t-24 -112z" />
<glyph unicode="'" horiz-adv-x="405" d="M176 1047l72 485l207 -2l-121 -483h-158z" />
<glyph unicode="(" horiz-adv-x="761" d="M201 276q0 141 22 281q21 133 57.5 257t78 216.5t87 173t87 135t74.5 93.5t53 57l20 18l154 -67q-9 -9 -23.5 -26.5t-57 -78t-81.5 -127.5t-86 -172t-81 -215t-57.5 -254t-23.5 -291q0 -108 14 -209t34 -167.5t40.5 -117t34.5 -74.5l14 -23l-170 -68q-8 8 -20.5 24.5 t-45.5 76.5t-58 129.5t-45.5 185.5t-20.5 243z" />
<glyph unicode=")" horiz-adv-x="761" d="M-20 -315q9 9 23.5 26.5t57 77.5t81 126.5t86 171.5t81 214.5t57 253.5t23.5 291q0 108 -14.5 209t-34.5 168t-40.5 118.5t-35.5 74.5l-14 24l174 67q8 -8 20.5 -24.5t45 -76.5t57 -129t45 -184.5t20.5 -242.5q0 -143 -22 -283q-21 -133 -57.5 -257t-78.5 -216.5 t-87.5 -173t-87 -135t-75 -93.5t-53.5 -57l-20 -18z" />
<glyph unicode="*" horiz-adv-x="931" d="M133 1057l94 196l291 -159l6 358h207l-106 -356l342 157l37 -196l-359 -62l205 -262l-184 -121l-117 314l-215 -314l-150 123l287 256z" />
<glyph unicode="+" horiz-adv-x="993" d="M86 483l12 166h353l53 342h174l-53 -342h336l-23 -166h-338l-51 -342h-176l53 342h-340z" />
<glyph unicode="," horiz-adv-x="559" d="M-8 -270q81 71 127 154.5t49 154.5q-24 8 -41.5 31.5t-17.5 56.5q0 50 36 85.5t97 35.5q64 0 90 -40t26 -97q0 -110 -77.5 -244.5t-190.5 -206.5z" />
<glyph unicode="-" horiz-adv-x="722" d="M86 483l14 166h590l-24 -166h-580z" />
<glyph unicode="." horiz-adv-x="610" d="M119 84q0 61 46 101t109 40q53 0 86 -29.5t33 -78.5q0 -57 -43.5 -99.5t-111.5 -42.5q-55 0 -87 29.5t-32 79.5z" />
<glyph unicode="/" horiz-adv-x="1011" d="M-160 -512l1198 2048h205l-1196 -2048h-207z" />
<glyph unicode="0" horiz-adv-x="1331" d="M143 518q0 147 23.5 272t75 231.5t128.5 181.5t189.5 117t253.5 42q235 0 349 -124t114 -359q0 -83 -16 -195q-25 -162 -78 -291.5t-133.5 -225.5t-194.5 -148t-254 -52q-229 0 -343 148t-114 403zM375 483q0 -167 62.5 -258.5t185.5 -91.5q310 0 395 551q18 120 18 209 q0 158 -59 230.5t-186 72.5q-416 0 -416 -713z" />
<glyph unicode="1" horiz-adv-x="888" d="M180 0l15 162l190 8l152 967l-271 -109l-37 156l371 147h188l-182 -1173l113 -6l-31 -152h-508z" />
<glyph unicode="2" horiz-adv-x="1122" d="M29 0l24 184q6 2 50 29.5t115 77t153.5 112.5t166 141t151.5 156.5t110.5 164t42.5 159.5q0 80 -49.5 120t-157.5 40q-123 0 -242 -80l-26 -113h-158l63 350h125l11 -73q166 94 325 94q175 0 266 -85.5t91 -232.5q0 -97 -51 -201.5t-126.5 -193t-181 -179t-196.5 -154.5 t-191 -126h487l41 134l152 -11l-59 -313h-936z" />
<glyph unicode="3" horiz-adv-x="1128" d="M68 31l30 282l150 11l-2 -158q84 -25 190 -25q179 0 274 81.5t95 217.5q0 81 -57 131t-162 50q-75 0 -142 -50l-84 107l465 467h-411l-37 -144h-152l62 340l176 -10h653l-16 -129l-443 -426h13q162 0 263 -88t101 -237q0 -223 -166.5 -353.5t-437.5 -130.5 q-104 0 -194.5 16t-129.5 32z" />
<glyph unicode="4" horiz-adv-x="1200" d="M72 356l8 136q119 163 257 400.5t236 463.5l205 -25q-171 -389 -461 -809h441l57 355l70 258h190l-96 -613h160l-19 -151l-166 -15l-32 -209l114 -6l-28 -141h-461l10 150l143 10l31 196h-659z" />
<glyph unicode="5" horiz-adv-x="1112" d="M68 31l30 280l150 11l-4 -156q77 -25 190 -25q165 0 265 91.5t100 228.5q0 94 -72.5 153.5t-196.5 59.5q-75 0 -128.5 -18.5t-67.5 -34.5l-109 14l178 696h547l25 70l149 -10l-47 -256l-188 10h-350l-86 -326q55 12 120 12q213 0 334 -92.5t121 -257.5q0 -158 -80 -276 t-215 -178t-305 -60q-116 0 -206 16t-122 32z" />
<glyph unicode="6" horiz-adv-x="1220" d="M125 436q0 116 43 258q83 334 237 501t345 167q119 0 223 -86l33 65h127l-37 -321h-160l4 108q-80 66 -176 66q-281 0 -381 -436q162 100 338 100q197 0 307.5 -82.5t110.5 -243.5q0 -81 -23 -161.5t-71 -153.5t-114.5 -128.5t-161.5 -88.5t-204 -33q-211 0 -325.5 123.5 t-114.5 345.5zM350 381q0 -122 59 -190t179 -68q67 0 122.5 28t91.5 70.5t61 95.5t35.5 102t10.5 91q0 94 -57.5 148.5t-177.5 54.5q-60 0 -113 -15.5t-88.5 -39.5t-58 -47t-35.5 -44q-17 -49 -21 -86q-8 -47 -8 -100z" />
<glyph unicode="7" horiz-adv-x="1011" d="M150 989l63 352l176 -10h729l-24 -180q-182 -245 -362 -555.5t-298 -595.5h-256q212 500 660 1135h-502l-37 -146h-149z" />
<glyph unicode="8" horiz-adv-x="1208" d="M84 289q0 78 28.5 143.5t79 112t105 79t119.5 56.5q-199 87 -199 283q0 187 147.5 293t387.5 106q199 0 313.5 -81t114.5 -228q0 -75 -26.5 -138t-73 -107t-98 -74t-112.5 -52q238 -78 238 -291q0 -214 -150.5 -319t-418.5 -105q-218 0 -336.5 79t-118.5 243zM330 305 q0 -94 59 -143t168 -49q143 0 225 73.5t82 206.5q0 45 -16.5 81t-40.5 58t-57.5 38t-61 23t-57.5 11q-34 -4 -68 -13t-78 -31t-76.5 -53t-55.5 -83.5t-23 -118.5zM451 961q0 -56 22.5 -99t59 -66t70.5 -35t69 -16q32 6 64 16t71.5 33t69 54.5t49.5 82.5t20 113 q0 173 -213 173q-137 0 -209.5 -67t-72.5 -189z" />
<glyph unicode="9" horiz-adv-x="1220" d="M129 8l33 303l151 11l-4 -170q104 -17 183 -17q150 0 264 111.5t162 322.5q-139 -116 -338 -116q-193 0 -303.5 101.5t-110.5 276.5q0 148 71.5 268t206 191.5t308.5 71.5q430 0 430 -424q0 -110 -43 -287q-73 -340 -247 -512t-413 -172q-96 0 -183.5 10.5t-127.5 20.5z M395 838q0 -63 22.5 -115.5t76.5 -88.5t133 -36q57 0 107.5 13.5t86 36t57 40.5t37.5 37q46 125 46 250q0 231 -232 231q-79 0 -143.5 -31t-105.5 -83t-63 -117.5t-22 -136.5z" />
<glyph unicode=":" horiz-adv-x="614" d="M119 84q0 61 46 101t109 40q53 0 86 -29.5t33 -78.5q0 -57 -43.5 -99.5t-111.5 -42.5q-55 0 -87 29.5t-32 79.5zM236 836q0 61 46 101t109 40q53 0 86 -30t33 -79q0 -56 -44 -98.5t-112 -42.5q-55 0 -86.5 29.5t-31.5 79.5z" />
<glyph unicode=";" horiz-adv-x="610" d="M23 -270q81 71 127 154.5t49 154.5q-24 8 -42 31.5t-18 56.5q0 50 36 85.5t97 35.5q64 0 90.5 -40t26.5 -97q0 -110 -77.5 -244.5t-190.5 -206.5zM236 836q0 61 46 101t109 40q53 0 86 -30t33 -79q0 -56 -44 -98.5t-112 -42.5q-55 0 -86.5 29.5t-31.5 79.5z" />
<glyph unicode="&#x3c;" horiz-adv-x="868" d="M166 649l633 430l84 -102l-498 -330l395 -328l-112 -102z" />
<glyph unicode="=" horiz-adv-x="1146" d="M55 272l13 166h1015l-22 -166h-1006zM117 694l12 166h1016l-23 -166h-1005z" />
<glyph unicode="&#x3e;" horiz-adv-x="870" d="M63 319l496 330l-393 328l113 102l501 -430l-633 -432z" />
<glyph unicode="?" horiz-adv-x="989" d="M180 84q0 61 46.5 101t109.5 40q53 0 86 -29.5t33 -78.5q0 -56 -44 -99t-112 -43q-55 0 -87 29.5t-32 79.5zM209 1206l59 340h127l11 -67q146 88 280 88q156 0 250 -83.5t94 -215.5q0 -93 -33 -165.5t-85.5 -119t-116 -85t-127 -75t-116 -78.5t-85.5 -106t-33 -147 q0 -30 2 -46l-127 -10q-8 49 -8 103q0 88 27.5 157.5t72 114t98 81t107 69t98 67.5t72 86t27.5 115q0 70 -51.5 117t-155.5 47q-119 0 -203 -70l-28 -117h-156z" />
<glyph unicode="@" horiz-adv-x="1984" d="M104 248q0 245 67.5 439.5t200 332t337 210.5t469.5 73q350 0 545.5 -161t195.5 -442q0 -184 -42 -326.5t-116.5 -229.5t-169 -131t-205.5 -44q-91 0 -143 22t-69 75q-103 -99 -265 -99q-154 0 -242.5 94t-88.5 267q0 232 137 370t354 138q140 0 221 -74l41 43h96 l-94 -604q-2 -10 -2 -29q0 -74 84 -74q43 0 84.5 15.5t86 56.5t77.5 104t54.5 168.5t21.5 239.5q0 226 -148 347.5t-424 121.5q-413 0 -636.5 -214.5t-223.5 -657.5q0 -286 172 -450.5t465 -164.5q96 0 187.5 18.5t153 44.5t109.5 52t70 45l23 18l41 -139q-7 -8 -21.5 -22 t-67.5 -49t-116 -61.5t-169.5 -48.5t-225.5 -22q-198 0 -354.5 54t-259 153t-156.5 236t-54 305zM760 328q0 -107 53.5 -168.5t151.5 -61.5q46 0 86.5 15t66.5 39t40.5 42.5t23.5 36.5l59 387q-13 35 -52.5 63t-119.5 28q-149 0 -229 -97t-80 -284z" />
<glyph unicode="A" horiz-adv-x="1443" d="M-68 0l15 162l153 8l615 1161h307l254 -1173l145 -6l-20 -152h-510l18 131l129 6l-59 254h-543l-133 -246l131 -8l-18 -137h-484zM514 539h434l-121 608z" />
<glyph unicode="B" horiz-adv-x="1302" d="M29 0l12 162l162 8l155 1001l-157 9l12 151h600q214 0 318 -75.5t104 -204.5q0 -204 -215 -338q93 -34 142.5 -100t49.5 -158q0 -75 -20.5 -141t-66 -124.5t-114 -100t-170 -65.5t-227.5 -24h-585zM410 168h215q362 0 362 283q0 157 -217 157h-293zM502 758h276 q35 0 74 15.5t75.5 45.5t60.5 82t24 117q0 80 -59.5 113.5t-174.5 33.5h-215z" />
<glyph unicode="C" horiz-adv-x="1349" d="M129 580q0 169 54.5 314.5t150.5 248t231 161t291 58.5q172 0 315 -109l46 88h135l-62 -487h-172l21 244q-116 80 -262 80q-107 0 -198 -38t-160 -111t-108.5 -190t-39.5 -266q0 -198 118.5 -308.5t303.5 -110.5q73 0 142 18.5t115 45t82 53t53 45.5l17 18l90 -123 q-7 -10 -20 -26.5t-60.5 -58.5t-103 -74t-148.5 -58.5t-196 -26.5q-288 0 -461.5 167t-173.5 446z" />
<glyph unicode="D" horiz-adv-x="1533" d="M29 0l12 162l162 8l155 1001l-157 9l12 151h643q305 0 473 -133.5t168 -394.5q0 -244 -94.5 -424t-281 -279.5t-447.5 -99.5h-645zM438 184h264q257 0 405 155.5t148 455.5q0 177 -111 264.5t-313 87.5h-243z" />
<glyph unicode="E" horiz-adv-x="1239" d="M29 0l12 162l162 8l155 1001l-157 9l12 151h834l200 10l-39 -335h-182l8 149h-446l-64 -399l572 2l-25 -170h-573l-64 -412h500l45 168l168 -10l-64 -334h-1054z" />
<glyph unicode="F" horiz-adv-x="1142" d="M29 0l12 162l162 8l155 1001l-157 9l12 151h854l201 10l-41 -335h-180l8 149h-467l-64 -414l555 2l-24 -172h-557l-64 -411l195 -8l-31 -152h-569z" />
<glyph unicode="G" horiz-adv-x="1460" d="M127 557q0 185 55.5 337t155 254.5t239 158t306.5 55.5q152 0 295 -102l36 81h138l-52 -426h-172l13 187q-93 76 -246 76q-524 0 -524 -594q0 -200 104 -315t275 -115q70 0 128.5 15t94 35t62.5 47.5t38.5 45.5t18.5 35v2l24 170h-285l23 149h483l-100 -653h-135l-8 104 q-141 -137 -406 -137q-172 0 -300 75.5t-194.5 208.5t-66.5 306z" />
<glyph unicode="H" horiz-adv-x="1583" d="M29 0l12 162l162 8l155 1001l-157 9l12 151h553l-23 -162l-153 -8l-64 -413h639l64 413l-154 8l12 162h555l-26 -162l-154 -8l-153 -1001l155 -8l-20 -152h-539l10 162l160 8l64 408h-639l-64 -408l154 -8l-23 -162h-538z" />
<glyph unicode="I" horiz-adv-x="708" d="M29 0l12 162l162 8l155 1001l-157 9l12 151h553l-23 -162l-153 -8l-156 -1001l156 -8l-23 -152h-538z" />
<glyph unicode="J" horiz-adv-x="937" d="M-8 18l24 316l164 10l-10 -186q49 -17 115 -17q182 0 223 258l121 772l-189 9l13 151h553l-23 -162l-123 -8l-117 -762q-19 -124 -59 -209.5t-100 -133.5t-131.5 -68.5t-165.5 -20.5q-91 0 -165 12.5t-102 25.5z" />
<glyph unicode="K" horiz-adv-x="1476" d="M29 0l12 162l162 8l155 1001l-157 9l12 151h532l-20 -141l-133 -8l-76 -498l174 94l420 410l-63 6l18 137h504l-23 -162l-227 -8l-461 -452l365 -543l221 -4l-25 -162h-368l-74 72l-318 491l-178 -104l-45 -289l154 -8l-23 -162h-538z" />
<glyph unicode="L" horiz-adv-x="1146" d="M29 0l12 162l162 8l155 1001l-157 9l12 151h553l-23 -162l-153 -8l-152 -985h471l49 180l168 -10l-65 -346h-1032z" />
<glyph unicode="M" horiz-adv-x="2068" d="M29 0l12 162l162 8l157 1001l-157 9l12 151h471l324 -1089h6l661 1089h449l-23 -162l-153 -8l-154 -991l156 -8l-23 -162h-510l11 141l141 9l137 864h-6l-625 -1014h-219l-303 1014h-4l-141 -869l137 -8l-19 -137h-499z" />
<glyph unicode="N" horiz-adv-x="1617" d="M29 0l12 162l162 8l155 1001l-157 9l12 151h412l553 -1028h2l2 68l127 792l-158 11l10 157h537l-23 -162l-151 -8l-183 -1171h-237l-561 1009h-4l-4 -88l-121 -745l157 -8l-22 -158h-520z" />
<glyph unicode="O" d="M129 571q0 365 210.5 578t578.5 213q282 0 434.5 -140.5t152.5 -392.5q0 -116 -29 -233.5t-93 -231.5t-155.5 -201.5t-227.5 -141.5t-298 -54q-183 0 -314 79t-195 214t-64 311zM369 575q0 -189 94 -306t266 -117q107 0 197.5 41.5t151 108.5t103 153.5t62 176 t19.5 177.5q0 179 -95 274t-274 95q-245 0 -384.5 -159t-139.5 -444z" />
<glyph unicode="P" horiz-adv-x="1212" d="M29 0l12 162l162 8l155 1001l-157 9l12 151h569q455 0 455 -340q0 -93 -25 -174t-68.5 -140t-100.5 -104.5t-123.5 -74t-134.5 -42.5t-136 -14h-188l-45 -295l186 -6l-18 -141h-555zM485 604h144q73 0 136.5 19.5t115.5 59.5t82 109.5t30 161.5q0 209 -274 209h-148z" />
<glyph unicode="Q" d="M129 571q0 365 210.5 578t578.5 213q283 0 435 -144t152 -405q0 -212 -78.5 -388.5t-228.5 -294.5t-350 -150q121 -138 278 -138q54 0 125 23l-4 -176q-77 -27 -157 -27q-146 0 -273 81.5t-188 227.5q-240 23 -370 186t-130 414zM369 575q0 -189 94 -306t266 -117 q159 0 281.5 85.5t187 231t64.5 326.5t-96 282t-273 101q-245 0 -384.5 -159t-139.5 -444z" />
<glyph unicode="R" horiz-adv-x="1306" d="M29 0l12 162l162 16l155 993l-157 9l12 151h571q219 0 337 -85t118 -251q0 -176 -94.5 -302t-243.5 -187l189 -340l200 -4l-22 -162h-340l-62 68l-198 391h-205l-47 -312l135 -6l-19 -141h-503zM489 629h162q160 0 252 84.5t92 255.5q0 100 -68 147t-206 47h-148z" />
<glyph unicode="S" horiz-adv-x="1173" d="M86 49l43 328l160 10l-4 -211q119 -39 241 -39q161 0 245.5 66t84.5 166q0 47 -34 85t-89 65.5t-121 54t-132 59t-121 72.5t-89 103t-34 142q0 188 140 300t359 112q138 0 256 -100l43 79h137l-38 -346h-181l4 127q-79 74 -198 74q-134 0 -211.5 -59t-77.5 -160 q0 -50 34.5 -90.5t89.5 -68t121 -54t132.5 -57.5t121.5 -69t89.5 -97t34.5 -133q0 -203 -151.5 -322t-414.5 -119q-82 0 -157.5 8.5t-124.5 20.5t-86.5 24t-54.5 20z" />
<glyph unicode="T" horiz-adv-x="1150" d="M90 985l62 356l198 -10h740l200 10l-43 -356h-170l6 170h-274l-152 -985l154 -8l-23 -162h-538l12 162l160 8l151 985h-270l-45 -170h-168z" />
<glyph unicode="U" horiz-adv-x="1511" d="M160 1180l10 151h553l-21 -151l-153 -9l-103 -649q-6 -44 -6 -84q0 -126 70 -199t213 -73q167 0 266 98t125 258l100 641l-159 11l12 157h543l-21 -151l-155 -11l-107 -694q-16 -105 -61.5 -194t-121 -160.5t-192.5 -112.5t-262 -41q-127 0 -223.5 32t-154 89.5 t-85.5 131t-28 161.5q0 28 8 94l108 696z" />
<glyph unicode="V" horiz-adv-x="1382" d="M92 1180l12 151h519l-23 -151l-125 -9l191 -997h4l501 991l-131 9l11 157h505l-20 -151l-139 -9l-611 -1171h-305l-245 1171z" />
<glyph unicode="W" horiz-adv-x="2097" d="M92 1180l12 151h517l-21 -151l-127 -9l123 -911h2l489 1071h244l164 -1067h2l393 899l-137 11l12 157h506l-20 -151l-133 -9l-541 -1171h-244l-168 1049l-497 -1049h-246l-186 1171z" />
<glyph unicode="X" horiz-adv-x="1433" d="M-53 0l12 162l217 8l440 494l-284 510l-199 6l10 151h539l-20 -151l-64 -4l188 -351l299 344l-61 5l23 157h509l-22 -162l-207 -8l-430 -489l291 -504l211 -6l-23 -162h-538l20 152l64 2l-193 354l-301 -348l66 -2l-21 -158h-526z" />
<glyph unicode="Y" horiz-adv-x="1316" d="M70 1180l10 151h547l-19 -151l-92 -6l213 -441l344 436l-82 5l25 157h500l-25 -162l-186 -6l-496 -624l-57 -369l155 -8l-24 -162h-539l12 162l162 8l55 365l-315 639z" />
<glyph unicode="Z" horiz-adv-x="1261" d="M29 0l22 154l930 1001h-567l-35 -149h-178l53 317l2 8l2 10l199 -10h846l-21 -155l-932 -1000h606l45 168l168 -10l-63 -334h-1077z" />
<glyph unicode="[" horiz-adv-x="823" d="M113 -166l245 1610h611l-23 -156h-411l-203 -1298h411l-22 -156h-608z" />
<glyph unicode="\" horiz-adv-x="1011" d="M121 1536h205l563 -2048h-205z" />
<glyph unicode="]" horiz-adv-x="823" d="M-70 -166l23 156h414l198 1298h-407l20 156h608l-247 -1610h-609z" />
<glyph unicode="^" horiz-adv-x="802" d="M174 1075l383 342l279 -342l-105 -88l-201 254l-280 -254z" />
<glyph unicode="_" horiz-adv-x="1513" d="M-39 -336l12 166h1381l-25 -166h-1368z" />
<glyph unicode="`" horiz-adv-x="509" d="M96 1456l213 25l152 -295l-156 -15z" />
<glyph unicode="a" horiz-adv-x="1243" d="M82 416q0 186 70.5 331t203.5 227.5t308 82.5q59 0 109.5 -10t81 -24.5t53 -29.5t31.5 -25l9 -10h2l47 66h174l-114 -737q-6 -38 -6 -60q0 -65 41 -65l94 4l-8 -152q-123 -28 -238 -28q-61 0 -89 24t-28 80v19h-2q-4 -6 -12.5 -15.5t-39.5 -34t-67.5 -43t-97.5 -34 t-129 -15.5q-180 0 -286.5 124.5t-106.5 324.5zM311 410q0 -131 66.5 -203t187.5 -72q54 0 104.5 17t84 42.5t52.5 44t28 31.5l84 535q-75 86 -213 86q-394 0 -394 -481z" />
<glyph unicode="b" horiz-adv-x="1218" d="M104 0l211 1366l-112 8l12 162h350l-94 -600h6q4 5 12 13t37.5 29t63.5 37t91 29t120 13q186 0 292.5 -108t106.5 -302q0 -133 -40.5 -255.5t-113 -217t-183 -151t-240.5 -56.5q-70 0 -130 14t-96.5 35t-53.5 34.5t-26 23.5l-41 -74h-172zM360 215q7 -10 19 -21t36.5 -26 t66 -25t91.5 -10q83 0 150.5 28.5t113 76.5t76.5 114t44.5 140t13.5 155q0 126 -66 184t-196 58q-51 0 -97 -13.5t-75.5 -32.5t-51.5 -38.5t-31 -32.5l-10 -14z" />
<glyph unicode="c" horiz-adv-x="1001" d="M84 428q0 293 138 461t384 168q141 0 244 -90l33 67h139l-47 -375h-170l10 170q-50 68 -166 68q-166 0 -250 -108t-84 -351q0 -146 81.5 -227.5t203.5 -81.5q47 0 90 12.5t70.5 30.5t48.5 36.5t30 31.5l9 12l108 -76q-4 -8 -12 -22.5t-41 -50.5t-74 -63.5t-113.5 -50 t-156.5 -22.5q-213 0 -344 125.5t-131 335.5z" />
<glyph unicode="d" horiz-adv-x="1234" d="M82 416q0 185 66.5 329.5t197 228t305.5 83.5q59 0 109.5 -9t81.5 -22t53.5 -26t31.5 -22l9 -9h6l62 397l-111 8l12 162h346l-194 -1249q-6 -38 -6 -60q0 -65 41 -65l94 4l-8 -152q-123 -28 -238 -28q-63 0 -90.5 26t-26.5 86h-2q-4 -5 -12.5 -14t-39.5 -31.5t-67.5 -40 t-97.5 -31.5t-129 -14q-180 0 -286.5 124.5t-106.5 324.5zM311 410q0 -131 66.5 -203t187.5 -72q56 0 107.5 17t85.5 42t51.5 41.5t24.5 26.5l84 545q-11 14 -31.5 30.5t-71 35t-110.5 18.5q-394 0 -394 -481z" />
<glyph unicode="e" horiz-adv-x="1058" d="M84 412q0 136 45 255.5t123.5 205t189 135t236.5 49.5q168 0 273.5 -82.5t105.5 -218.5q0 -178 -173 -248t-583 -72v-24q0 -134 80 -206.5t203 -72.5q55 0 104 13t80 31.5t54.5 36.5t33.5 31l10 13l113 -80q-5 -9 -14 -23t-45.5 -50.5t-80.5 -64t-121 -50.5t-165 -23 q-211 0 -340 116.5t-129 328.5zM315 573q307 0 425 36.5t118 135.5q0 69 -52.5 110.5t-152.5 41.5q-128 0 -217 -84t-121 -240z" />
<glyph unicode="f" horiz-adv-x="749" d="M55 -512l211 1364h-116l12 162l131 10q0 119 19.5 212t54 154.5t84.5 102t107.5 57.5t125.5 17q85 0 182 -64l23 43h127l-33 -309h-158l4 115q-51 51 -116 51q-97 0 -149.5 -85t-55.5 -294h334l-25 -172h-334l-211 -1364h-217z" />
<glyph unicode="g" horiz-adv-x="1222" d="M80 -467l37 281l149 10l-8 -178q109 -37 207 -37q156 0 246 100.5t90 292.5q0 7 -1 23t-1 24v6h-2q-5 -4 -14 -9.5t-39.5 -21t-64.5 -27t-88 -21t-110 -9.5q-190 0 -292.5 126t-102.5 335q0 284 157 456.5t400 172.5q67 0 121.5 -13.5t85 -32.5t51.5 -38.5t28 -32.5 l7 -14h6l37 98h192l-147 -958q0 -7 1 -21.5t1 -21.5q0 -138 -46 -248t-125 -179t-181.5 -105t-220.5 -36q-73 0 -138 8t-106 19.5t-72 23t-44 19.5zM315 430q0 -301 267 -301q60 0 117.5 18t81.5 33t42 29l88 563q-4 9 -11 20t-25.5 30.5t-42 34.5t-62.5 26.5t-84 11.5 q-371 0 -371 -465z" />
<glyph unicode="h" horiz-adv-x="1228" d="M102 0l211 1366l-108 8l10 162h348l-90 -586h4l7 6q8 6 22.5 15.5t35 21t49.5 22.5t62 20.5t76 15.5t88 6q322 0 322 -258q0 -33 -6 -74l-78 -496q2 -67 43 -67l94 4l-10 -152q-121 -28 -238 -28q-64 0 -96.5 28t-32.5 92q0 14 4 50l86 532q4 32 4 43q0 72 -48 105.5 t-146 33.5q-152 0 -269 -88l-120 -782h-224z" />
<glyph unicode="i" horiz-adv-x="559" d="M135 104q0 16 4 52l107 698l-109 8l13 162h346l-121 -782v-15q0 -65 43 -65l92 4l-8 -152q-123 -28 -238 -28q-65 0 -97 27t-32 91zM295 1307q0 56 42.5 99.5t111.5 43.5q47 0 80.5 -23.5t33.5 -80.5q0 -56 -39.5 -100t-109.5 -44q-52 0 -85.5 29t-33.5 76z" />
<glyph unicode="j" horiz-adv-x="555" d="M-274 -502l71 174q53 -22 121 -22q64 0 119.5 75.5t77.5 211.5l141 917l-106 8l12 162h344l-168 -1087q-19 -123 -64 -218t-104 -151t-123.5 -84.5t-130.5 -28.5q-45 0 -81 4.5t-55.5 10.5t-32.5 12.5t-17 11.5zM305 1307q0 56 42.5 99.5t111.5 43.5q47 0 80.5 -23.5 t33.5 -80.5q0 -56 -39.5 -100t-109.5 -44q-52 0 -85.5 29t-33.5 76z" />
<glyph unicode="k" horiz-adv-x="1126" d="M102 0l211 1366l-108 8l10 162h348l-92 -598q165 119 324 119q146 0 227.5 -69.5t81.5 -192.5q0 -251 -320 -381q132 -252 185 -252l100 4l-10 -152q-90 -28 -203 -28q-69 0 -134.5 90.5t-154.5 273.5q-68 -13 -192 -26l-49 -324h-224zM397 463q49 3 97 10.5t106.5 20.5 t106.5 35.5t89.5 53t65 75t23.5 98.5q0 69 -41.5 105t-116.5 36q-125 0 -287 -152z" />
<glyph unicode="l" horiz-adv-x="546" d="M123 104q0 16 4 52l188 1210l-112 8l14 162h348l-203 -1294v-7q0 -73 44 -73l92 4l-9 -152q-120 -28 -237 -28q-64 0 -96.5 27t-32.5 91z" />
<glyph unicode="m" horiz-adv-x="1738" d="M115 0l131 854l-109 8l13 162h319l4 -90q8 8 16.5 16t40.5 29.5t65.5 36.5t87.5 28t110 13q196 0 245 -121q15 13 36 27.5t65.5 38.5t110.5 39.5t139 15.5q136 0 202 -52.5t66 -170.5q0 -23 -8 -89l-80 -516q0 -67 41 -67l94 4l-10 -152q-121 -28 -238 -28 q-64 0 -95.5 27t-31.5 91q0 16 4 52h2l86 557q4 20 4 53q0 62 -33 85t-106 23q-55 0 -109 -19.5t-78.5 -36t-43.5 -32.5q0 -12 -4 -36l-115 -750h-223l112 713q4 36 4 51q0 63 -32 86.5t-103 23.5q-57 0 -114 -21t-81 -37t-40 -30l-121 -786h-223z" />
<glyph unicode="n" horiz-adv-x="1241" d="M115 0l131 854l-109 8l13 162h319l6 -82q131 115 356 115q320 0 320 -252q0 -35 -6 -78l-78 -498q2 -67 43 -67l94 4l-8 -152q-123 -28 -238 -28q-65 0 -98 28t-33 92q0 38 46.5 317.5t46.5 311.5q0 70 -47.5 102.5t-145.5 32.5q-157 0 -270 -90l-119 -780h-223z" />
<glyph unicode="o" horiz-adv-x="1169" d="M84 418q0 294 160.5 466.5t453.5 172.5q220 0 335.5 -114.5t115.5 -319.5q0 -291 -168.5 -473.5t-450.5 -182.5q-218 0 -332 120.5t-114 330.5zM311 406q0 -131 61 -206t181 -75q176 0 271.5 131.5t95.5 370.5q0 129 -61 199.5t-183 70.5q-179 0 -272 -125t-93 -366z" />
<glyph unicode="p" horiz-adv-x="1224" d="M33 -512l213 1366l-109 8l13 162h317l2 -109q4 6 13 15.5t41 34t69.5 43t99 34t129.5 15.5q182 0 284.5 -106.5t102.5 -297.5q0 -135 -40 -259t-112.5 -219t-181.5 -151.5t-239 -56.5q-59 0 -110 9t-82 22t-53.5 26t-31.5 22l-10 9h-6l-88 -567h-221zM367 215 q12 -14 30 -28.5t70 -34t115 -19.5q191 0 294 137.5t103 380.5q0 128 -65 183t-195 55q-49 0 -94.5 -13.5t-75.5 -32.5t-53.5 -38.5t-33.5 -32.5l-11 -14z" />
<glyph unicode="q" horiz-adv-x="1224" d="M84 416q0 186 70.5 331t203.5 227.5t308 82.5q55 0 104.5 -10t80.5 -24.5t54 -29.5t33 -25l10 -10l51 66h172l-198 -1290v-15q0 -69 39 -69l94 4l-8 -152q-123 -28 -238 -28q-64 0 -95.5 27t-31.5 91q0 16 4 52l70 454h-4q-4 -5 -12 -14t-37.5 -31.5t-64 -40t-92.5 -31.5 t-122 -14q-179 0 -285 124t-106 325zM313 408q0 -134 65.5 -203.5t188.5 -69.5q47 0 90 11.5t71 26.5t52.5 34.5t35.5 32t18 22.5l81 545q-8 10 -21 21t-37.5 27t-64 26t-85.5 10q-201 0 -297.5 -119t-96.5 -364z" />
<glyph unicode="r" horiz-adv-x="892" d="M115 0l131 854l-131 8l12 162h319v-141h5q4 7 11.5 19t36 42t61 52.5t87.5 41.5t115 19q42 0 85.5 -8.5t66.5 -16.5l22 -8l-39 -344h-154l-4 197q-16 2 -47 2q-53 0 -99 -19t-75 -46.5t-44.5 -48t-22.5 -34.5l-113 -731h-223z" />
<glyph unicode="s" horiz-adv-x="983" d="M70 18l20 281l139 10l-6 -159q98 -27 195 -27q123 0 188.5 50.5t65.5 123.5q0 37 -27.5 66t-71 49.5t-96.5 40.5t-106 44.5t-96.5 55.5t-71 80t-27.5 112q0 150 109.5 231t279.5 81q127 0 248 -86l33 63h112l-32 -299h-138l-6 99q-88 67 -194 67q-81 0 -133 -35t-52 -96 q0 -39 28 -69t72 -50.5t98 -39.5t108 -41.5t98 -51.5t72 -75.5t28 -106.5q0 -77 -28.5 -141.5t-87 -116.5t-159.5 -81.5t-235 -29.5q-94 0 -175.5 12.5t-116.5 25.5z" />
<glyph unicode="t" horiz-adv-x="765" d="M137 852l10 162l134 8l77 334h197l-53 -332h291l-25 -172h-293l-80 -520q-6 -41 -6 -70q0 -55 24.5 -79.5t78.5 -24.5q39 0 78.5 4.5t59.5 9.5l19 4l-18 -145q-8 -5 -24 -13.5t-77 -22t-135 -13.5q-121 0 -179 48t-58 158q0 46 8 93l88 571h-117z" />
<glyph unicode="u" horiz-adv-x="1232" d="M115 862l12 162h348l-102 -643q-4 -32 -4 -49q0 -82 48 -130t142 -48q47 0 92 9.5t75.5 22.5t54 26t35.5 22l11 10l95 610l-111 8l12 162h348l-120 -776v-17q0 -69 39 -69l92 4l-8 -152q-121 -28 -238 -28q-59 0 -86.5 22.5t-28.5 75.5h-8q-5 -5 -14 -13t-41.5 -28 t-70.5 -35.5t-100.5 -28t-131.5 -12.5q-153 0 -234.5 76t-81.5 215q0 40 6 80l78 516z" />
<glyph unicode="v" horiz-adv-x="1077" d="M35 862l12 162h340l158 -791h6q102 131 201.5 298t162.5 319l-124 16l12 158h364q-54 -212 -207 -474t-389 -550h-204l-193 854z" />
<glyph unicode="w" horiz-adv-x="1599" d="M29 862l12 162h319l78 -758h4l328 758h211l149 -758h5q87 122 167 277.5t132 304.5l-136 18l13 158h364q-47 -229 -172 -491t-334 -533h-213l-116 748l-351 -748h-229l-108 856z" />
<glyph unicode="x" horiz-adv-x="1159" d="M23 0l16 102q11 21 162 180.5t262 264.5l-178 309l-189 6l6 162h340l213 -410h2q148 141 234 252l-88 13l2 145h352l-16 -102q-1 -9 -57 -78.5t-146.5 -171t-171.5 -183.5q77 -141 146 -234t102 -93l123 4l-9 -152q-114 -28 -229 -28q-66 0 -154.5 118.5t-183.5 315.5h-8 q-149 -149 -240 -254l74 -8l-22 -158h-342z" />
<glyph unicode="y" horiz-adv-x="1095" d="M-76 -496l39 310l148 10l-7 -205q33 -10 64 -10q48 0 86.5 21t63.5 55.5t45 88t31.5 107t21.5 125.5l-234 848l-143 8l12 162h332l201 -805h4q212 319 338 631l-125 16l12 158h338l-8 -104q-52 -161 -195.5 -411t-312.5 -495q-9 -90 -33.5 -172t-66 -153t-96.5 -123 t-128 -81.5t-157 -29.5q-72 0 -129.5 12.5t-78.5 24.5z" />
<glyph unicode="z" horiz-adv-x="1019" d="M6 98l731 760h-387l-35 -145h-157l59 331l176 -20h629l-10 -147l-643 -680q37 -5 166.5 -27t205.5 -29l50 191l155 -10l-61 -353q-151 0 -371 34.5t-291 39.5l-106 -76z" />
<glyph unicode="{" horiz-adv-x="901" d="M242 510l24 176q27 0 58.5 7.5t64.5 25.5t60 42.5t44 62t17 81.5q0 36 -6 123t-6 129q0 72 11.5 125t43.5 102.5t87.5 80.5t146.5 49t217 18l-21 -154q-90 0 -150 -18t-92 -54.5t-44.5 -82t-12.5 -109.5q0 -40 6 -125t6 -123q0 -84 -44 -153.5t-120 -116.5 q99 -73 99 -174q0 -50 -20 -110.5t-44.5 -109t-44.5 -110.5t-20 -115q0 -78 56 -118.5t181 -40.5l-22 -154q-154 0 -247.5 30.5t-131 83.5t-37.5 134q0 62 20 131t44.5 119t44.5 107t20 98q0 64 -61.5 103.5t-126.5 39.5z" />
<glyph unicode="|" horiz-adv-x="727" d="M123 -512l317 2048h201l-317 -2048h-201z" />
<glyph unicode="}" horiz-adv-x="901" d="M-23 -336l23 154q89 0 149 18t92 54.5t45 82t13 109.5q0 40 -6 124.5t-6 123.5q0 167 162 268q-97 75 -97 176q0 50 20 110.5t43.5 109t43.5 110.5t20 115q0 159 -233 159l20 154q153 0 246 -30.5t130.5 -83.5t37.5 -134q0 -62 -20 -131t-43.5 -119t-43.5 -107t-20 -98 q0 -43 31.5 -77t73.5 -50t81 -16l-2 -10h2l-22 -166q-27 0 -58.5 -7.5t-64.5 -25.5t-60 -42.5t-44 -62t-17 -81.5q0 -36 6 -123t6 -129q0 -60 -8 -106t-28 -90t-57 -75.5t-92 -55.5t-136 -36t-187 -12z" />
<glyph unicode="~" horiz-adv-x="1366" d="M92 674q6 9 16.5 24t49 53t82.5 67t116 53t150 24q82 0 149 -18t112 -43.5t87.5 -51t99 -43.5t123.5 -18q39 0 74.5 8.5t58.5 21t40.5 25t25.5 20.5l8 9l76 -94q-5 -8 -15 -22.5t-44.5 -50.5t-74 -63.5t-104.5 -50t-135 -22.5q-74 0 -135.5 17.5t-105.5 42l-88 49 t-104.5 42t-133.5 17.5q-45 0 -85.5 -10.5t-67 -25t-46 -29.5t-28.5 -25l-9 -11z" />
<glyph unicode="&#xa1;" horiz-adv-x="692" d="M82 -512l27 178l172 907h178l-115 -907l-27 -178h-235zM285 907q0 61 46 101.5t109 40.5q53 0 86 -30t33 -79q0 -56 -44 -98.5t-112 -42.5q-55 0 -86.5 29t-31.5 79z" />
<glyph unicode="&#xa2;" horiz-adv-x="1001" d="M92 567q0 272 120.5 437.5t336.5 187.5l39 242h166l-29 -254q74 -23 133 -74l33 68h139l-47 -375h-170l10 170q-50 67 -166 67q-166 0 -249.5 -107.5t-83.5 -350.5q0 -146 81.5 -228t202.5 -82q47 0 90 12.5t70.5 31t48.5 36.5t30 30l9 13l109 -76q-4 -8 -11.5 -21 t-37 -47t-66.5 -60.5t-101.5 -51t-138.5 -29.5l-32 -208h-166l22 223q-157 36 -249.5 153.5t-92.5 292.5z" />
<glyph unicode="&#xa3;" horiz-adv-x="1210" d="M39 0l27 184h88q83 49 122 139t52 224l-205 4l14 166h205q7 145 25 256q26 180 138.5 284.5t285.5 104.5q124 0 237 -90l31 69h127l-35 -321h-160l4 104q-70 60 -159 60q-92 0 -150.5 -54.5t-75.5 -164.5q-17 -98 -35 -248h506l-22 -170h-508q-40 -239 -121 -363h539 l43 140l149 -11l-57 -313h-1065z" />
<glyph unicode="&#xa4;" horiz-adv-x="1273" d="M78 217l260 205q-39 73 -39 168q0 160 102 280l-190 203l100 103l181 -226q112 72 243 72q126 0 209 -74l258 226l70 -101l-262 -205q43 -75 43 -170q0 -159 -105 -282l189 -201l-99 -102l-180 223q-112 -72 -240 -72t-215 74l-258 -223zM444 602q0 -94 51.5 -148.5 t141.5 -54.5q118 0 195 79.5t77 209.5q0 93 -52.5 146t-141.5 53q-119 0 -195 -78t-76 -207z" />
<glyph unicode="&#xa5;" horiz-adv-x="1316" d="M70 1180l10 151h547l-19 -151l-92 -6l213 -441l344 436l-82 5l25 157h500l-25 -162l-186 -6l-344 -432h192l-16 -129h-279l-49 -63l-12 -80h317l-16 -129h-322l-24 -160l155 -8l-24 -162h-539l12 162l162 8l25 160h-318l8 129h328l12 76l-34 67h-275l8 129h203l-217 443z " />
<glyph unicode="&#xa6;" horiz-adv-x="727" d="M123 -512l127 819h201l-127 -819h-201zM311 717l129 819h201l-129 -819h-201z" />
<glyph unicode="&#xa7;" horiz-adv-x="1157" d="M109 -125l36 320l158 10v-211q86 -8 158 -8q74 0 126 16t77 43.5t35 54.5t10 58q0 40 -29.5 69.5t-76 49.5t-103 38.5t-113.5 42.5t-103.5 55t-76 83t-29.5 120q0 94 51 164t123 115q-41 56 -41 135q0 61 24.5 118.5t71.5 106t126.5 78t179.5 29.5q118 0 245 -84l35 63 h125l-35 -311h-168l5 111q-66 61 -162 61q-59 0 -102.5 -17.5t-65.5 -45.5t-31.5 -55.5t-9.5 -55.5q0 -42 30.5 -74t79 -53t107 -41t117.5 -44t107.5 -54.5t79 -80.5t30.5 -114q0 -166 -182 -284q28 -45 28 -101q0 -58 -11.5 -106t-44 -96.5t-85 -81.5t-140.5 -53.5 t-204 -20.5q-117 0 -205 13t-118 25zM371 641q0 -56 47.5 -97t107.5 -61t148.5 -50.5t138.5 -57.5q94 61 94 170q0 50 -47.5 87.5t-109.5 57.5t-150.5 52t-142.5 63q-86 -57 -86 -164z" />
<glyph unicode="&#xa8;" horiz-adv-x="915" d="M195 1311q0 50 35 86.5t94 36.5q47 0 74.5 -25.5t27.5 -67.5q0 -49 -37 -86.5t-94 -37.5q-44 0 -72 26.5t-28 67.5zM586 1311q0 50 36 86.5t95 36.5q47 0 73.5 -25.5t26.5 -67.5q0 -49 -37 -86.5t-94 -37.5q-38 0 -69 21.5t-31 72.5z" />
<glyph unicode="&#xa9;" horiz-adv-x="1712" d="M184 561q0 242 92 421.5t273 279.5t432 100q295 0 462 -157.5t167 -422.5q0 -61 -8.5 -126.5t-32 -147.5t-61 -155.5t-100.5 -145.5t-144 -124t-199 -84t-258 -32q-292 0 -457.5 163t-165.5 431zM334 561q0 -219 131 -346t358 -127q145 0 260 47.5t183.5 119.5 t113.5 166.5t61.5 180t16.5 168.5q0 218 -132 344.5t-361 126.5q-297 0 -464 -183.5t-167 -496.5zM547 629q0 181 104 287t269 106q94 0 149 -59l29 51l102 -2l-33 -275h-133l4 115q-38 43 -108 43q-103 0 -165.5 -65.5t-62.5 -198.5q0 -99 55 -157t144 -58q36 0 70.5 9.5 t59 23t43.5 27t28 22.5l10 10l49 -92q-4 -5 -12 -14t-35 -32t-57 -40.5t-78.5 -32t-99.5 -14.5q-147 0 -239.5 93.5t-92.5 252.5z" />
<glyph unicode="&#xaa;" horiz-adv-x="927" d="M133 813q0 258 567 291l5 29q2 12 2 32q0 53 -35.5 78t-112.5 25q-61 0 -118.5 -18.5t-84.5 -37.5l-28 -18l-54 92l11.5 11.5t36.5 26.5t63.5 33t94 26t126.5 12q151 0 226 -51t75 -160q0 -38 -4 -58l-72 -471h-161l-17 99q-5 -7 -13.5 -17.5t-32.5 -30t-52.5 -34.5 t-74.5 -27t-97 -12q-124 0 -187 47t-63 133zM334 842q0 -90 139 -90q44 0 81.5 15t62 39.5t33.5 36t16 23.5l20 140q-79 -6 -135 -15t-109 -26.5t-80.5 -48t-27.5 -74.5z" />
<glyph unicode="&#xab;" horiz-adv-x="1179" d="M207 512l418 362l75 -98l-294 -268l210 -266l-104 -105zM608 512l418 362l76 -98l-295 -268l211 -266l-105 -105z" />
<glyph unicode="&#xac;" horiz-adv-x="1087" d="M143 565l25 166h850l-23 -166h-2l-49 -338h-176l51 338h-676z" />
<glyph unicode="&#xad;" horiz-adv-x="763" d="M106 483l15 166h590l-25 -166h-580z" />
<glyph unicode="&#xae;" horiz-adv-x="1495" d="M182 799q0 220 87.5 390.5t252 266.5t381.5 96q261 0 415.5 -142.5t154.5 -381.5q0 -59 -9.5 -123.5t-33 -140.5t-59.5 -145.5t-94.5 -135t-131 -113.5t-175 -77t-222.5 -29q-265 0 -415.5 145.5t-150.5 389.5zM332 801q0 -198 114 -307t318 -109q232 0 371 134.5 t178 387.5q10 68 10 117q0 195 -115.5 304.5t-320.5 109.5q-180 0 -306.5 -82t-187.5 -224t-61 -331zM567 586l101 641h209q126 0 188.5 -38.5t62.5 -123.5q0 -87 -47 -143t-129 -80l101 -258h-135l-95 241h-98l-37 -239h-121zM737 905h90q73 0 121.5 37t48.5 111 q0 84 -131 84h-94z" />
<glyph unicode="&#xaf;" horiz-adv-x="952" d="M381 1280l16 117h463l-16 -117h-463z" />
<glyph unicode="&#xb0;" horiz-adv-x="966" d="M209 1096q0 206 125 336.5t330 130.5q156 0 243.5 -90.5t87.5 -243.5q0 -202 -122.5 -332.5t-329.5 -130.5q-162 0 -248 89t-86 241zM393 1102q0 -82 43.5 -130t126.5 -48q112 0 181 80.5t69 220.5q0 86 -44 135t-128 49q-114 0 -181 -80.5t-67 -226.5z" />
<glyph unicode="&#xb1;" horiz-adv-x="1146" d="M53 268l13 166h1015l-22 -166h-1006zM244 993l12 166h352l54 342h174l-54 -342h336l-22 -166h-338l-51 -342h-177l54 342h-340z" />
<glyph unicode="&#xb2;" horiz-adv-x="974" d="M111 471l24 168q5 2 39.5 23t90.5 59.5t121 86.5t130.5 106.5t119 117t87 120.5t33.5 114q0 133 -158 133q-102 0 -182 -70l-21 -78h-143l51 295h115l12 -69q124 86 252 86q147 0 223 -77t76 -200q0 -72 -37.5 -149t-94.5 -143t-137 -134t-151.5 -117.5t-150.5 -97.5h348 l33 103l139 -9l-49 -268h-770z" />
<glyph unicode="&#xb3;" horiz-adv-x="970" d="M143 494l27 239l137 8l-2 -125q70 -16 135 -16q136 0 211.5 58t75.5 153q2 64 -39 102.5t-117 38.5q-39 0 -73 -14t-47 -27l-80 97l364 358h-303l-29 -113h-137l51 293l162 -10h518l-18 -117l-338 -323q125 -2 205 -76t80 -195q0 -182 -138.5 -282.5t-359.5 -100.5 q-82 0 -153 13t-101 26z" />
<glyph unicode="&#xb4;" horiz-adv-x="512" d="M236 1182l237 297l211 -23l-299 -285z" />
<glyph unicode="&#xb5;" horiz-adv-x="1253" d="M33 -512l129 817q0 13 4 33l78 516l-109 8l12 162h349l-103 -643q-4 -32 -4 -49q0 -82 48.5 -130t142.5 -48q47 0 92 9.5t75.5 22.5t54 26t34.5 22l12 10l94 610l-111 8l13 162h348l-121 -776v-17q0 -69 39 -69l92 4l-8 -152q-121 -28 -238 -28q-59 0 -86 22.5t-28 75.5 h-8q-5 -5 -14 -13t-41.5 -28t-70.5 -35.5t-101 -28t-132 -12.5q-76 0 -143 23l-76 -502h-223z" />
<glyph unicode="&#xb6;" horiz-adv-x="1527" d="M172 862q0 161 62.5 262t207 154t381.5 53h754l-25 -188h-145l-176 -1143h-225l176 1143h-209l-180 -1143h-220l78 489q-233 0 -356 93t-123 280z" />
<glyph unicode="&#xb7;" horiz-adv-x="610" d="M213 698q0 61 46.5 101.5t109.5 40.5q53 0 85.5 -30t32.5 -79q0 -56 -43.5 -98.5t-111.5 -42.5q-55 0 -87 29t-32 79z" />
<glyph unicode="&#xb8;" horiz-adv-x="555" d="M-51 -436l49 84q7 -7 19.5 -17t52 -26.5t80.5 -16.5q70 0 104.5 29.5t34.5 81.5q0 33 -26 56.5t-57.5 33t-57.5 16.5t-25 11l51 180h111l-33 -123q0 -3 19 -9t46.5 -17t55.5 -28t47.5 -47.5t19.5 -68.5q0 -98 -70.5 -157.5t-201.5 -59.5q-43 0 -81.5 8t-62.5 19.5t-42 23 t-26 19.5z" />
<glyph unicode="&#xb9;" horiz-adv-x="974" d="M244 471l10 150l221 14l111 708l-226 -102l-41 143l328 152h170l-141 -911l190 -7l-30 -147h-592z" />
<glyph unicode="&#xba;" horiz-adv-x="999" d="M164 948q0 206 125.5 326.5t363.5 120.5q183 0 277 -83.5t94 -232.5q0 -204 -129.5 -325t-359.5 -121q-185 0 -278 82.5t-93 232.5zM369 938q0 -186 184 -186q130 0 198 84.5t68 250.5q0 181 -184 181q-266 0 -266 -330z" />
<glyph unicode="&#xbb;" horiz-adv-x="1177" d="M106 238l295 264l-208 270l104 102l305 -372l-416 -365zM512 238l295 264l-209 270l104 102l306 -372l-416 -365z" />
<glyph unicode="&#xbc;" horiz-adv-x="1929" d="M244 471l10 150l221 14l111 708l-226 -102l-41 143l328 152h170l-141 -911l190 -7l-30 -147h-592zM575 27l930 1187l123 -73l-928 -1188zM932 -246l8 123q92 132 193.5 314t171.5 354l188 -23q-123 -292 -338 -616h295l37 219l65 240h174l-73 -459h119l-19 -139l-123 -11 l-24 -153l86 -9l-19 -137h-391l10 137l109 7l24 153h-493z" />
<glyph unicode="&#xbd;" horiz-adv-x="2056" d="M244 471l10 150l221 14l111 708l-226 -102l-41 143l328 152h170l-141 -911l190 -7l-30 -147h-592zM575 27l930 1187l123 -73l-928 -1188zM1034 -543l25 168q9 3 70.5 42.5t154.5 108.5t181 146.5t151 168t63 161.5q0 133 -157 133q-103 0 -183 -70l-20 -77h-143l51 294 h114l13 -69q124 86 252 86q147 0 223 -77t76 -200q0 -72 -37.5 -149.5t-95 -143t-137 -133.5t-151.5 -117.5t-151 -97.5h348l33 103l139 -8l-49 -269h-770z" />
<glyph unicode="&#xbe;" horiz-adv-x="1898" d="M143 494l27 239l137 8l-2 -125q70 -16 135 -16q136 0 211.5 58t75.5 153q2 64 -39 102.5t-117 38.5q-39 0 -73 -14t-47 -27l-80 97l364 358h-303l-29 -113h-137l51 293l162 -10h518l-18 -117l-338 -323q125 -2 205 -76t80 -195q0 -182 -138.5 -282.5t-359.5 -100.5 q-82 0 -153 13t-101 26zM547 27l930 1187l122 -73l-927 -1188zM903 -246l8 123q92 132 193.5 314t171.5 354l188 -23q-123 -292 -338 -616h295l37 219l66 240h174l-74 -459h119l-19 -139l-122 -11l-25 -153l86 -9l-18 -137h-392l11 137l108 7l25 153h-494z" />
<glyph unicode="&#xbf;" horiz-adv-x="991" d="M-4 -246q0 93 33 165t85.5 117t116 82.5t127 72.5t116 76t85.5 104.5t33 146.5q0 29 -2 45l127 10q8 -52 8 -104q0 -69 -17 -126t-46 -96.5t-67 -73t-79.5 -59.5t-83 -50t-79.5 -50.5t-67 -56.5t-46 -71.5t-17 -92.5q0 -72 55 -118t175 -46q44 0 135 17l47 200l158 -12 l-62 -340q-113 -39 -291 -39q-212 0 -328 82t-116 217zM567 907q0 61 46.5 101.5t109.5 40.5q53 0 86 -30t33 -79q0 -56 -44 -98.5t-112 -42.5q-55 0 -87 29t-32 79z" />
<glyph unicode="&#xc0;" horiz-adv-x="1443" d="M-68 0l15 162l153 8l615 1161h307l254 -1173l145 -6l-20 -152h-510l18 131l129 6l-59 254h-543l-133 -246l131 -8l-18 -137h-484zM514 539h434l-121 608zM621 1733l213 24l151 -295l-156 -14z" />
<glyph unicode="&#xc1;" horiz-adv-x="1443" d="M-68 0l15 162l153 8l615 1161h307l254 -1173l145 -6l-20 -152h-510l18 131l129 6l-59 254h-543l-133 -246l131 -8l-18 -137h-484zM514 539h434l-121 608zM780 1458l238 297l211 -22l-299 -285z" />
<glyph unicode="&#xc2;" horiz-adv-x="1443" d="M-68 0l15 162l153 8l615 1161h307l254 -1173l145 -6l-20 -152h-510l18 131l129 6l-59 254h-543l-133 -246l131 -8l-18 -137h-484zM514 539h434l-121 608zM580 1608l299 198h120l236 -198l-86 -127l-231 178l-287 -178z" />
<glyph unicode="&#xc3;" horiz-adv-x="1443" d="M-68 0l15 162l153 8l615 1161h307l254 -1173l145 -6l-20 -152h-510l18 131l129 6l-59 254h-543l-133 -246l131 -8l-18 -137h-484zM514 539h434l-121 608zM547 1642q2 4 7 11.5t24 26.5t42 33t63 26t85 12q54 0 106 -16.5t86.5 -36.5t79 -36.5t84.5 -16.5t76 10.5t52 20.5 l16 10l10 -113q-1 -4 -4.5 -10t-18 -21.5t-34 -27.5t-56 -21.5t-80.5 -9.5q-61 0 -123.5 25t-121.5 50t-111 25q-42 0 -85 -16.5t-65 -32.5l-22 -16z" />
<glyph unicode="&#xc4;" horiz-adv-x="1443" d="M-68 0l15 162l153 8l615 1161h307l254 -1173l145 -6l-20 -152h-510l18 131l129 6l-59 254h-543l-133 -246l131 -8l-18 -137h-484zM514 539h434l-121 608zM596 1587q0 50 35 86.5t94 36.5q47 0 74.5 -25t27.5 -67q0 -49 -37.5 -87t-93.5 -38q-44 0 -72 26.5t-28 67.5z M987 1587q0 50 36 86.5t95 36.5q47 0 74 -25t27 -67q0 -49 -37.5 -87t-94.5 -38q-38 0 -69 21.5t-31 72.5z" />
<glyph unicode="&#xc5;" horiz-adv-x="1443" d="M-68 0l15 162l153 8l615 1161h307l254 -1173l145 -6l-20 -152h-510l18 131l129 6l-59 254h-543l-133 -246l131 -8l-18 -137h-484zM514 539h434l-121 608zM696 1665q0 111 75.5 184.5t184.5 73.5q83 0 136 -53.5t53 -138.5q0 -108 -74 -182t-182 -74q-90 0 -141.5 52 t-51.5 138zM801 1679q0 -47 28 -76.5t72 -29.5q59 0 99 42t40 105q0 47 -27.5 77t-70.5 30q-57 0 -99 -42.5t-42 -105.5z" />
<glyph unicode="&#xc6;" horiz-adv-x="1884" d="M-174 0l12 162l199 6l786 999l-166 7l13 157h1038l201 10l-39 -335h-182l8 149h-447l-63 -399l571 2l-24 -170h-574l-63 -412h499l45 168l168 -10l-61 -334h-1057l6 121l162 8l41 262h-459l-200 -260l108 -6l-16 -125h-506zM549 539h373l94 616h-17z" />
<glyph unicode="&#xc7;" horiz-adv-x="1349" d="M131 580q0 169 54.5 314.5t150.5 248t231 161t291 58.5q173 0 316 -109l45 88h135l-62 -487h-172l21 244q-116 80 -262 80q-107 0 -198 -38t-160 -111t-108.5 -190t-39.5 -266q0 -198 118.5 -308.5t303.5 -110.5q73 0 142 18.5t115 45t82 53t53 45.5l17 18l90 -123 q-7 -10 -20 -26.5t-60.5 -58.5t-103 -74t-148.5 -58.5t-196 -26.5q-33 0 -49 2l-25 -96q0 -3 19 -9t47 -17t56 -28t47.5 -47.5t19.5 -68.5q0 -98 -71 -157.5t-202 -59.5q-43 0 -81.5 8t-62.5 19.5t-42 23t-26 19.5l-7 8l49 84q7 -7 19.5 -17t52 -26.5t80.5 -16.5 q70 0 104.5 29.5t34.5 81.5q0 33 -26 56.5t-57.5 33t-57.5 16.5t-25 11l47 166q-223 43 -351 201.5t-128 396.5z" />
<glyph unicode="&#xc8;" horiz-adv-x="1239" d="M29 0l12 162l162 8l155 1001l-157 9l12 151h834l200 10l-39 -335h-182l8 149h-446l-64 -399l572 2l-25 -170h-573l-64 -412h500l45 168l168 -10l-64 -334h-1054zM567 1733l213 24l152 -295l-156 -14z" />
<glyph unicode="&#xc9;" horiz-adv-x="1239" d="M29 0l12 162l162 8l155 1001l-157 9l12 151h834l200 10l-39 -335h-182l8 149h-446l-64 -399l572 2l-25 -170h-573l-64 -412h500l45 168l168 -10l-64 -334h-1054zM725 1458l238 297l211 -22l-300 -285z" />
<glyph unicode="&#xca;" horiz-adv-x="1239" d="M29 0l12 162l162 8l155 1001l-157 9l12 151h834l200 10l-39 -335h-182l8 149h-446l-64 -399l572 2l-25 -170h-573l-64 -412h500l45 168l168 -10l-64 -334h-1054zM524 1608l299 198h121l236 -198l-86 -127l-232 178l-287 -178z" />
<glyph unicode="&#xcb;" horiz-adv-x="1239" d="M29 0l12 162l162 8l155 1001l-157 9l12 151h834l200 10l-39 -335h-182l8 149h-446l-64 -399l572 2l-25 -170h-573l-64 -412h500l45 168l168 -10l-64 -334h-1054zM539 1587q0 50 35 86.5t94 36.5q47 0 74.5 -25t27.5 -67q0 -49 -37.5 -87t-93.5 -38q-44 0 -72 26.5 t-28 67.5zM930 1587q0 50 36 86.5t95 36.5q47 0 73.5 -25t26.5 -67q0 -49 -37.5 -87t-93.5 -38q-38 0 -69 21.5t-31 72.5z" />
<glyph unicode="&#xcc;" horiz-adv-x="708" d="M29 0l12 162l162 8l155 1001l-157 9l12 151h553l-23 -162l-153 -8l-156 -1001l156 -8l-23 -152h-538zM250 1733l213 24l151 -295l-155 -14z" />
<glyph unicode="&#xcd;" horiz-adv-x="708" d="M29 0l12 162l162 8l155 1001l-157 9l12 151h553l-23 -162l-153 -8l-156 -1001l156 -8l-23 -152h-538zM410 1458l237 297l211 -22l-299 -285z" />
<glyph unicode="&#xce;" horiz-adv-x="708" d="M29 0l12 162l162 8l155 1001l-157 9l12 151h553l-23 -162l-153 -8l-156 -1001l156 -8l-23 -152h-538zM207 1608l299 198h121l235 -198l-86 -127l-231 178l-287 -178z" />
<glyph unicode="&#xcf;" horiz-adv-x="708" d="M29 0l12 162l162 8l155 1001l-157 9l12 151h553l-23 -162l-153 -8l-156 -1001l156 -8l-23 -152h-538zM223 1587q0 50 35 86.5t94 36.5q47 0 75 -25.5t28 -66.5q0 -49 -37.5 -87t-93.5 -38q-44 0 -72.5 26.5t-28.5 67.5zM614 1587q0 50 36 86.5t95 36.5q47 0 74 -25 t27 -67q0 -49 -37.5 -87t-93.5 -38q-38 0 -69.5 21.5t-31.5 72.5z" />
<glyph unicode="&#xd0;" horiz-adv-x="1533" d="M29 0l12 162l162 8l63 418h-186l12 145h197l69 438l-157 9l12 151h643q305 0 473 -133.5t168 -394.5q0 -244 -94.5 -424t-281 -279.5t-447.5 -99.5h-645zM438 184h264q257 0 405 155.5t148 455.5q0 177 -111 264.5t-313 87.5h-243l-66 -414h371l-21 -145h-372z" />
<glyph unicode="&#xd1;" horiz-adv-x="1617" d="M29 0l12 162l162 8l155 1001l-157 9l12 151h412l553 -1028h2l2 68l127 792l-158 11l10 157h537l-23 -162l-151 -8l-183 -1171h-237l-561 1009h-4l-4 -88l-121 -745l157 -8l-22 -158h-520zM647 1642q2 4 7 11.5t24 26.5t42 33t63 26t85 12q54 0 106.5 -16.5t87 -36.5 t79 -36.5t84.5 -16.5t75.5 10.5t51.5 20.5l16 10l10 -113q-1 -4 -4.5 -10t-18 -21.5t-33.5 -27.5t-55.5 -21.5t-80.5 -9.5q-61 0 -123.5 25t-122 50t-111.5 25q-42 0 -85 -16.5t-65 -32.5l-22 -16z" />
<glyph unicode="&#xd2;" d="M129 571q0 365 210.5 578t578.5 213q282 0 434.5 -140.5t152.5 -392.5q0 -116 -29 -233.5t-93 -231.5t-155.5 -201.5t-227.5 -141.5t-298 -54q-183 0 -314 79t-195 214t-64 311zM369 575q0 -189 94 -306t266 -117q107 0 197.5 41.5t151 108.5t103 153.5t62 176 t19.5 177.5q0 179 -95 274t-274 95q-245 0 -384.5 -159t-139.5 -444zM670 1733l213 24l151 -295l-155 -14z" />
<glyph unicode="&#xd3;" d="M129 571q0 365 210.5 578t578.5 213q282 0 434.5 -140.5t152.5 -392.5q0 -116 -29 -233.5t-93 -231.5t-155.5 -201.5t-227.5 -141.5t-298 -54q-183 0 -314 79t-195 214t-64 311zM369 575q0 -189 94 -306t266 -117q107 0 197.5 41.5t151 108.5t103 153.5t62 176 t19.5 177.5q0 179 -95 274t-274 95q-245 0 -384.5 -159t-139.5 -444zM827 1458l238 297l211 -22l-299 -285z" />
<glyph unicode="&#xd4;" d="M129 571q0 365 210.5 578t578.5 213q282 0 434.5 -140.5t152.5 -392.5q0 -116 -29 -233.5t-93 -231.5t-155.5 -201.5t-227.5 -141.5t-298 -54q-183 0 -314 79t-195 214t-64 311zM369 575q0 -189 94 -306t266 -117q107 0 197.5 41.5t151 108.5t103 153.5t62 176 t19.5 177.5q0 179 -95 274t-274 95q-245 0 -384.5 -159t-139.5 -444zM625 1608l299 198h120l236 -198l-86 -127l-231 178l-287 -178z" />
<glyph unicode="&#xd5;" d="M129 571q0 365 210.5 578t578.5 213q282 0 434.5 -140.5t152.5 -392.5q0 -116 -29 -233.5t-93 -231.5t-155.5 -201.5t-227.5 -141.5t-298 -54q-183 0 -314 79t-195 214t-64 311zM369 575q0 -189 94 -306t266 -117q107 0 197.5 41.5t151 108.5t103 153.5t62 176 t19.5 177.5q0 179 -95 274t-274 95q-245 0 -384.5 -159t-139.5 -444zM594 1642q2 4 7 11.5t24 26.5t42 33t63 26t85 12q54 0 106 -16.5t86.5 -36.5t79 -36.5t84.5 -16.5t76 10.5t52 20.5l16 10l10 -113q-1 -4 -4.5 -10t-18 -21.5t-33.5 -27.5t-55.5 -21.5t-80.5 -9.5 q-61 0 -123.5 25t-122 50t-111.5 25q-42 0 -85 -16.5t-65 -32.5l-22 -16z" />
<glyph unicode="&#xd6;" d="M129 571q0 365 210.5 578t578.5 213q282 0 434.5 -140.5t152.5 -392.5q0 -116 -29 -233.5t-93 -231.5t-155.5 -201.5t-227.5 -141.5t-298 -54q-183 0 -314 79t-195 214t-64 311zM369 575q0 -189 94 -306t266 -117q107 0 197.5 41.5t151 108.5t103 153.5t62 176 t19.5 177.5q0 179 -95 274t-274 95q-245 0 -384.5 -159t-139.5 -444zM643 1587q0 50 35 86.5t94 36.5q47 0 74.5 -25t27.5 -67q0 -49 -37.5 -87t-93.5 -38q-44 0 -72 26.5t-28 67.5zM1034 1587q0 50 36 86.5t95 36.5q47 0 74 -25t27 -67q0 -49 -37.5 -87t-93.5 -38 q-38 0 -69.5 21.5t-31.5 72.5z" />
<glyph unicode="&#xd7;" horiz-adv-x="886" d="M80 418l274 235l-202 238l143 133l207 -242l280 242l105 -133l-275 -238l201 -235l-143 -131l-205 237l-277 -237z" />
<glyph unicode="&#xd8;" d="M129 571q0 365 210.5 578t578.5 213q141 0 260 -39l106 166l96 -16l-118 -189q119 -65 181 -181t62 -274q0 -116 -29 -233.5t-93 -231.5t-155.5 -201.5t-227.5 -141.5t-298 -54q-111 0 -215 33l-120 -213l-99 16l135 234q-134 74 -204 213t-70 321zM369 575 q0 -115 36 -206t105 -148l557 926q-76 31 -174 31q-245 0 -384.5 -159t-139.5 -444zM590 174q64 -22 139 -22q107 0 197.5 41.5t151 108.5t103 153.5t62 176t19.5 177.5q0 197 -117 291z" />
<glyph unicode="&#xd9;" horiz-adv-x="1511" d="M160 1180l10 151h553l-21 -151l-153 -9l-103 -649q-6 -44 -6 -84q0 -126 70 -199t213 -73q167 0 266 98t125 258l100 641l-159 11l12 157h543l-21 -151l-155 -11l-107 -694q-16 -105 -61.5 -194t-121 -160.5t-192.5 -112.5t-262 -41q-127 0 -223.5 32t-154 89.5 t-85.5 131t-28 161.5q0 28 8 94l108 696zM711 1733l213 24l151 -295l-155 -14z" />
<glyph unicode="&#xda;" horiz-adv-x="1511" d="M160 1180l10 151h553l-21 -151l-153 -9l-103 -649q-6 -44 -6 -84q0 -126 70 -199t213 -73q167 0 266 98t125 258l100 641l-159 11l12 157h543l-21 -151l-155 -11l-107 -694q-16 -105 -61.5 -194t-121 -160.5t-192.5 -112.5t-262 -41q-127 0 -223.5 32t-154 89.5 t-85.5 131t-28 161.5q0 28 8 94l108 696zM772 1458l238 297l211 -22l-299 -285z" />
<glyph unicode="&#xdb;" horiz-adv-x="1511" d="M160 1180l10 151h553l-21 -151l-153 -9l-103 -649q-6 -44 -6 -84q0 -126 70 -199t213 -73q167 0 266 98t125 258l100 641l-159 11l12 157h543l-21 -151l-155 -11l-107 -694q-16 -105 -61.5 -194t-121 -160.5t-192.5 -112.5t-262 -41q-127 0 -223.5 32t-154 89.5 t-85.5 131t-28 161.5q0 28 8 94l108 696zM610 1608l299 198h121l236 -198l-86 -127l-232 178l-286 -178z" />
<glyph unicode="&#xdc;" horiz-adv-x="1511" d="M160 1180l10 151h553l-21 -151l-153 -9l-103 -649q-6 -44 -6 -84q0 -126 70 -199t213 -73q167 0 266 98t125 258l100 641l-159 11l12 157h543l-21 -151l-155 -11l-107 -694q-16 -105 -61.5 -194t-121 -160.5t-192.5 -112.5t-262 -41q-127 0 -223.5 32t-154 89.5 t-85.5 131t-28 161.5q0 28 8 94l108 696zM627 1587q0 50 35 86.5t94 36.5q47 0 74.5 -25t27.5 -67q0 -49 -37.5 -87t-93.5 -38q-44 0 -72 26.5t-28 67.5zM1018 1587q0 50 36 86.5t95 36.5q47 0 73.5 -25t26.5 -67q0 -49 -37.5 -87t-93.5 -38q-38 0 -69 21.5t-31 72.5z" />
<glyph unicode="&#xdd;" horiz-adv-x="1316" d="M70 1180l10 151h547l-19 -151l-92 -6l213 -441l344 436l-82 5l25 157h500l-25 -162l-186 -6l-496 -624l-57 -369l155 -8l-24 -162h-539l12 162l162 8l55 365l-315 639zM758 1458l237 297l211 -22l-299 -285z" />
<glyph unicode="&#xde;" horiz-adv-x="1230" d="M29 0l12 162l162 8l155 1001l-157 9l12 151h387l-35 -221h183q452 0 452 -360q0 -115 -36 -210t-94.5 -157.5t-136.5 -105.5t-159 -61.5t-164 -18.5h-186l-31 -197h-364zM451 367h161q158 0 256.5 90t98.5 272q0 109 -67 156t-195 47h-166z" />
<glyph unicode="&#xdf;" horiz-adv-x="1316" d="M-264 -502l80 174q55 -22 123 -22q64 0 119 75.5t77 211.5l184 1183q67 436 525 436q375 0 375 -258q0 -211 -234 -329q283 -85 283 -381q0 -287 -146 -454t-387 -167q-62 0 -112.5 7t-78 17t-45.5 20t-24 17l-6 7l51 135q5 -4 16 -10.5t54.5 -17.5t99.5 -11 q155 0 250.5 120t95.5 333q0 141 -83.5 202.5t-272.5 61.5l4 20l16 146q6 0 16.5 1.5t41 8t58 16t61.5 28.5t58.5 42.5t41 61t16.5 81.5q0 72 -45 105t-135 33q-114 0 -180.5 -66t-89.5 -205l-185 -1183q-19 -123 -63.5 -218t-103.5 -151t-123.5 -84.5t-130.5 -28.5 q-45 0 -82.5 4.5t-58.5 10.5t-35.5 12.5t-19.5 11.5z" />
<glyph unicode="&#xe0;" horiz-adv-x="1243" d="M82 416q0 186 70.5 331t203.5 227.5t308 82.5q59 0 109.5 -10t81 -24.5t53 -29.5t31.5 -25l9 -10h2l47 66h174l-114 -737q-6 -38 -6 -60q0 -65 41 -65l94 4l-8 -152q-123 -28 -238 -28q-61 0 -89 24t-28 80v19h-2q-4 -6 -12.5 -15.5t-39.5 -34t-67.5 -43t-97.5 -34 t-129 -15.5q-180 0 -286.5 124.5t-106.5 324.5zM311 410q0 -131 66.5 -203t187.5 -72q54 0 104.5 17t84 42.5t52.5 44t28 31.5l84 535q-75 86 -213 86q-394 0 -394 -481zM449 1456l213 25l151 -295l-156 -15z" />
<glyph unicode="&#xe1;" horiz-adv-x="1243" d="M82 416q0 186 70.5 331t203.5 227.5t308 82.5q59 0 109.5 -10t81 -24.5t53 -29.5t31.5 -25l9 -10h2l47 66h174l-114 -737q-6 -38 -6 -60q0 -65 41 -65l94 4l-8 -152q-123 -28 -238 -28q-61 0 -89 24t-28 80v19h-2q-4 -6 -12.5 -15.5t-39.5 -34t-67.5 -43t-97.5 -34 t-129 -15.5q-180 0 -286.5 124.5t-106.5 324.5zM311 410q0 -131 66.5 -203t187.5 -72q54 0 104.5 17t84 42.5t52.5 44t28 31.5l84 535q-75 86 -213 86q-394 0 -394 -481zM608 1182l238 297l211 -23l-299 -285z" />
<glyph unicode="&#xe2;" horiz-adv-x="1243" d="M82 416q0 186 70.5 331t203.5 227.5t308 82.5q59 0 109.5 -10t81 -24.5t53 -29.5t31.5 -25l9 -10h2l47 66h174l-114 -737q-6 -38 -6 -60q0 -65 41 -65l94 4l-8 -152q-123 -28 -238 -28q-61 0 -89 24t-28 80v19h-2q-4 -6 -12.5 -15.5t-39.5 -34t-67.5 -43t-97.5 -34 t-129 -15.5q-180 0 -286.5 124.5t-106.5 324.5zM311 410q0 -131 66.5 -203t187.5 -72q54 0 104.5 17t84 42.5t52.5 44t28 31.5l84 535q-75 86 -213 86q-394 0 -394 -481zM406 1331l299 199h120l236 -199l-86 -127l-232 178l-286 -178z" />
<glyph unicode="&#xe3;" horiz-adv-x="1243" d="M82 416q0 186 70.5 331t203.5 227.5t308 82.5q59 0 109.5 -10t81 -24.5t53 -29.5t31.5 -25l9 -10h2l47 66h174l-114 -737q-6 -38 -6 -60q0 -65 41 -65l94 4l-8 -152q-123 -28 -238 -28q-61 0 -89 24t-28 80v19h-2q-4 -6 -12.5 -15.5t-39.5 -34t-67.5 -43t-97.5 -34 t-129 -15.5q-180 0 -286.5 124.5t-106.5 324.5zM311 410q0 -131 66.5 -203t187.5 -72q54 0 104.5 17t84 42.5t52.5 44t28 31.5l84 535q-75 86 -213 86q-394 0 -394 -481zM375 1366q2 4 7 11.5t24 26.5t42 33t63 26t85 12q54 0 106 -16.5t86.5 -37t79 -37t84.5 -16.5t76 10 t52 20l16 11l10 -113q-1 -4 -4.5 -10t-18 -21.5t-34 -27.5t-56 -21.5t-80.5 -9.5q-49 0 -99 16t-85.5 34.5t-82.5 34.5t-89 16t-85 -16.5t-65 -32.5l-22 -17z" />
<glyph unicode="&#xe4;" horiz-adv-x="1243" d="M82 416q0 186 70.5 331t203.5 227.5t308 82.5q59 0 109.5 -10t81 -24.5t53 -29.5t31.5 -25l9 -10h2l47 66h174l-114 -737q-6 -38 -6 -60q0 -65 41 -65l94 4l-8 -152q-123 -28 -238 -28q-61 0 -89 24t-28 80v19h-2q-4 -6 -12.5 -15.5t-39.5 -34t-67.5 -43t-97.5 -34 t-129 -15.5q-180 0 -286.5 124.5t-106.5 324.5zM311 410q0 -131 66.5 -203t187.5 -72q54 0 104.5 17t84 42.5t52.5 44t28 31.5l84 535q-75 86 -213 86q-394 0 -394 -481zM420 1311q0 50 35 86.5t94 36.5q47 0 74.5 -25.5t27.5 -67.5q0 -49 -37 -86.5t-94 -37.5 q-44 0 -72 26.5t-28 67.5zM811 1311q0 50 36 86.5t95 36.5q47 0 73.5 -25.5t26.5 -67.5q0 -49 -37 -86.5t-94 -37.5q-38 0 -69 21.5t-31 72.5z" />
<glyph unicode="&#xe5;" horiz-adv-x="1243" d="M82 416q0 186 70.5 331t203.5 227.5t308 82.5q59 0 109.5 -10t81 -24.5t53 -29.5t31.5 -25l9 -10h2l47 66h174l-114 -737q-6 -38 -6 -60q0 -65 41 -65l94 4l-8 -152q-123 -28 -238 -28q-61 0 -89 24t-28 80v19h-2q-4 -6 -12.5 -15.5t-39.5 -34t-67.5 -43t-97.5 -34 t-129 -15.5q-180 0 -286.5 124.5t-106.5 324.5zM311 410q0 -131 66.5 -203t187.5 -72q54 0 104.5 17t84 42.5t52.5 44t28 31.5l84 535q-75 86 -213 86q-394 0 -394 -481zM524 1386q0 111 75.5 185t184.5 74q83 0 136 -54t53 -139q0 -108 -74 -182t-182 -74q-90 0 -141.5 52 t-51.5 138zM629 1401q0 -47 28 -77t72 -30q59 0 99 42.5t40 105.5q0 47 -27.5 76.5t-70.5 29.5q-57 0 -99 -42t-42 -105z" />
<glyph unicode="&#xe6;" horiz-adv-x="1703" d="M39 233q0 55 16.5 101.5t43 81t69 63.5t83.5 48.5t98.5 35.5t103 25t107.5 16.5t100.5 10.5t93.5 6l8 47q6 40 6 73q0 82 -40.5 118t-129.5 36q-114 0 -211 -84l-22 -94h-158l53 317h127l8 -55q124 78 254 78q218 0 275 -156q166 156 397 156q168 0 273.5 -82.5 t105.5 -218.5q0 -178 -173 -248t-583 -72v-24q0 -134 80 -206.5t203 -72.5q55 0 104 13t80 31.5t54.5 36.5t33.5 31l10 13l113 -80q-5 -9 -14 -23t-45.5 -50.5t-80.5 -64t-121 -50.5t-165 -23q-146 0 -256 56.5t-166 164.5q-134 -221 -403 -221q-155 0 -243.5 72.5 t-88.5 193.5zM272 264q0 -68 45 -106.5t132 -38.5q50 0 93 20.5t71.5 49.5t53 69.5t37.5 73t23 67.5v13q0 23 4 73q-63 -3 -106 -6t-95.5 -10t-86.5 -17t-69.5 -26t-55.5 -38t-33 -53.5t-13 -70.5zM958 573q307 0 425 36.5t118 135.5q0 69 -52.5 110.5t-152.5 41.5 q-128 0 -217 -84t-121 -240z" />
<glyph unicode="&#xe7;" horiz-adv-x="1001" d="M84 428q0 293 138 461t384 168q141 0 244 -90l33 67h139l-47 -375h-170l10 170q-50 68 -166 68q-166 0 -250 -108t-84 -351q0 -146 81.5 -227.5t203.5 -81.5q47 0 90 12.5t70.5 30.5t48.5 36.5t30 31.5l9 12l108 -76q-4 -8 -12 -22.5t-41 -50.5t-74 -63.5t-113.5 -50 t-156.5 -22.5h-14l-25 -94q0 -3 19 -9t47 -17t56 -28t47.5 -47.5t19.5 -68.5q0 -98 -71 -157.5t-202 -59.5q-43 0 -81.5 8t-62.5 19.5t-42 23t-26 19.5l-7 8l49 84q7 -7 19.5 -17t52 -26.5t80.5 -16.5q70 0 104.5 29.5t34.5 81.5q0 33 -26 56.5t-57.5 33t-57.5 16.5t-25 11 l47 164q-163 33 -258.5 151.5t-95.5 296.5z" />
<glyph unicode="&#xe8;" horiz-adv-x="1058" d="M84 412q0 136 45 255.5t123.5 205t189 135t236.5 49.5q168 0 273.5 -82.5t105.5 -218.5q0 -178 -173 -248t-583 -72v-24q0 -134 80 -206.5t203 -72.5q55 0 104 13t80 31.5t54.5 36.5t33.5 31l10 13l113 -80q-5 -9 -14 -23t-45.5 -50.5t-80.5 -64t-121 -50.5t-165 -23 q-211 0 -340 116.5t-129 328.5zM315 573q307 0 425 36.5t118 135.5q0 69 -52.5 110.5t-152.5 41.5q-128 0 -217 -84t-121 -240zM434 1456l213 25l152 -295l-156 -15z" />
<glyph unicode="&#xe9;" horiz-adv-x="1058" d="M84 412q0 136 45 255.5t123.5 205t189 135t236.5 49.5q168 0 273.5 -82.5t105.5 -218.5q0 -178 -173 -248t-583 -72v-24q0 -134 80 -206.5t203 -72.5q55 0 104 13t80 31.5t54.5 36.5t33.5 31l10 13l113 -80q-5 -9 -14 -23t-45.5 -50.5t-80.5 -64t-121 -50.5t-165 -23 q-211 0 -340 116.5t-129 328.5zM315 573q307 0 425 36.5t118 135.5q0 69 -52.5 110.5t-152.5 41.5q-128 0 -217 -84t-121 -240zM594 1182l237 297l211 -23l-299 -285z" />
<glyph unicode="&#xea;" horiz-adv-x="1058" d="M84 412q0 136 45 255.5t123.5 205t189 135t236.5 49.5q168 0 273.5 -82.5t105.5 -218.5q0 -178 -173 -248t-583 -72v-24q0 -134 80 -206.5t203 -72.5q55 0 104 13t80 31.5t54.5 36.5t33.5 31l10 13l113 -80q-5 -9 -14 -23t-45.5 -50.5t-80.5 -64t-121 -50.5t-165 -23 q-211 0 -340 116.5t-129 328.5zM315 573q307 0 425 36.5t118 135.5q0 69 -52.5 110.5t-152.5 41.5q-128 0 -217 -84t-121 -240zM393 1331l299 199h121l236 -199l-86 -127l-232 178l-287 -178z" />
<glyph unicode="&#xeb;" horiz-adv-x="1058" d="M84 412q0 136 45 255.5t123.5 205t189 135t236.5 49.5q168 0 273.5 -82.5t105.5 -218.5q0 -178 -173 -248t-583 -72v-24q0 -134 80 -206.5t203 -72.5q55 0 104 13t80 31.5t54.5 36.5t33.5 31l10 13l113 -80q-5 -9 -14 -23t-45.5 -50.5t-80.5 -64t-121 -50.5t-165 -23 q-211 0 -340 116.5t-129 328.5zM315 573q307 0 425 36.5t118 135.5q0 69 -52.5 110.5t-152.5 41.5q-128 0 -217 -84t-121 -240zM406 1311q0 50 35 86.5t94 36.5q47 0 74.5 -25.5t27.5 -67.5q0 -49 -37 -86.5t-94 -37.5q-44 0 -72 26.5t-28 67.5zM797 1311q0 50 36 86.5 t95 36.5q47 0 73.5 -25.5t26.5 -67.5q0 -49 -37 -86.5t-94 -37.5q-38 0 -69 21.5t-31 72.5z" />
<glyph unicode="&#xec;" horiz-adv-x="559" d="M135 104q0 16 4 52l107 698l-109 8l13 162h346l-121 -782v-15q0 -65 43 -65l92 4l-8 -152q-123 -28 -238 -28q-65 0 -97 27t-32 91zM145 1456l213 25l152 -295l-156 -15z" />
<glyph unicode="&#xed;" horiz-adv-x="559" d="M135 104q0 16 4 52l107 698l-109 8l13 162h346l-121 -782v-15q0 -65 43 -65l92 4l-8 -152q-123 -28 -238 -28q-65 0 -97 27t-32 91zM303 1182l238 297l211 -23l-299 -285z" />
<glyph unicode="&#xee;" horiz-adv-x="559" d="M102 1331l299 199h121l236 -199l-86 -127l-232 178l-286 -178zM135 104q0 16 4 52l107 698l-109 8l13 162h346l-121 -782v-15q0 -65 43 -65l92 4l-8 -152q-123 -28 -238 -28q-65 0 -97 27t-32 91z" />
<glyph unicode="&#xef;" horiz-adv-x="559" d="M117 1311q0 50 35 86.5t94 36.5q47 0 74.5 -25.5t27.5 -67.5q0 -49 -37 -86.5t-94 -37.5q-44 0 -72 26.5t-28 67.5zM135 104q0 16 4 52l107 698l-109 8l13 162h346l-121 -782v-15q0 -65 43 -65l92 4l-8 -152q-123 -28 -238 -28q-65 0 -97 27t-32 91zM508 1311 q0 50 36 86.5t95 36.5q47 0 73.5 -25.5t26.5 -67.5q0 -49 -37 -86.5t-94 -37.5q-38 0 -69 21.5t-31 72.5z" />
<glyph unicode="&#xf0;" horiz-adv-x="1165" d="M84 422q0 287 161 461t425 174q82 0 163 -28t144 -81q-26 200 -158 348l-254 -120l-28 81l217 103q-41 36 -103 78l105 104q87 -51 149 -110l189 90l28 -80l-153 -74q190 -223 190 -565q0 -101 -18 -215h-4q-32 -284 -198 -452.5t-407 -168.5q-204 0 -326 125t-122 330z M309 420q0 -130 66.5 -212.5t179.5 -82.5q152 0 255 142.5t103 375.5q0 117 -67 185.5t-184 68.5q-157 0 -255 -119.5t-98 -357.5z" />
<glyph unicode="&#xf1;" horiz-adv-x="1241" d="M115 0l131 854l-109 8l13 162h319l6 -82q131 115 356 115q320 0 320 -252q0 -35 -6 -78l-78 -498q2 -67 43 -67l94 4l-8 -152q-123 -28 -238 -28q-65 0 -98 28t-33 92q0 38 46.5 317.5t46.5 311.5q0 70 -47.5 102.5t-145.5 32.5q-157 0 -270 -90l-119 -780h-223z M387 1366q2 4 7 11.5t24 26.5t42 33t63 26t85 12q54 0 106.5 -16.5t87 -37t79 -37t84.5 -16.5t75.5 10t51.5 20l16 11l10 -113q-1 -4 -4.5 -10t-18 -21.5t-33.5 -27.5t-55.5 -21.5t-80.5 -9.5q-49 0 -99.5 16t-86 34.5t-82.5 34.5t-89 16t-85 -16.5t-65 -32.5l-22 -17z" />
<glyph unicode="&#xf2;" horiz-adv-x="1169" d="M84 418q0 294 160.5 466.5t453.5 172.5q220 0 335.5 -114.5t115.5 -319.5q0 -291 -168.5 -473.5t-450.5 -182.5q-218 0 -332 120.5t-114 330.5zM311 406q0 -131 61 -206t181 -75q176 0 271.5 131.5t95.5 370.5q0 129 -61 199.5t-183 70.5q-179 0 -272 -125t-93 -366z M455 1456l213 25l151 -295l-155 -15z" />
<glyph unicode="&#xf3;" horiz-adv-x="1169" d="M84 418q0 294 160.5 466.5t453.5 172.5q220 0 335.5 -114.5t115.5 -319.5q0 -291 -168.5 -473.5t-450.5 -182.5q-218 0 -332 120.5t-114 330.5zM311 406q0 -131 61 -206t181 -75q176 0 271.5 131.5t95.5 370.5q0 129 -61 199.5t-183 70.5q-179 0 -272 -125t-93 -366z M612 1182l238 297l211 -23l-299 -285z" />
<glyph unicode="&#xf4;" horiz-adv-x="1169" d="M84 418q0 294 160.5 466.5t453.5 172.5q220 0 335.5 -114.5t115.5 -319.5q0 -291 -168.5 -473.5t-450.5 -182.5q-218 0 -332 120.5t-114 330.5zM311 406q0 -131 61 -206t181 -75q176 0 271.5 131.5t95.5 370.5q0 129 -61 199.5t-183 70.5q-179 0 -272 -125t-93 -366z M410 1331l299 199h120l236 -199l-86 -127l-231 178l-287 -178z" />
<glyph unicode="&#xf5;" horiz-adv-x="1169" d="M84 418q0 294 160.5 466.5t453.5 172.5q220 0 335.5 -114.5t115.5 -319.5q0 -291 -168.5 -473.5t-450.5 -182.5q-218 0 -332 120.5t-114 330.5zM311 406q0 -131 61 -206t181 -75q176 0 271.5 131.5t95.5 370.5q0 129 -61 199.5t-183 70.5q-179 0 -272 -125t-93 -366z M379 1366q2 4 7 11.5t24 26.5t42 33t63 26t85 12q54 0 106 -16.5t86.5 -37t79 -37t84.5 -16.5t76 10t52 20l16 11l10 -113q-1 -4 -4.5 -10t-18 -21.5t-33.5 -27.5t-55.5 -21.5t-80.5 -9.5q-49 0 -99.5 16t-86 34.5t-82.5 34.5t-89 16t-85 -16.5t-65 -32.5l-22 -17z" />
<glyph unicode="&#xf6;" horiz-adv-x="1169" d="M84 418q0 294 160.5 466.5t453.5 172.5q220 0 335.5 -114.5t115.5 -319.5q0 -291 -168.5 -473.5t-450.5 -182.5q-218 0 -332 120.5t-114 330.5zM311 406q0 -131 61 -206t181 -75q176 0 271.5 131.5t95.5 370.5q0 129 -61 199.5t-183 70.5q-179 0 -272 -125t-93 -366z M424 1311q0 50 35 86.5t94 36.5q47 0 74.5 -25.5t27.5 -67.5q0 -49 -37 -86.5t-94 -37.5q-44 0 -72 26.5t-28 67.5zM815 1311q0 50 36 86.5t95 36.5q47 0 74 -25.5t27 -67.5q0 -49 -37.5 -86.5t-94.5 -37.5q-38 0 -69 21.5t-31 72.5z" />
<glyph unicode="&#xf7;" horiz-adv-x="1148" d="M82 446l12 166h1016l-23 -166h-1005zM393 129q0 61 46.5 101t109.5 40q53 0 86 -29.5t33 -78.5q0 -56 -44 -99t-112 -43q-55 0 -87 29.5t-32 79.5zM514 899q0 61 46.5 101t109.5 40q53 0 85.5 -29.5t32.5 -78.5q0 -56 -43.5 -98.5t-111.5 -42.5q-55 0 -87 29t-32 79z" />
<glyph unicode="&#xf8;" horiz-adv-x="1187" d="M27 -354l233 389q-176 114 -176 383q0 294 160.5 466.5t453.5 172.5q78 0 164 -21l178 295l140 -16l-199 -330q168 -112 168 -362q0 -291 -168.5 -473.5t-450.5 -182.5q-80 0 -151 19l-213 -357zM311 406q0 -128 54 -197l405 674q-51 14 -94 14q-179 0 -272 -125 t-93 -366zM471 135q42 -10 82 -10q176 0 271.5 131.5t95.5 370.5q0 110 -48 180z" />
<glyph unicode="&#xf9;" horiz-adv-x="1232" d="M115 862l12 162h348l-102 -643q-4 -32 -4 -49q0 -82 48 -130t142 -48q47 0 92 9.5t75.5 22.5t54 26t35.5 22l11 10l95 610l-111 8l12 162h348l-120 -776v-17q0 -69 39 -69l92 4l-8 -152q-121 -28 -238 -28q-59 0 -86.5 22.5t-28.5 75.5h-8q-5 -5 -14 -13t-41.5 -28 t-70.5 -35.5t-100.5 -28t-131.5 -12.5q-153 0 -234.5 76t-81.5 215q0 40 6 80l78 516zM473 1456l213 25l152 -295l-156 -15z" />
<glyph unicode="&#xfa;" horiz-adv-x="1232" d="M115 862l12 162h348l-102 -643q-4 -32 -4 -49q0 -82 48 -130t142 -48q47 0 92 9.5t75.5 22.5t54 26t35.5 22l11 10l95 610l-111 8l12 162h348l-120 -776v-17q0 -69 39 -69l92 4l-8 -152q-121 -28 -238 -28q-59 0 -86.5 22.5t-28.5 75.5h-8q-5 -5 -14 -13t-41.5 -28 t-70.5 -35.5t-100.5 -28t-131.5 -12.5q-153 0 -234.5 76t-81.5 215q0 40 6 80l78 516zM633 1182l237 297l211 -23l-299 -285z" />
<glyph unicode="&#xfb;" horiz-adv-x="1232" d="M115 862l12 162h348l-102 -643q-4 -32 -4 -49q0 -82 48 -130t142 -48q47 0 92 9.5t75.5 22.5t54 26t35.5 22l11 10l95 610l-111 8l12 162h348l-120 -776v-17q0 -69 39 -69l92 4l-8 -152q-121 -28 -238 -28q-59 0 -86.5 22.5t-28.5 75.5h-8q-5 -5 -14 -13t-41.5 -28 t-70.5 -35.5t-100.5 -28t-131.5 -12.5q-153 0 -234.5 76t-81.5 215q0 40 6 80l78 516zM432 1331l299 199h121l235 -199l-86 -127l-231 178l-287 -178z" />
<glyph unicode="&#xfc;" horiz-adv-x="1232" d="M115 862l12 162h348l-102 -643q-4 -32 -4 -49q0 -82 48 -130t142 -48q47 0 92 9.5t75.5 22.5t54 26t35.5 22l11 10l95 610l-111 8l12 162h348l-120 -776v-17q0 -69 39 -69l92 4l-8 -152q-121 -28 -238 -28q-59 0 -86.5 22.5t-28.5 75.5h-8q-5 -5 -14 -13t-41.5 -28 t-70.5 -35.5t-100.5 -28t-131.5 -12.5q-153 0 -234.5 76t-81.5 215q0 40 6 80l78 516zM444 1311q0 50 35 86.5t94 36.5q47 0 75 -25.5t28 -67.5q0 -49 -37 -86.5t-94 -37.5q-44 0 -72.5 26.5t-28.5 67.5zM836 1311q0 50 36 86.5t95 36.5q47 0 73.5 -25.5t26.5 -67.5 q0 -49 -37 -86.5t-94 -37.5q-38 0 -69 21.5t-31 72.5z" />
<glyph unicode="&#xfd;" horiz-adv-x="1095" d="M-76 -496l39 310l148 10l-7 -205q33 -10 64 -10q48 0 86.5 21t63.5 55.5t45 88t31.5 107t21.5 125.5l-234 848l-143 8l12 162h332l201 -805h4q212 319 338 631l-125 16l12 158h338l-8 -104q-52 -161 -195.5 -411t-312.5 -495q-9 -90 -33.5 -172t-66 -153t-96.5 -123 t-128 -81.5t-157 -29.5q-72 0 -129.5 12.5t-78.5 24.5zM645 1182l238 297l211 -23l-299 -285z" />
<glyph unicode="&#xfe;" horiz-adv-x="1243" d="M47 -512l82 512h2l211 1366l-113 8l13 162h350l-94 -600h6q4 5 12 13t37 29t63 37t91 29t120 13q186 0 293 -108t107 -302q0 -179 -68.5 -332.5t-202.5 -250.5t-307 -97q-182 0 -289 90l-90 -569h-223zM387 215q7 -10 19 -21t36.5 -26t66 -25t91.5 -10q103 0 181.5 42.5 t124.5 116t68.5 163t22.5 192.5q0 126 -66 184t-196 58q-51 0 -97 -13.5t-75 -32.5t-51 -38.5t-32 -32.5l-9 -14z" />
<glyph unicode="&#xff;" horiz-adv-x="1095" d="M-76 -496l39 310l148 10l-7 -205q33 -10 64 -10q48 0 86.5 21t63.5 55.5t45 88t31.5 107t21.5 125.5l-234 848l-143 8l12 162h332l201 -805h4q212 319 338 631l-125 16l12 158h338l-8 -104q-52 -161 -195.5 -411t-312.5 -495q-9 -90 -33.5 -172t-66 -153t-96.5 -123 t-128 -81.5t-157 -29.5q-72 0 -129.5 12.5t-78.5 24.5zM457 1311q0 50 35 86.5t94 36.5q47 0 74.5 -25.5t27.5 -67.5q0 -49 -37 -86.5t-94 -37.5q-44 0 -72 26.5t-28 67.5zM848 1311q0 50 36 86.5t95 36.5q47 0 73.5 -25.5t26.5 -67.5q0 -49 -37 -86.5t-94 -37.5 q-38 0 -69 21.5t-31 72.5z" />
<glyph unicode="&#x152;" horiz-adv-x="2209" d="M129 571q0 365 210.5 578t578.5 213q264 0 419 -127l15 96h663l201 10l-2 -10h2l-37 -325h-180l6 149h-446l-54 -336q0 -17 -4 -63l563 2l-24 -170h-567q-1 -10 -11 -39l-57 -373h498l45 168l168 -10l-62 -334h-907l16 109q-197 -142 -461 -142q-183 0 -314 79t-195 214 t-64 311zM369 575q0 -189 94 -306t266 -117q107 0 197.5 41.5t151 108.5t103 153.5t62 176t19.5 177.5q0 179 -95 274t-274 95q-245 0 -384.5 -159t-139.5 -444z" />
<glyph unicode="&#x153;" horiz-adv-x="1875" d="M84 418q0 294 160.5 466.5t453.5 172.5q267 0 381 -172q169 172 414 172q168 0 273.5 -82.5t105.5 -218.5q0 -177 -171.5 -247.5t-572.5 -72.5l-12 -45q6 -125 85 -191.5t198 -66.5q55 0 104 13t80 31.5t54.5 36.5t33.5 31l10 13l113 -80q-5 -9 -14 -23t-45.5 -50.5 t-80.5 -64t-121 -50.5t-165 -23q-131 0 -232.5 44.5t-160.5 131.5q-81 -84 -195 -130t-250 -46q-218 0 -332 120.5t-114 330.5zM311 406q0 -131 61 -206t181 -75q135 0 223.5 78t122.5 225q0 52 10.5 110t10.5 89q0 129 -61 199.5t-183 70.5q-179 0 -272 -125t-93 -366z M1147 573q295 0 410.5 37t115.5 135q0 69 -52.5 110.5t-152.5 41.5q-114 0 -197 -65.5t-122 -188.5v-20q0 -34 -2 -50z" />
<glyph unicode="&#x178;" horiz-adv-x="1316" d="M70 1180l10 151h547l-19 -151l-92 -6l213 -441l344 436l-82 5l25 157h500l-25 -162l-186 -6l-496 -624l-57 -369l155 -8l-24 -162h-539l12 162l162 8l55 365l-315 639zM571 1587q0 50 35 86.5t94 36.5q47 0 75 -25.5t28 -66.5q0 -49 -37.5 -87t-93.5 -38 q-44 0 -72.5 26.5t-28.5 67.5zM963 1587q0 50 36 86.5t95 36.5q47 0 73.5 -25t26.5 -67q0 -49 -37.5 -87t-93.5 -38q-38 0 -69 21.5t-31 72.5z" />
<glyph unicode="&#x2c6;" horiz-adv-x="802" d="M215 1331l299 199h121l235 -199l-86 -127l-231 178l-287 -178z" />
<glyph unicode="&#x2dc;" horiz-adv-x="952" d="M254 1366q2 4 7 11.5t24 26.5t42 33t63 26t85 12q54 0 106 -16.5t86.5 -37t79 -37t84.5 -16.5t76 10t52 20l16 11l10 -113q-1 -4 -4.5 -10t-18 -21.5t-33.5 -27.5t-55.5 -21.5t-80.5 -9.5q-49 0 -99.5 16t-86 34.5t-82.5 34.5t-89 16t-85 -16.5t-65 -32.5l-22 -17z" />
<glyph unicode="&#x2000;" horiz-adv-x="961" />
<glyph unicode="&#x2001;" horiz-adv-x="1923" />
<glyph unicode="&#x2002;" horiz-adv-x="961" />
<glyph unicode="&#x2003;" horiz-adv-x="1923" />
<glyph unicode="&#x2004;" horiz-adv-x="641" />
<glyph unicode="&#x2005;" horiz-adv-x="480" />
<glyph unicode="&#x2006;" horiz-adv-x="320" />
<glyph unicode="&#x2007;" horiz-adv-x="320" />
<glyph unicode="&#x2008;" horiz-adv-x="240" />
<glyph unicode="&#x2009;" horiz-adv-x="384" />
<glyph unicode="&#x200a;" horiz-adv-x="106" />
<glyph unicode="&#x2010;" horiz-adv-x="722" d="M86 483l14 166h590l-24 -166h-580z" />
<glyph unicode="&#x2011;" horiz-adv-x="722" d="M86 483l14 166h590l-24 -166h-580z" />
<glyph unicode="&#x2012;" horiz-adv-x="722" d="M86 483l14 166h590l-24 -166h-580z" />
<glyph unicode="&#x2013;" horiz-adv-x="1146" d="M86 483l12 166h1016l-22 -166h-1006z" />
<glyph unicode="&#x2014;" horiz-adv-x="1511" d="M86 483l12 166h1381l-25 -166h-1368z" />
<glyph unicode="&#x2018;" horiz-adv-x="356" d="M152 1085q0 109 88 251t206 216l68 -69q-85 -60 -141.5 -145.5t-65.5 -161.5q40 -3 65 -28t25 -63q0 -49 -38 -86.5t-95 -37.5q-45 0 -78.5 28t-33.5 96z" />
<glyph unicode="&#x2019;" horiz-adv-x="356" d="M92 1024q84 58 140 143.5t65 161.5q-50 4 -69 32t-19 60q0 45 34.5 83t100.5 38q49 0 78 -26l14 -23q17 -28 17 -76q0 -110 -87.5 -250.5t-205.5 -214.5z" />
<glyph unicode="&#x201a;" horiz-adv-x="356" d="M-111 -270q84 60 140 145t65 160q-38 3 -63 29t-25 61q0 42 34.5 82.5t100.5 40.5q54 0 82.5 -32t28.5 -91q0 -109 -88.5 -250t-206.5 -215z" />
<glyph unicode="&#x201c;" horiz-adv-x="743" d="M152 1085q0 109 88 251t206 216l68 -69q-85 -60 -141.5 -145.5t-65.5 -161.5q40 -3 65 -28t25 -63q0 -49 -38 -86.5t-95 -37.5q-45 0 -78.5 28t-33.5 96zM537 1085q0 109 88 251t206 216l68 -69q-85 -60 -141.5 -145.5t-65.5 -161.5q40 -3 65 -28t25 -63q0 -49 -38 -86.5 t-95 -37.5q-45 0 -78.5 28t-33.5 96z" />
<glyph unicode="&#x201d;" horiz-adv-x="741" d="M92 1024q84 58 140 143.5t65 161.5q-50 4 -69 32t-19 60q0 45 34.5 83t100.5 38q49 0 78 -26l14 -23q17 -28 17 -76q0 -110 -87.5 -250.5t-205.5 -214.5zM477 1024q84 58 140 143.5t65 161.5q-50 4 -69 32t-19 60q0 45 34.5 83t100.5 38q49 0 78 -26l14 -23 q17 -28 17 -76q0 -110 -87.5 -250.5t-205.5 -214.5z" />
<glyph unicode="&#x201e;" horiz-adv-x="741" d="M-111 -270q84 60 140 145t65 160q-38 3 -63 29t-25 61q0 42 34.5 82.5t100.5 40.5q54 0 82.5 -32t28.5 -91q0 -109 -88.5 -250t-206.5 -215zM274 -270q84 60 140 145t65 160q-38 3 -63 29t-25 61q0 42 34.5 82.5t100.5 40.5q48 0 78 -27l2 -2q31 -39 31 -94 q0 -109 -88.5 -250t-206.5 -215z" />
<glyph unicode="&#x2022;" horiz-adv-x="768" d="M186 637q0 105 90 180q76 51 164 51q24 0 48.5 -4.5t51 -16.5t47 -31t33.5 -50t13 -70q0 -88 -68.5 -159.5t-183.5 -71.5q-25 0 -49.5 4.5t-51.5 16.5t-47.5 31t-33.5 50t-13 70z" />
<glyph unicode="&#x2026;" horiz-adv-x="1685" d="M119 84q0 61 46 101t109 40q53 0 86 -29.5t33 -78.5q0 -57 -43.5 -99.5t-111.5 -42.5q-55 0 -87 29.5t-32 79.5zM655 84q0 61 46.5 101t109.5 40q53 0 86 -29.5t33 -78.5q0 -56 -44 -99t-112 -43q-55 0 -87 29.5t-32 79.5zM1192 84q0 61 46.5 101t109.5 40 q53 0 85.5 -29.5t32.5 -78.5q0 -57 -43.5 -99.5t-111.5 -42.5q-55 0 -87 29.5t-32 79.5z" />
<glyph unicode="&#x202f;" horiz-adv-x="384" />
<glyph unicode="&#x2039;" horiz-adv-x="776" d="M207 512l418 362l75 -98l-294 -268l210 -266l-104 -105z" />
<glyph unicode="&#x203a;" horiz-adv-x="774" d="M106 238l295 264l-208 270l104 102l305 -372l-416 -365z" />
<glyph unicode="&#x205f;" horiz-adv-x="480" />
<glyph unicode="&#x20ac;" horiz-adv-x="1335" d="M104 428l9 143h137q3 87 14 152l-114 4l10 141h135q68 231 225 362.5t389 131.5q151 0 279 -92l33 71h127l-37 -311h-160l2 90q-71 76 -221 76q-318 0 -414 -328h586l-21 -147h-594q-10 -78 -10 -150h578l-21 -149h-549q25 -143 121 -216t254 -73q63 0 120.5 14t94.5 34 t64.5 40.5t40.5 34.5l12 14l78 -106q-5 -8 -16 -21.5t-51 -47.5t-88 -59.5t-130 -47t-174 -21.5q-247 0 -389.5 122t-167.5 335z" />
<glyph unicode="&#x2122;" horiz-adv-x="1808" d="M285 1411l18 125h688l-16 -125h-295l-90 -592h-139l90 592h-256zM920 819l159 717h148l129 -578l346 578h137l-90 -717h-131l55 471l-284 -471h-117l-131 514l-94 -514h-127z" />
</font>
</defs>
</svg>
