<?xml version="1.0" standalone="no"?>
<!DOCTYPE svg PUBLIC "-//W3C//DTD SVG 1.1//EN" "http://www.w3.org/Graphics/SVG/1.1/DTD/svg11.dtd" >
<svg xmlns="http://www.w3.org/2000/svg">
<metadata></metadata>
<defs>
<font id="bandera_prolight_italic" horiz-adv-x="1538" >
<font-face units-per-em="2048" ascent="1536" descent="-512" />
<missing-glyph horiz-adv-x="520" />
<glyph unicode="&#xfb01;" horiz-adv-x="1191" d="M-242 -508l33 70q31 -19 107 -19q82 0 158.5 97t105.5 278l164 1038h-129l4 64l135 4l22 143q17 106 43.5 176t74.5 120.5t121.5 73t180.5 22.5q111 0 285 -66l8 47h64l-35 -264h-64l19 154q-168 61 -267 61q-90 0 -149.5 -17t-98.5 -59t-60.5 -101t-37.5 -155l-22 -135 h368l-8 -68h-370l-160 -1038q-18 -115 -57 -204.5t-89 -142t-103 -79.5t-105 -27q-50 0 -84.5 6.5t-43.5 13.5zM864 94q0 30 6 76l123 786l-127 2l4 66h220l-134 -854q0 -5 -1 -15t-1 -14q0 -50 16.5 -66t43.5 -16l104 9l-4 -64q-84 -14 -160 -14q-44 0 -67 22t-23 82z" />
<glyph unicode="&#xfb02;" horiz-adv-x="1193" d="M-242 -508l33 70q31 -19 107 -19q82 0 158.5 97t105.5 278l164 1038h-129l4 64l135 4l22 143q17 106 43.5 176t74.5 120.5t121.5 73t180.5 22.5q123 0 299 -72l8 49h86l-206 -1317h2q-9 -50 -9 -80q0 -49 15.5 -64.5t42.5 -15.5l104 9l-4 -64q-82 -14 -160 -14 q-43 0 -66.5 22.5t-23.5 83.5q0 31 6 74l195 1253q-160 68 -279 68q-90 0 -149.5 -17t-98.5 -59t-60.5 -101t-37.5 -155l-22 -135h368l-8 -68h-370l-160 -1038q-18 -115 -57 -204.5t-89 -142t-103 -79.5t-105 -27q-50 0 -84.5 6.5t-43.5 13.5z" />
<glyph unicode="&#xfb03;" horiz-adv-x="1890" d="M-233 -508l32 70q31 -19 107 -19q82 0 158.5 97t105.5 278l164 1038h-129l4 64l135 4l23 143q17 106 43.5 176t74.5 120.5t121 73t180 22.5q64 0 147.5 -21.5t134.5 -43.5l52 -21l-22 -58q-20 9 -52 21.5t-112.5 33.5t-136.5 21q-90 0 -149.5 -17t-98.5 -59t-60.5 -101 t-37.5 -155l-23 -135h369l-9 -68h-370l-160 -1038q-18 -115 -57 -204.5t-89 -142t-103 -79.5t-105 -27q-50 0 -84.5 6.5t-43.5 13.5zM457 -508l32 70q33 -19 109 -19q82 0 158.5 97t105.5 278l162 1038h-129l4 64l135 4l23 143q17 106 44 176t75.5 120.5t122 73t180.5 22.5 q121 0 282 -66l11 47h63l-37 -264h-61l16 154q-168 61 -266 61q-90 0 -149.5 -17t-98.5 -59t-60 -101.5t-36 -154.5l-23 -135h369l-8 -68h-371l-162 -1038q-14 -92 -42.5 -169t-64 -128.5t-78 -87.5t-84.5 -52t-83 -16q-50 0 -85 6.5t-45 13.5zM1563 94q0 30 6 76l123 786 l-127 2l4 66h219l-133 -854q0 -5 -1 -15t-1 -14q0 -50 16 -66t43 -16l105 9l-5 -64q-83 -14 -159 -14q-44 0 -67 22t-23 82z" />
<glyph unicode="&#xfb04;" horiz-adv-x="1892" d="M-233 -508l32 70q31 -19 107 -19q82 0 158.5 97t105.5 278l164 1038h-129l4 64l135 4l23 143q17 106 43.5 176t74.5 120.5t121 73t180 22.5q73 0 159 -24.5t131.5 -46t82.5 -42.5q98 113 320 113q121 0 297 -72l8 49h86l-211 -1366q0 -5 -1 -16t-1 -15q0 -49 15 -64.5 t42 -15.5l105 9l-2 -64q-84 -14 -162 -14q-43 0 -65.5 22t-22.5 82q0 30 6 76l192 1253q-160 68 -278 68q-90 0 -149.5 -17t-98.5 -59t-60 -101.5t-36 -154.5l-23 -135h369l-8 -68h-371l-162 -1038q-14 -92 -42.5 -169t-64 -128.5t-78 -87.5t-84.5 -52t-83 -16 q-50 0 -85 6.5t-45 13.5l-9 7l32 70q33 -19 109 -19q82 0 158.5 97t105.5 278l162 1038h-129l4 64l135 4l23 143q22 150 67 230q-185 94 -327 94q-90 0 -149.5 -17t-98.5 -59t-60.5 -101t-37.5 -155l-23 -135h369l-9 -68h-370l-160 -1038q-18 -115 -57 -204.5t-89 -142 t-103 -79.5t-105 -27q-50 0 -84.5 6.5t-43.5 13.5z" />
<glyph horiz-adv-x="0" />
<glyph horiz-adv-x="682" />
<glyph unicode=" "  horiz-adv-x="520" />
<glyph unicode="&#x09;" horiz-adv-x="520" />
<glyph unicode="&#xa0;" horiz-adv-x="520" />
<glyph unicode="!" horiz-adv-x="575" d="M174 37q0 25 19 43t49 18q23 0 37 -12.5t14 -32.5q0 -27 -20.5 -45t-47.5 -18q-23 0 -37 12.5t-14 34.5zM254 412l133 927l33 197h90l-184 -1124h-72z" />
<glyph unicode="&#x22;" horiz-adv-x="569" d="M195 1102l65 432h80l-82 -432h-63zM461 1102l65 432h80l-82 -432h-63z" />
<glyph unicode="#" horiz-adv-x="1083" d="M133 483l10 58h217l99 245h-279l10 58h291l113 284l51 -12l-108 -272h229l106 270l50 -12l-101 -258h209l-10 -58h-221l-94 -245h278l-8 -58h-293l-111 -284l-51 12l107 272h-234l-106 -270l-49 12l100 258h-205zM416 541h233l94 245h-229z" />
<glyph unicode="$" horiz-adv-x="964" d="M102 166l27 231l57 4l-20 -184q126 -43 268 -43q91 0 163.5 22.5t115 59.5t64.5 81.5t22 92.5q0 53 -31 91.5t-80.5 62t-109.5 43t-120.5 41.5t-110 49.5t-80.5 75t-31 110.5q0 125 94 197.5t239 77.5l41 256h66l-33 -258q116 -14 217 -99l25 84h47l-33 -252h-55l4 107 q-18 20 -44 39.5t-83 41t-119 21.5q-120 0 -199 -56t-79 -151q0 -53 31 -92.5t81 -63t110 -43t120.5 -40.5t110.5 -48t81 -72.5t31 -107.5q0 -61 -24.5 -117t-73 -103t-131.5 -77.5t-191 -35.5l-35 -213h-65l28 213q-89 2 -163 15.5t-103 26.5z" />
<glyph unicode="%" horiz-adv-x="1810" d="M213 918q0 193 113.5 314.5t298.5 121.5q139 0 217 -84t78 -226q0 -190 -112.5 -310t-295.5 -120q-143 0 -221 82t-78 222zM285 922q0 -114 61 -179t172 -65q148 0 240 99t92 265q0 115 -62 181.5t-174 66.5q-147 0 -238 -100t-91 -268zM469 31l885 1290l67 -10 l-884 -1293zM971 281q0 193 113 314.5t298 121.5q139 0 217 -83.5t78 -225.5q0 -191 -112 -311t-295 -120q-143 0 -221 82t-78 222zM1042 285q0 -114 61.5 -179t172.5 -65q148 0 240 99.5t92 265.5q0 115 -62 181t-174 66q-147 0 -238.5 -100.5t-91.5 -267.5z" />
<glyph unicode="&#x26;" horiz-adv-x="1376" d="M119 313q0 82 31 149t84 111.5t114 72.5t129 42q-80 37 -134 112.5t-54 178.5q0 167 115.5 270t302.5 103q140 0 223 -88l22 71h49l-38 -260h-64l16 125q-13 18 -33 34.5t-63.5 33t-95.5 16.5q-161 0 -255.5 -85.5t-94.5 -225.5q0 -116 74.5 -188t166.5 -74h326l70 313 h53l-49 -313h329l-8 -62h-331l-62 -401q-6 -41 -6 -70q0 -73 33.5 -103t101.5 -30q40 0 82 3.5t64 7.5l22 3l-10 -59q-68 -23 -189 -23q-88 0 -134 34.5t-52 117.5q-119 -152 -350 -152q-196 0 -290.5 95t-94.5 241zM209 328q0 -57 17.5 -106t54 -89.5t100 -64t147.5 -23.5 q65 0 121 16.5t90.5 39t62 52t39.5 49.5t19 38v4q29 210 66 405h-344q-67 -2 -130.5 -22t-119 -57t-89.5 -100t-34 -142z" />
<glyph unicode="'" horiz-adv-x="305" d="M195 1102l65 432h80l-82 -432h-63z" />
<glyph unicode="(" horiz-adv-x="657" d="M217 268q0 149 22.5 294.5t56.5 257.5t80.5 218t87.5 177.5t85 134t66 89.5t37 43l3 3l62 -27q-9 -10 -23.5 -28t-57.5 -79.5t-82.5 -130t-87 -176t-82 -219.5t-58 -259t-23.5 -296q0 -109 14 -211.5t33.5 -171t39.5 -120.5t34 -77l14 -24l-67 -28q-6 9 -16.5 25.5 t-37 75.5t-47 126.5t-37 176.5t-16.5 226z" />
<glyph unicode=")" horiz-adv-x="655" d="M-8 -334q9 10 23.5 28t57.5 81t82.5 131.5t87 175.5t82 218t58 255.5t23.5 290.5q0 111 -14.5 214.5t-35 172.5t-41 122.5t-35.5 78.5l-14 24l74 27q6 -9 16.5 -25.5t36.5 -75.5t46 -126t36.5 -175.5t16.5 -224.5q0 -157 -24.5 -309.5t-61.5 -268t-86.5 -224.5t-92 -179 t-87 -130.5t-62 -80.5t-25.5 -28z" />
<glyph unicode="*" horiz-adv-x="907" d="M168 1108l37 76l327 -137l39 380h80l-80 -380l375 137l12 -76l-376 -100l190 -295l-72 -47l-157 315l-252 -315l-60 47l283 295z" />
<glyph unicode="+" horiz-adv-x="897" d="M109 539l6 67h331l54 340h71l-53 -340h326l-10 -67h-326l-53 -342h-70l51 342h-327z" />
<glyph unicode="," horiz-adv-x="481" d="M-18 -297q80 63 133.5 164t56.5 170q-6 0 -13.5 2.5t-15.5 12t-8 24.5q0 22 17.5 39.5t42.5 17.5q51 0 51 -65q0 -84 -66.5 -208t-159.5 -186z" />
<glyph unicode="-" horiz-adv-x="653" d="M109 539l6 67h485l-10 -67h-481z" />
<glyph unicode="." horiz-adv-x="499" d="M133 37q0 25 19 43t49 18q23 0 37 -12.5t14 -32.5q0 -27 -20.5 -45t-47.5 -18q-23 0 -37 12.5t-14 34.5z" />
<glyph unicode="/" horiz-adv-x="933" d="M-145 -512l1216 2048h82l-1216 -2048h-82z" />
<glyph unicode="0" horiz-adv-x="1304" d="M176 520q0 250 71.5 436.5t213 291t338.5 104.5q206 0 312 -122t106 -353q0 -64 -8 -137t-28.5 -161.5t-52 -171.5t-82 -162.5t-113.5 -138t-152 -94t-193 -35.5q-201 0 -306.5 146t-105.5 397zM266 510q0 -218 85.5 -341.5t244.5 -123.5q87 0 162 33.5t127.5 88t95 128 t68.5 151t43.5 159t24.5 149t7 125.5q0 201 -85.5 303t-250.5 102q-241 0 -381.5 -200t-140.5 -574z" />
<glyph unicode="1" horiz-adv-x="835" d="M223 0l6 66l191 2l184 1183l-307 -129l-16 64l348 145h73l-196 -1268l123 -2l-13 -61h-393z" />
<glyph unicode="2" horiz-adv-x="1116" d="M53 0l13 72q4 2 49.5 33.5t125.5 92t171 135.5t185.5 168t170 185.5t124 192.5t48.5 184q0 107 -65 162t-211 55q-60 0 -115.5 -13t-96 -34t-64 -37t-42.5 -33l-20 -102h-64l45 274h53l-4 -96q155 113 342 113q173 0 255.5 -73.5t82.5 -207.5q0 -79 -37 -168.5 t-94.5 -170.5t-139.5 -167.5t-159 -155t-167 -139t-149 -113t-120 -83.5h698l39 186l64 -4l-43 -256h-875z" />
<glyph unicode="3" horiz-adv-x="1103" d="M82 37l27 219l61 4l-14 -174q89 -39 258 -39q216 0 346.5 113.5t130.5 285.5q0 114 -81.5 181t-229.5 67q-40 0 -76 -8.5t-51.5 -16t-22.5 -12.5l-33 43l551 557h-586l-36 -194h-62l43 272l70 -4h686l-8 -51l-533 -532q45 10 90 10q171 0 269 -82.5t98 -222.5 q0 -207 -157.5 -341.5t-411.5 -134.5q-110 0 -192 15t-109 30z" />
<glyph unicode="4" horiz-adv-x="1107" d="M72 352l2 54q123 172 266.5 421.5t269.5 513.5l80 -10q-242 -510 -520 -913h594l100 631l23 92h74l-113 -723h178l-4 -62l-184 -4l-45 -293l125 -2l-9 -57h-340l4 61l136 2l45 289h-682z" />
<glyph unicode="5" horiz-adv-x="1071" d="M82 37l29 219l59 4l-16 -174q85 -39 245 -39q106 0 197 35t151.5 93t95 133.5t34.5 156.5q0 121 -91.5 197.5t-246.5 76.5q-60 0 -115.5 -12.5t-81 -23.5t-29.5 -15l-45 4l160 639h547l20 78l62 -4l-25 -150l-76 2h-473l-123 -485q109 31 193 31q192 0 302 -89.5 t110 -238.5q0 -103 -41.5 -194.5t-115.5 -158.5t-181 -106t-232 -39q-68 0 -125.5 6t-90.5 15t-56.5 18t-32.5 15z" />
<glyph unicode="6" horiz-adv-x="1206" d="M156 416q0 31 2.5 59.5t6.5 51.5t7.5 38.5t8 31.5t5.5 19q68 363 220.5 549.5t367.5 186.5q141 0 232 -101l22 84h53l-34 -260h-64l10 113q-77 96 -215 96q-185 0 -315.5 -156.5t-188.5 -459.5q170 161 416 161q195 0 298.5 -86t103.5 -229q0 -62 -18 -131t-60 -142 t-101.5 -131t-150.5 -95.5t-199 -37.5q-198 0 -302.5 120t-104.5 319zM242 385q0 -158 83 -251t248 -93q88 0 162 33.5t122 85t81.5 115t48 122t14.5 107.5q0 117 -82.5 191.5t-246.5 74.5q-81 0 -153.5 -21.5t-121 -55t-77.5 -61t-46 -52.5q-32 -96 -32 -195z" />
<glyph unicode="7" horiz-adv-x="954" d="M199 1059l47 276l69 -4h734l-9 -71q-208 -275 -410 -619t-311 -641h-100q108 291 304.5 622.5t414.5 632.5h-639l-39 -196h-61z" />
<glyph unicode="8" horiz-adv-x="1144" d="M115 279q0 76 25.5 140.5t64 107t92 77t100.5 53t99 31.5q-44 13 -82 33.5t-76.5 54.5t-61 88t-22.5 121q0 175 124.5 271t340.5 96q176 0 272 -71t96 -204q0 -74 -24.5 -136t-60.5 -103t-86.5 -73.5t-94.5 -49.5t-92 -29q38 -9 72.5 -22t74 -38t68 -56.5t47.5 -80.5 t19 -108q0 -199 -135.5 -301.5t-366.5 -102.5q-186 0 -289.5 75.5t-103.5 226.5zM209 287q0 -124 81 -187t226 -63q183 0 291 89t108 255q0 63 -25.5 113t-60.5 78t-82 47.5t-78 26t-61 9.5q-22 -2 -47.5 -6.5t-66 -16.5t-77.5 -29t-76 -46t-67 -65t-46.5 -89t-18.5 -116z M342 985q0 -65 25.5 -116t60 -78.5t79 -46t73.5 -24t53 -7.5q29 4 59 11.5t75 23t82.5 42.5t72.5 64t55 94t20 125q0 107 -72.5 163t-211.5 56q-180 0 -275.5 -79.5t-95.5 -227.5z" />
<glyph unicode="9" horiz-adv-x="1206" d="M168 16l33 240l61 4l-20 -188q101 -27 239 -27q192 0 335 159t196 445q-23 -27 -53.5 -53.5t-81.5 -58t-125 -51t-158 -19.5q-97 0 -174 31.5t-123.5 85t-71 120.5t-24.5 142q0 91 36 180t102 162t171.5 118.5t232.5 45.5q199 0 297.5 -102t98.5 -292q0 -38 -5.5 -85 t-12 -80t-14 -66t-7.5 -35q-62 -343 -228 -529t-397 -186q-93 0 -169.5 9.5t-107.5 19.5zM289 850q0 -60 18.5 -115.5t55.5 -103t101 -76.5t146 -29q70 0 134 16.5t106.5 39t79 52t54 48.5t28.5 35q12 34 26.5 110.5t14.5 143.5q0 152 -78 234.5t-240 82.5q-107 0 -195 -41 t-141 -106t-81.5 -140.5t-28.5 -150.5z" />
<glyph unicode=":" horiz-adv-x="505" d="M133 37q0 25 19 43t49 18q23 0 37 -12.5t14 -32.5q0 -27 -20.5 -45t-47.5 -18q-23 0 -37 12.5t-14 34.5zM258 844q0 25 19 43t49 18q23 0 37 -12.5t14 -32.5q0 -27 -20.5 -45t-47.5 -18q-23 0 -37 12.5t-14 34.5z" />
<glyph unicode=";" horiz-adv-x="499" d="M-8 -297q80 63 133.5 164t56.5 170q-6 0 -13.5 2.5t-15.5 12t-8 24.5q0 22 17.5 39.5t42.5 17.5q51 0 51 -65q0 -85 -66 -208.5t-159 -185.5zM258 844q0 25 19 43t49 18q23 0 37 -12.5t14 -32.5q0 -27 -20.5 -45t-47.5 -18q-23 0 -37 12.5t-14 34.5z" />
<glyph unicode="&#x3c;" horiz-adv-x="862" d="M203 653l628 379l35 -43l-571 -336l467 -338l-45 -41z" />
<glyph unicode="=" horiz-adv-x="1036" d="M80 346l6 68h866l-8 -68h-864zM139 729l6 68h867l-8 -68h-865z" />
<glyph unicode="&#x3e;" horiz-adv-x="862" d="M74 315l571 338l-467 336l43 43l516 -379l-631 -379z" />
<glyph unicode="?" horiz-adv-x="925" d="M188 37q0 25 19 43t49 18q23 0 37 -12.5t14 -32.5q0 -27 -20 -45t-47 -18q-23 0 -37.5 12.5t-14.5 34.5zM233 1270l48 270h51l-4 -82q132 101 282 101q86 0 152 -23t105 -62.5t58 -88.5t19 -105q0 -77 -21 -138t-57 -101.5t-82.5 -74t-97.5 -61.5t-102 -56.5t-97.5 -66 t-82.5 -84t-57 -116t-21 -156.5v-20l-54 -5q0 7 -1 21.5t-1 21.5q0 113 32.5 198t84 135.5t114 89.5t125 73t114 73t84 102t32.5 149q0 44 -14.5 82t-45.5 70.5t-87.5 51.5t-133.5 19q-63 0 -119.5 -19.5t-84.5 -38.5t-49 -40l-25 -119h-64z" />
<glyph unicode="@" horiz-adv-x="1931" d="M135 262q0 321 115.5 551t345.5 353.5t557 123.5t506.5 -157t179.5 -437q0 -149 -29 -272t-77 -204.5t-111.5 -137.5t-129.5 -80.5t-134 -24.5q-81 0 -122.5 25.5t-41.5 93.5v13q-112 -132 -295 -132q-153 0 -240.5 91t-87.5 258q0 229 130.5 368.5t349.5 139.5 q166 0 241 -99l33 76h41l-104 -661q-2 -10 -2 -27q0 -92 110 -92q51 0 102.5 19.5t106 68.5t96 121t68 188t26.5 260q0 257 -160.5 399t-457.5 142q-447 0 -691.5 -246t-244.5 -709q0 -310 182 -485.5t496 -175.5q110 0 210 21.5t164 51.5t112 60.5t69 51.5l22 22l19 -56 q-7 -9 -21 -23.5t-67 -52t-116.5 -66t-171 -52t-228.5 -23.5q-351 0 -550.5 191.5t-199.5 523.5zM643 328q0 -139 74 -218t203 -79q53 0 100.5 15t77.5 35t55 45.5t36 42.5t17 30l72 452q-3 13 -9 26t-22.5 32.5t-39.5 34t-64 25.5t-92 11q-193 0 -300.5 -122t-107.5 -330z " />
<glyph unicode="A" horiz-adv-x="1386" d="M-92 0l6 66l168 2l698 1263h117l305 -1268l166 -2l-8 -61h-408l9 53l151 4l-96 381h-641l-213 -379l153 -4l-8 -55h-399zM408 498h593l-178 759z" />
<glyph unicode="B" horiz-adv-x="1251" d="M37 0l6 66l168 2l186 1200l-170 2l6 61h525q190 0 288.5 -65t98.5 -191q0 -71 -22.5 -133t-61.5 -107t-81 -76.5t-91 -53.5q114 -22 174.5 -88.5t60.5 -172.5q0 -78 -18.5 -143t-61 -121.5t-107.5 -96t-163 -61.5t-223 -22h-514zM291 68h264q256 0 369.5 97t113.5 275 q0 222 -297 222h-358zM393 723h352q32 0 71 11.5t82 38t78 64t58 96t23 128.5q0 205 -314 205h-266z" />
<glyph unicode="C" horiz-adv-x="1345" d="M162 565q0 176 57.5 325t157.5 249.5t235 156.5t289 56q183 0 336 -117l29 100h55l-59 -424h-70l33 260q-141 107 -316 107q-136 0 -254.5 -48t-208 -136.5t-141 -225.5t-51.5 -305q0 -237 142 -374.5t368 -137.5q85 0 163.5 21.5t130 52.5t90.5 62.5t57 52.5l18 22 l39 -47q-7 -10 -20 -26t-60 -57t-101 -72.5t-143 -57t-186 -25.5q-264 0 -427 159.5t-163 428.5z" />
<glyph unicode="D" horiz-adv-x="1499" d="M37 0l6 66l168 2l186 1200l-170 2l6 61h598q283 0 438.5 -134.5t155.5 -393.5q0 -368 -214 -585.5t-574 -217.5h-600zM301 74h346q153 0 280 49t217 141t139.5 228.5t49.5 306.5q0 226 -134 342t-374 116h-340z" />
<glyph unicode="E" horiz-adv-x="1191" d="M37 0l6 66l168 2l186 1200l-170 2l6 61h869l80 4l-37 -264h-72l21 191h-609l-86 -555h639l-10 -68h-639l-88 -569h676l43 211l65 -5l-47 -276h-1001z" />
<glyph unicode="F" horiz-adv-x="1081" d="M37 0l6 66l168 2l186 1200l-170 2l6 61h889l80 4l-37 -264h-71l20 191h-629l-86 -547h600l-10 -70h-600l-88 -582l205 -2l-12 -61h-457z" />
<glyph unicode="G" horiz-adv-x="1466" d="M160 553q0 372 202.5 585.5t550.5 213.5q188 0 326 -111l27 94h55l-49 -362h-68l23 201q-22 20 -51.5 39.5t-102 42t-155.5 22.5q-317 0 -490.5 -186t-173.5 -529q0 -235 127 -373.5t340 -138.5q90 0 166 20.5t121 48t81 64.5t49.5 59t22.5 42l41 268h-356l8 61h436 l-94 -614h-55l10 168q-147 -191 -453 -191q-247 0 -392.5 157.5t-145.5 418.5z" />
<glyph unicode="H" horiz-adv-x="1515" d="M37 0l6 66l168 2l186 1200l-170 2l6 61h431l-11 -65l-166 -2l-90 -574h809l90 574l-168 2l5 65h432l-13 -65l-166 -2l-184 -1201l164 -2l-8 -61h-418l4 66l168 2l84 555h-809l-86 -555l164 -2l-8 -66h-420z" />
<glyph unicode="I" horiz-adv-x="614" d="M37 0l6 66l168 2l186 1200l-170 2l6 61h431l-11 -65l-166 -2l-186 -1201l164 -2l-8 -61h-420z" />
<glyph unicode="J" horiz-adv-x="872" d="M2 20l29 244l65 4l-22 -194q65 -27 178 -27q45 0 85 12.5t83 43.5t75.5 96.5t47.5 160.5l141 908l-195 2l7 61h430l-8 -65l-144 -2l-141 -904q-14 -92 -43.5 -162t-65.5 -111t-83.5 -66.5t-92 -34.5t-96.5 -9q-78 0 -140.5 10.5t-85.5 21.5z" />
<glyph unicode="K" horiz-adv-x="1400" d="M37 0l6 66l168 2l186 1200l-170 2l6 61h422l-8 -57l-160 -4l-112 -721l243 170l599 553l-130 4l9 55h411l-10 -65l-199 -4l-612 -570l477 -624l197 -2l-8 -66h-248l-64 70l-430 563l-250 -174l-59 -391l164 -2l-8 -66h-420z" />
<glyph unicode="L" horiz-adv-x="1120" d="M37 0l6 66l168 2l186 1200l-170 2l6 61h431l-11 -65l-166 -2l-184 -1194h666l43 215l67 -4l-49 -281h-993z" />
<glyph unicode="M" horiz-adv-x="1978" d="M37 0l6 66l168 2l186 1200l-170 2l6 61h291l418 -1239l805 1239h281l-9 -65l-168 -2l-184 -1196l166 -2l-10 -66h-410l6 57l160 2l178 1151l-786 -1210h-86l-412 1210l-180 -1151l158 -4l-9 -55h-405z" />
<glyph unicode="N" horiz-adv-x="1562" d="M37 0l6 66l168 2l186 1200l-170 2l6 61h269l680 -1227v19l180 1143l-170 2l4 63h426l-10 -65l-166 -2l-199 -1280h-94l-686 1224h-2l4 -30l-174 -1112l164 -3l-8 -63h-414z" />
<glyph unicode="O" d="M162 561q0 367 205 579t548 212q261 0 406 -135t145 -383q0 -123 -29.5 -243.5t-91.5 -231.5t-150.5 -196t-215.5 -135.5t-277 -50.5q-254 0 -397 158.5t-143 425.5zM254 563q0 -234 122 -373t339 -139q124 0 231.5 43t184.5 117.5t132 173t82 209.5t27 227 q0 220 -122.5 338.5t-342.5 118.5q-297 0 -475 -190.5t-178 -524.5z" />
<glyph unicode="P" horiz-adv-x="1128" d="M37 0l6 66l168 2l186 1200l-170 2l6 61h478q413 0 413 -319q0 -107 -32 -195.5t-85 -147.5t-124 -99t-147 -58t-156 -18h-220l-67 -435l190 -2l-8 -57h-438zM371 559h202q70 0 134.5 15t124 49t103.5 83.5t70.5 124.5t26.5 166q0 136 -90 201.5t-256 65.5h-207z" />
<glyph unicode="Q" d="M162 561q0 367 205 579t548 212q260 0 405.5 -142t145.5 -401q0 -344 -190.5 -573t-501.5 -254q67 -73 151.5 -116.5t176.5 -43.5q56 0 115 18l-5 -69q-65 -21 -127 -21q-119 0 -228 61.5t-175 165.5q-246 7 -383 165t-137 419zM254 563q0 -234 122 -373t339 -139 q144 0 267 56t209 154.5t134.5 238t48.5 301.5q0 228 -123 352.5t-344 124.5q-297 0 -475 -190.5t-178 -524.5z" />
<glyph unicode="R" horiz-adv-x="1228" d="M37 0l6 66l168 6l186 1196l-170 2l6 61h478q200 0 307.5 -79t107.5 -238q0 -207 -103.5 -333.5t-268.5 -164.5l288 -448l189 -2l-10 -66h-236l-55 70l-271 432q-16 -2 -45 -2h-252l-69 -441l158 -2l-9 -57h-405zM373 567h233q91 0 167 25.5t134.5 77t91.5 136t33 195.5 q0 263 -346 263h-205z" />
<glyph unicode="S" horiz-adv-x="1175" d="M106 57l35 248l64 4l-19 -203q129 -61 342 -61q202 0 316 94.5t114 233.5q0 64 -38 112.5t-98.5 78.5t-133.5 55.5t-146 54.5t-133.5 65t-98.5 96t-38 140q0 175 127 276t349 101q172 0 292 -115l31 98h57l-36 -268h-72l8 109q-13 15 -32.5 30.5t-52.5 34.5t-82 31 t-105 12q-187 0 -290.5 -79.5t-103.5 -219.5q0 -68 38 -119t98.5 -82t134 -57.5t146.5 -54t133.5 -62t98.5 -91t38 -132.5q0 -180 -139.5 -295t-381.5 -115q-81 0 -154.5 8t-120.5 20t-82 24t-50 20z" />
<glyph unicode="T" horiz-adv-x="1026" d="M102 1063l43 272l80 -4h865l79 4l-39 -272h-67l18 199h-393l-182 -1194l166 -2l-10 -66h-420l6 66l168 2l182 1194h-387l-41 -199h-68z" />
<glyph unicode="U" horiz-adv-x="1488" d="M199 1270l4 61h432l-10 -61l-168 -2l-127 -824q-6 -34 -6 -67q0 -142 94.5 -232t273.5 -90q201 0 329.5 110.5t154.5 278.5l127 822l-168 2l6 63h426l-8 -61l-170 -4l-129 -838q-14 -93 -58.5 -173.5t-115.5 -143t-176 -98.5t-230 -36q-219 0 -334 105t-115 270 q0 32 7 76l129 840z" />
<glyph unicode="V" horiz-adv-x="1327" d="M78 1270l6 61h410l-9 -61l-149 -2l280 -1202l654 1200l-152 2l4 63h408l-8 -61l-162 -2l-696 -1268h-117l-303 1268z" />
<glyph unicode="W" horiz-adv-x="2048" d="M78 1270l6 61h410l-9 -61l-149 -2l184 -1168l606 1231h95l227 -1229l545 1164l-156 2l4 63h410l-8 -61l-160 -2l-602 -1268h-97l-225 1219l-610 -1219h-94l-213 1268z" />
<glyph unicode="X" horiz-adv-x="1376" d="M-63 0l6 66l190 2l541 600l-344 600l-185 2l5 61h419l-8 -61l-129 -2l309 -539l476 537l-130 2l7 63h417l-10 -65l-190 -4l-527 -592l357 -602l192 -2l-8 -66h-420l6 61h127l-317 545l-488 -543h127l-8 -63h-415z" />
<glyph unicode="Y" horiz-adv-x="1261" d="M53 1270l6 61h424l-6 -61l-139 -2l338 -623l528 621l-135 2l8 63h412l-12 -65l-183 -4l-585 -691l-80 -503l166 -2l-11 -66h-419l6 66l168 2l79 503l-380 697z" />
<glyph unicode="Z" horiz-adv-x="1193" d="M29 0l10 61l1079 1201h-811l-35 -191h-71l43 264l78 -4h919l-8 -63l-1081 -1198h825l43 211l65 -5l-47 -276h-1009z" />
<glyph unicode="[" horiz-adv-x="720" d="M131 -139l240 1564h477l-8 -63h-402l-223 -1438h401l-10 -63h-475z" />
<glyph unicode="\" horiz-adv-x="933" d="M133 1536h82l584 -2048h-82z" />
<glyph unicode="]" horiz-adv-x="720" d="M-51 -139l10 63h399l222 1438h-398l6 61h480l-242 -1562h-477z" />
<glyph unicode="^" horiz-adv-x="768" d="M186 1053l351 340l245 -340l-45 -35l-213 299l-309 -299z" />
<glyph unicode="_" horiz-adv-x="1400" d="M-16 -281l6 68h1233l-13 -68h-1226z" />
<glyph unicode="`" horiz-adv-x="444" d="M178 1456l86 8l148 -286l-66 -4z" />
<glyph unicode="a" horiz-adv-x="1198" d="M104 408q0 139 36.5 254.5t107.5 202t183 134.5t255 48q70 0 128.5 -14t93.5 -35.5t51.5 -35.5t25.5 -26l27 88h69l-125 -805q-6 -49 -6 -78q0 -50 14.5 -66t41.5 -16l104 9l-4 -64q-82 -14 -160 -14q-43 0 -64.5 20t-21.5 76q0 34 4 57q-10 -14 -24.5 -29.5t-48.5 -41.5 t-72.5 -45.5t-98.5 -34.5t-126 -15q-179 0 -284.5 115.5t-105.5 315.5zM193 406q0 -171 89 -266t246 -95q71 0 134.5 21t106.5 54.5t64.5 55t36.5 41.5l103 653q-8 11 -22.5 24.5t-46.5 35.5t-86.5 36.5t-119.5 14.5q-130 0 -228 -41.5t-158 -118.5t-89.5 -180.5 t-29.5 -234.5z" />
<glyph unicode="b" horiz-adv-x="1177" d="M139 0l228 1468l-127 2l4 66h221l-103 -657q4 7 13 18t41.5 40t71 51.5t103 40.5t136.5 18q185 0 291 -98.5t106 -291.5q0 -134 -38 -255t-109 -216.5t-184.5 -152t-253.5 -56.5q-69 0 -126.5 13.5t-92.5 34.5t-52.5 36t-29.5 29l-29 -90h-70zM250 152q10 -13 24 -25.5 t46.5 -34.5t85 -35.5t116.5 -13.5q104 0 190 33.5t145 91.5t99.5 136.5t59 166.5t18.5 184q0 166 -89.5 246t-252.5 80q-61 0 -117 -16t-92.5 -37t-67 -47.5t-43.5 -42.5t-20 -27z" />
<glyph unicode="c" horiz-adv-x="968" d="M106 426q0 302 130 461.5t393 159.5q172 0 276 -109l25 90h57l-43 -305h-70l17 147q-8 15 -23 31t-43 36.5t-75.5 33t-106.5 12.5q-230 0 -339 -136t-109 -415q0 -183 105 -286t265 -103q59 0 110.5 12.5t83 30t54 34.5t31.5 30l10 12l47 -29q-4 -6 -11.5 -16.5 t-36.5 -37.5t-65.5 -47.5t-100 -37.5t-136.5 -17q-195 0 -320 120.5t-125 328.5z" />
<glyph unicode="d" horiz-adv-x="1181" d="M104 408q0 139 36 254.5t106.5 202t182 134.5t253.5 48q63 0 117 -11.5t86.5 -28t56 -32.5t32.5 -27l9 -12l82 532l-129 2l6 66h219l-205 -1317q-6 -49 -6 -78q0 -50 14.5 -66t41.5 -16l104 9l-4 -64q-82 -14 -160 -14q-43 0 -65.5 20.5t-22.5 77.5q0 11 4 51 q-15 -19 -38 -40.5t-67.5 -52t-113.5 -50t-149 -19.5q-179 0 -284.5 115.5t-105.5 315.5zM193 406q0 -171 89 -266t246 -95q58 0 113 15t91.5 35.5t68 46.5t46 42t23.5 29l103 659q-9 12 -24.5 25.5t-48.5 35t-86 35t-116 13.5q-130 0 -228 -41.5t-158 -118.5t-89.5 -180.5 t-29.5 -234.5z" />
<glyph unicode="e" horiz-adv-x="1036" d="M106 412q0 127 39.5 242.5t110.5 202.5t177 138.5t231 51.5q158 0 250 -73.5t92 -197.5q0 -60 -20 -104.5t-64.5 -77t-107 -54t-157.5 -34.5t-205 -18t-259 -5q-3 -37 -3 -71q0 -173 98.5 -271t256.5 -98q66 0 124.5 15.5t95.5 37.5t64 44t39 38l11 15l45 -33 q-4 -7 -13 -19.5t-42.5 -44t-74 -55.5t-110.5 -44t-149 -20q-193 0 -311 115t-118 320zM201 541q116 0 204.5 3t167 9.5t134 18.5t100 29.5t70.5 42t39.5 56t13.5 72.5q0 95 -73 153t-204 58q-181 0 -300.5 -123t-151.5 -319z" />
<glyph unicode="f" horiz-adv-x="688" d="M94 -512l232 1468h-129l4 64l135 4q0 124 18 218t48 153.5t75 97t94 52t109 14.5q88 0 178 -74l16 55h54l-33 -256h-64l13 135q-22 26 -62 49t-90 23q-48 0 -87 -12t-74.5 -44t-59.5 -83.5t-38 -134.5t-15 -193h370l-10 -68h-370l-228 -1468h-86z" />
<glyph unicode="g" horiz-adv-x="1177" d="M94 -449l37 232l59 4l-24 -195q110 -63 266 -63q192 0 304 135.5t112 396.5v13v10q-13 -11 -34.5 -25t-63 -34.5t-104 -34t-132.5 -13.5q-201 0 -303 121.5t-102 329.5q0 295 152.5 457t397.5 162q66 0 121 -15.5t87.5 -35.5t58 -47t34.5 -41.5t15 -28.5l31 145h75 l-145 -946v-10q0 -291 -141 -447t-369 -156q-67 0 -125.5 9t-94.5 21.5t-63 25t-38 21.5zM199 432q0 -184 86 -286.5t266 -102.5q181 0 307 102l105 668q-4 11 -11 24.5t-30.5 41.5t-53 49.5t-81 38t-113.5 16.5q-105 0 -191 -33.5t-150 -99.5t-99 -172.5t-35 -245.5z" />
<glyph unicode="h" horiz-adv-x="1179" d="M139 0l228 1468l-125 2l2 66h219l-96 -616q145 127 376 127q151 0 233.5 -58t82.5 -180q0 -29 -6 -64l-88 -565q-2 -14 -2 -37q0 -50 15.5 -67t41.5 -17q17 0 42.5 2t42.5 5l17 2l-2 -64q-83 -14 -159 -14q-44 0 -67.5 23t-23.5 85q0 21 7 72l90 561q4 36 4 49 q0 193 -266 193q-61 0 -119.5 -12t-96 -28t-70.5 -35.5t-45 -29.5t-18 -16l-131 -852h-86z" />
<glyph unicode="i" horiz-adv-x="489" d="M164 94q0 30 6 76l123 786l-127 2l4 66h219l-133 -854q0 -5 -1 -15t-1 -14q0 -50 16 -66t43 -16l105 9l-4 -64q-84 -14 -160 -14q-44 0 -67 22t-23 82zM328 1300q0 28 17 48t50 20q29 0 41.5 -14t12.5 -33q0 -25 -16.5 -45.5t-53.5 -20.5q-51 0 -51 45z" />
<glyph unicode="j" horiz-adv-x="499" d="M-254 -508l29 70q32 -19 106 -19q82 0 159.5 97.5t106.5 277.5l160 1038l-123 2l6 66h213l-170 -1106q-14 -92 -42.5 -169t-64 -128.5t-78 -87.5t-84.5 -52t-83 -16q-51 0 -85 6.5t-42 13.5zM344 1300q0 27 17.5 47.5t50.5 20.5q29 0 41 -14t12 -33q0 -25 -16.5 -45.5 t-53.5 -20.5q-51 0 -51 45z" />
<glyph unicode="k" horiz-adv-x="1071" d="M139 0l228 1468l-125 2l2 66h219l-107 -688q186 201 377 201q134 0 209.5 -65t75.5 -183q0 -79 -33 -144t-92 -111t-124 -77.5t-144 -54.5q98 -175 163.5 -265t108.5 -90l107 9l-5 -64q-71 -14 -147 -14q-30 0 -65.5 28.5t-78 89t-81 124t-92.5 161.5q-118 -27 -254 -35 l-56 -358h-86zM289 416q41 2 84 6.5t109 16t124.5 28t120 45.5t105.5 65t72 89.5t28 117.5q0 96 -59 147.5t-166 51.5q-60 0 -120.5 -25.5t-110 -67.5t-79 -73.5t-55.5 -64.5z" />
<glyph unicode="l" horiz-adv-x="485" d="M160 94q0 30 6 76l201 1298l-127 2l6 66h219l-213 -1366q0 -5 -1 -15t-1 -14q0 -50 16 -66t43 -16q17 0 43 2t43 5l17 2l-2 -64q-84 -14 -160 -14q-44 0 -67 22t-23 82z" />
<glyph unicode="m" horiz-adv-x="1673" d="M143 0l148 956l-127 2l6 66h207l-10 -119q15 15 36 31t67.5 45t114.5 47.5t142 18.5q102 0 157.5 -33.5t67.5 -106.5q18 17 42.5 34.5t72.5 44.5t116.5 44t143.5 17q117 0 174.5 -44t57.5 -149q0 -27 -7 -78l-94 -606q0 -5 -1 -16t-1 -15q0 -49 15 -64.5t42 -15.5l105 9 l-4 -64q-82 -14 -160 -14q-43 0 -65.5 22t-22.5 82q0 30 6 76l92 594q4 23 4 63q0 84 -44 116t-138 32q-56 0 -110.5 -14t-89.5 -30.5t-68.5 -39.5t-43.5 -32t-18 -17q0 -3 -2 -27.5t-4 -38.5l-119 -776h-88l119 764q6 37 6 65q0 81 -42.5 113.5t-133.5 32.5 q-56 0 -111 -13.5t-91 -30t-69 -38.5t-44.5 -32t-18.5 -17l-129 -844h-86z" />
<glyph unicode="n" horiz-adv-x="1183" d="M143 0l148 956l-127 2l6 66h207l-8 -104q17 15 40.5 31t70.5 40.5t118 40t152 15.5q313 0 313 -236q0 -31 -6 -66l-88 -565q-2 -14 -2 -37q0 -50 15.5 -67t41.5 -17l104 9l-4 -64q-81 -14 -159 -14q-44 0 -67.5 23t-23.5 85q0 42 49.5 351.5t49.5 334.5q0 189 -262 189 q-64 0 -124 -12.5t-99.5 -30.5t-69.5 -35.5t-44 -30.5l-14 -12l-131 -852h-86z" />
<glyph unicode="o" horiz-adv-x="1142" d="M106 408q0 292 147 465.5t423 173.5q201 0 304 -109.5t103 -308.5q0 -191 -64.5 -336.5t-195.5 -230.5t-313 -85q-199 0 -301.5 114.5t-102.5 316.5zM195 406q0 -172 82 -268.5t243 -96.5q228 0 350.5 159.5t122.5 428.5q0 169 -82 261.5t-245 92.5q-229 0 -350 -154 t-121 -423z" />
<glyph unicode="p" horiz-adv-x="1175" d="M61 -512l230 1468l-127 2l6 66h207l-17 -145q17 21 38.5 41t67.5 53t116 53.5t151 20.5q183 0 287 -98t104 -290q0 -107 -23 -206.5t-70.5 -186.5t-115.5 -151t-163.5 -101t-208.5 -37q-70 0 -129.5 13.5t-94.5 35t-52.5 35.5t-26.5 25l-93 -598h-86zM250 152 q10 -13 26 -26.5t49 -34.5t85 -34.5t114 -13.5q102 0 186.5 32t144 88t101 133.5t61 168.5t19.5 192q0 165 -89 244.5t-251 79.5q-63 0 -121.5 -17.5t-95.5 -39t-68.5 -50t-43 -42.5t-17.5 -23z" />
<glyph unicode="q" horiz-adv-x="1179" d="M106 408q0 138 37 254t108 202t182.5 134.5t254.5 48.5q66 0 122 -13t91 -33.5t52.5 -34.5t29.5 -28l29 86h69l-204 -1319h2q-7 -54 -7 -78q0 -49 14.5 -64.5t39.5 -15.5l104 9l-4 -64q-82 -14 -160 -14q-42 0 -65 22.5t-23 83.5q0 30 6 74l74 483q-9 -13 -23.5 -28.5 t-47 -41t-71 -45.5t-97 -34.5t-123.5 -14.5q-179 0 -284.5 115.5t-105.5 315.5zM195 406q0 -173 88.5 -267t246.5 -94q59 0 113.5 15t90 34t67.5 45.5t45 41.5t24 30l101 661q-10 12 -24.5 25.5t-47 35t-85 35t-114.5 13.5q-130 0 -227.5 -41t-158 -117.5t-90 -180.5 t-29.5 -236z" />
<glyph unicode="r" horiz-adv-x="808" d="M143 0l148 956l-135 2l6 66h207l-19 -174q8 14 21 31.5t44.5 49t67 55.5t91 42.5t114.5 18.5q36 0 75.5 -5.5t60.5 -11.5l22 -6l-37 -268h-61l16 213q-58 8 -102 8q-63 0 -121 -23.5t-96.5 -59t-60 -61t-32.5 -45.5l-123 -788h-86z" />
<glyph unicode="s" horiz-adv-x="964" d="M82 33l27 231l57 4l-21 -184q126 -43 269 -43q177 0 270.5 76.5t93.5 179.5q0 53 -31 91.5t-80.5 62t-110 43t-120.5 41.5t-109.5 49.5t-80.5 75t-31 110.5q0 130 101.5 203.5t256.5 73.5q148 0 267 -103l24 84h47l-32 -252h-56l4 107q-19 20 -44.5 39.5t-82 41 t-118.5 21.5q-120 0 -199.5 -56.5t-79.5 -150.5q0 -53 31 -92.5t81 -63t110.5 -43t120.5 -40.5t110 -48t81 -72.5t31 -107.5q0 -51 -16 -98t-51.5 -90.5t-88 -75.5t-131.5 -51t-175 -19q-97 0 -178 14t-114 28z" />
<glyph unicode="t" horiz-adv-x="731" d="M190 956l5 64l135 4l57 315h78l-49 -315h329l-10 -68h-329l-105 -673q-8 -47 -8 -93q0 -69 27.5 -100t87.5 -31q48 0 94 5.5t68 10.5l22 5l-6 -57q-74 -35 -213 -35q-87 0 -128.5 43t-41.5 139q0 24 8 94l108 692h-129z" />
<glyph unicode="u" horiz-adv-x="1179" d="M143 958l7 66h217l-109 -688q-4 -36 -4 -53q0 -108 69.5 -170t190.5 -62q64 0 123.5 12.5t98.5 30.5t69 35.5t43 30.5l14 12l121 784l-127 2l6 66h219l-133 -848q0 -6 -1 -16t-1 -15q0 -51 15.5 -68.5t42.5 -17.5l104 9l-4 -64q-84 -14 -160 -14q-43 0 -63.5 20t-20.5 78 v23q-5 -5 -15 -14.5t-45 -32.5t-76 -40.5t-108.5 -32t-140.5 -14.5q-145 0 -227 73.5t-82 205.5q0 40 4 63l98 637z" />
<glyph unicode="v" horiz-adv-x="991" d="M27 958l6 66h211l205 -936q423 568 530 866l-129 7l6 63h221q-89 -337 -618 -1024h-80l-217 956z" />
<glyph unicode="w" horiz-adv-x="1505" d="M25 958l6 66h202l111 -924l455 924h78l176 -924q142 195 261 428.5t179 425.5l-131 7l6 63h221q-56 -216 -193.5 -492.5t-328.5 -531.5h-82l-162 918l-458 -918h-91l-120 956z" />
<glyph unicode="x" horiz-adv-x="1128" d="M35 0l6 43q8 15 186.5 193.5t300.5 291.5l-270 428l-158 2l2 66h213l289 -469q97 92 209 211t168 192l-135 7l2 59h244l-7 -43q-2 -9 -70.5 -87.5t-175 -191.5t-192.5 -194q276 -449 352 -449l115 9l-2 -64q-80 -14 -156 -14q-56 0 -161.5 141t-223.5 348h-4 q-103 -94 -226 -215.5t-187 -195.5l131 -5l-11 -63h-239z" />
<glyph unicode="y" horiz-adv-x="1024" d="M-66 -485l39 268l60 4l-25 -233q56 -25 121 -25q66 0 118 27.5t85.5 70.5t59 109t39.5 127t26 141l-293 952l-137 2l6 66h209l280 -936q327 509 467 866l-127 7l6 63h213l-2 -43q-127 -349 -536 -973q-14 -108 -42.5 -199t-76.5 -171.5t-125 -126.5t-176 -46 q-58 0 -105.5 12.5t-65.5 24.5z" />
<glyph unicode="z" horiz-adv-x="968" d="M25 29l817 929h-539l-37 -190h-63l43 264l69 -8h633l-4 -59l-760 -871q92 -3 279.5 -24.5t288.5 -24.5l41 231l63 -4l-45 -295q-133 0 -355 26t-327 28l-59 -54z" />
<glyph unicode="{" horiz-adv-x="843" d="M262 563v4l10 66q40 0 85.5 19.5t87 55t69 93t27.5 125.5q0 38 -5.5 125.5t-5.5 126.5q0 65 9 114t34.5 96t69 76.5t116.5 47.5t173 18l-8 -62q-83 0 -143 -16.5t-94 -43t-53.5 -68.5t-25.5 -82.5t-6 -96.5q0 -40 6 -127.5t6 -126.5q0 -108 -60.5 -190t-152.5 -121 q61 -32 98.5 -86.5t37.5 -118.5q0 -52 -20.5 -117t-45 -117t-45 -120t-20.5 -127q0 -88 58 -135t191 -47l-10 -62q-172 0 -244.5 56t-72.5 163q0 63 20.5 134.5t45 124t45 115.5t20.5 112q0 80 -63 136t-134 56z" />
<glyph unicode="|" horiz-adv-x="620" d="M129 -512l317 2048h80l-317 -2048h-80z" />
<glyph unicode="}" horiz-adv-x="843" d="M-8 -334l10 62q83 0 142.5 16.5t93.5 43t53.5 68.5t25 82.5t5.5 96.5q0 40 -5.5 127.5t-5.5 126.5q0 108 60 189t153 120q-62 32 -98.5 86.5t-36.5 120.5q0 52 20 117t44.5 117t44.5 120t20 127q0 88 -57 135t-189 47l9 62q171 0 244 -56t73 -163q0 -63 -20.5 -134.5 t-45 -124t-45 -115.5t-20.5 -112q0 -80 63 -136t134 -56l-11 -66v-4q-40 0 -86 -19.5t-87 -55t-68 -93t-27 -125.5q0 -38 5 -125.5t5 -126.5q0 -66 -8.5 -114.5t-34.5 -95.5t-69.5 -76.5t-116.5 -47.5t-174 -18z" />
<glyph unicode="~" horiz-adv-x="1323" d="M123 686q5 6 14.5 16.5t42.5 37.5t70.5 47.5t99 37.5t127.5 17q80 0 141 -20t99.5 -48t75.5 -56.5t91.5 -48.5t125.5 -20q47 0 90 9.5t70 22.5t48 26t30 23l9 9l33 -37q-4 -6 -12 -15t-37 -33t-62.5 -42.5t-88 -33.5t-113.5 -15q-74 0 -131 20t-94.5 48.5t-75.5 56.5 t-96 48t-134 20q-53 0 -102 -11.5t-81 -28t-56.5 -32.5t-35.5 -28l-11 -11z" />
<glyph unicode="&#xa1;" horiz-adv-x="575" d="M100 -512l187 1124h69l-163 -1124h-93zM319 971q0 25 19 43t49 18q23 0 37 -12.5t14 -32.5q0 -27 -20 -45t-47 -18q-23 0 -37.5 12.5t-14.5 34.5z" />
<glyph unicode="&#xa2;" horiz-adv-x="968" d="M123 561q0 299 127 458.5t385 162.5l41 252h65l-34 -256q125 -15 215 -105l24 90h58l-43 -305h-70l16 148q-8 15 -23 31t-43 36t-75.5 32.5t-106.5 12.5q-230 0 -339 -136t-109 -415q0 -183 105.5 -286t265.5 -103q59 0 110.5 12.5t82.5 30t54 34.5t32 29l9 13l48 -29 q-4 -6 -11.5 -16.5t-37 -37.5t-65.5 -47t-100 -37t-137 -17h-6l-35 -215h-65l28 219q-164 24 -265 141t-101 303z" />
<glyph unicode="&#xa3;" horiz-adv-x="1173" d="M57 0l13 72h84q52 28 91 69t62.5 86t39 106t22 116.5t10.5 130.5h-232l7 67h227q13 253 29 361q25 161 129 252.5t264 91.5q149 0 252 -97l20 80h51l-32 -260h-64l12 119q-86 86 -223 86q-129 0 -212 -72t-103 -204q-16 -104 -33 -357h547l-6 -67h-547 q-14 -183 -52.5 -306.5t-129.5 -201.5h718l41 188l62 -4l-45 -256h-1002z" />
<glyph unicode="&#xa4;" horiz-adv-x="1273" d="M94 143l287 256q-53 74 -53 187q0 188 125 307l-205 252l43 41l196 -264q105 79 246 79q131 0 207 -79l287 262l28 -41l-288 -254q55 -77 55 -189q0 -187 -125 -309l203 -250l-39 -41l-199 260q-103 -77 -241 -77q-134 0 -213 82l-287 -263zM385 590q0 -117 65 -184.5 t179 -67.5q148 0 242 98.5t94 259.5q0 116 -65 183t-175 67q-150 0 -245 -97.5t-95 -258.5z" />
<glyph unicode="&#xa5;" horiz-adv-x="1261" d="M53 1270l6 61h424l-6 -61l-139 -2l336 -621h4l526 619l-135 2l8 63h412l-12 -65l-183 -4l-522 -615h309l-8 -53h-346l-18 -23l-33 -198h362l-6 -54h-364l-39 -251l166 -2l-11 -66h-419l6 66l168 2l39 251h-361l4 54h365l32 198l-12 23h-348l4 53h316l-340 621z" />
<glyph unicode="&#xa6;" horiz-adv-x="620" d="M129 -512l127 819h80l-127 -819h-80zM317 717l129 819h80l-129 -819h-80z" />
<glyph unicode="&#xa7;" horiz-adv-x="1128" d="M102 -162l41 285l62 4l-23 -248q106 -26 258 -26q90 0 158 17.5t105.5 43t60.5 61.5t30 66.5t7 64.5q0 54 -33 94t-86 64t-117 44.5t-128 43.5t-117 51.5t-86 77.5t-33 115q0 60 20.5 108.5t54.5 79t65 48.5t65 30q-76 63 -76 160q0 43 12 86t41 87.5t73 78.5t114 56 t157 22q155 0 279 -95l24 78h53l-34 -256h-68l10 115q-18 18 -43 35t-82.5 37t-122.5 20q-75 0 -133.5 -18.5t-93 -47t-56.5 -65.5t-30 -70t-8 -65q0 -54 34.5 -94.5t89.5 -65t121.5 -45.5t133.5 -44t122 -51.5t89.5 -77t34.5 -112.5q0 -61 -22 -110t-59 -80t-70.5 -49.5 t-70.5 -30.5q68 -61 68 -145q0 -47 -9.5 -88.5t-39.5 -86.5t-78 -77t-132.5 -53t-195.5 -21t-195 12.5t-113 24.5zM276 604q0 -57 33.5 -99t91.5 -68.5t119 -46t134.5 -44.5t119.5 -51q33 8 62 21.5t61.5 38.5t52 68t19.5 99q0 55 -34 95.5t-93.5 66.5t-122.5 45t-138.5 45 t-123.5 53q-31 -7 -58.5 -20.5t-57.5 -38t-47.5 -67t-17.5 -97.5z" />
<glyph unicode="&#xa8;" horiz-adv-x="819" d="M283 1305q0 20 12.5 36.5t42.5 16.5q45 0 45 -39q0 -20 -13 -36.5t-44 -16.5q-43 0 -43 39zM600 1305q0 21 14 37t43 16q45 0 45 -39q0 -18 -13.5 -35.5t-43.5 -17.5q-45 0 -45 39z" />
<glyph unicode="&#xa9;" horiz-adv-x="1728" d="M223 549q0 367 207.5 585t558.5 218q277 0 435.5 -150t158.5 -411q0 -67 -10 -137.5t-35 -151.5t-63.5 -154.5t-99.5 -142t-138 -118.5t-185 -80t-235 -30q-273 0 -433.5 154.5t-160.5 417.5zM285 549q0 -243 145.5 -382.5t392.5 -139.5q116 0 214.5 28.5t169 75.5 t126 111.5t90.5 133.5t58 145t32 142t9 128q0 240 -145 376t-394 136q-321 0 -509.5 -204t-188.5 -550zM559 616q0 189 107 298.5t278 109.5q124 0 182 -78l23 70h43l-35 -242h-55l14 121q-53 76 -168 76q-148 0 -237.5 -94t-89.5 -261q0 -126 74.5 -204t189.5 -78 q44 0 85 11t68 27t47 32t29 27l10 11l23 -36q-4 -5 -11 -13.5t-32 -30.5t-53.5 -39t-75.5 -30.5t-98 -13.5q-140 0 -229 92.5t-89 244.5z" />
<glyph unicode="&#xaa;" horiz-adv-x="886" d="M152 809q0 48 22.5 87.5t56.5 66.5t87.5 49t100.5 34.5t113 22.5t107.5 14.5t99.5 8.5l9 51q4 36 4 51q0 73 -45.5 107t-145.5 34q-46 0 -89 -8t-71.5 -20t-50.5 -24t-32 -20l-11 -8l-22 35q4 4 11 10.5t33.5 24t58 30.5t83.5 23.5t109 10.5q129 0 190 -45t61 -142 q0 -28 -6 -63l-75 -484h-64l6 127q-10 -17 -30 -37t-54.5 -46t-90 -43t-118.5 -17q-247 0 -247 170zM229 819q0 -131 205 -131q47 0 90.5 13.5t71 31t52.5 41.5t34.5 36.5t17.5 25.5l33 215q-54 -4 -93.5 -8t-95.5 -12.5t-96.5 -19.5t-84 -28.5t-71 -39.5t-45.5 -54t-18 -70 z" />
<glyph unicode="&#xab;" horiz-adv-x="1075" d="M221 512l385 332l29 -41l-334 -293l244 -299l-43 -43zM573 512l385 332l29 -41l-334 -293l244 -299l-43 -43z" />
<glyph unicode="&#xac;" horiz-adv-x="991" d="M166 621l10 67h725l-8 -67h-2l-51 -347h-72l53 347h-655z" />
<glyph unicode="&#xad;" horiz-adv-x="667" d="M117 539l6 67h485l-10 -67h-481z" />
<glyph unicode="&#xae;" horiz-adv-x="1392" d="M211 850q0 206 77 363.5t222.5 245t341.5 87.5q231 0 366.5 -128t135.5 -347q0 -54 -8.5 -113.5t-29.5 -129t-53 -134t-83 -124.5t-115.5 -104.5t-155 -71.5t-196.5 -27q-232 0 -367 130.5t-135 352.5zM270 852q0 -205 119.5 -320.5t329.5 -115.5q95 0 176.5 24.5 t139.5 65.5t104 96.5t74.5 115t47 124t26 120t7.5 107.5q0 202 -119.5 317t-328.5 115q-270 0 -423 -178t-153 -471zM561 627l101 655h174q231 0 231 -147q0 -100 -58.5 -155.5t-156.5 -70.5l125 -284h-55l-127 280h-142l-43 -278h-49zM657 940h123q101 0 166.5 45.5 t65.5 142.5q0 60 -45 87.5t-136 27.5h-126z" />
<glyph unicode="&#xaf;" horiz-adv-x="892" d="M385 1317l8 47h398l-9 -47h-397z" />
<glyph unicode="&#xb0;" horiz-adv-x="954" d="M246 1120q0 193 113 314.5t298 121.5q139 0 217 -83.5t78 -225.5q0 -190 -112 -310t-295 -120q-143 0 -221 81.5t-78 221.5zM317 1124q0 -114 61.5 -178.5t172.5 -64.5q148 0 240 99t92 265q0 115 -62 181.5t-174 66.5q-147 0 -238.5 -100.5t-91.5 -268.5z" />
<glyph unicode="&#xb1;" horiz-adv-x="1036" d="M78 336l6 67h866l-8 -67h-864zM256 1044l6 68h332l53 340h72l-53 -340h325l-10 -68h-326l-53 -342h-70l52 342h-328z" />
<glyph unicode="&#xb2;" horiz-adv-x="911" d="M119 471l10 68q2 0 39 25.5t97 71t131.5 104t143.5 130.5t131.5 143.5t96.5 149t37 142.5q0 182 -211 182q-58 0 -112.5 -20.5t-81.5 -39.5t-46 -38l-14 -76h-59l36 227h50l-5 -84q122 96 263 96q135 0 201.5 -64.5t66.5 -174.5q0 -85 -53.5 -184t-128 -181.5 t-175 -169.5t-172.5 -139.5t-143 -99.5h529l32 147l56 -2l-35 -213h-684z" />
<glyph unicode="&#xb3;" horiz-adv-x="909" d="M143 500l25 180l55 4l-12 -141q60 -27 182 -27q169 0 273 84.5t104 216.5q0 92 -59 148.5t-170 56.5q-69 0 -119 -33l-35 39l428 440h-442l-31 -153h-55l37 225l63 -4h533l-7 -47l-411 -418q54 6 63 6q132 0 207.5 -69.5t75.5 -184.5q0 -168 -128 -269t-333 -101 q-84 0 -145 11.5t-80 23.5z" />
<glyph unicode="&#xb4;" horiz-adv-x="444" d="M248 1178l235 286l86 -8l-258 -282z" />
<glyph unicode="&#xb5;" horiz-adv-x="1202" d="M61 -512l125 803q0 8 4 28l99 637l-125 2l6 66h217l-72 -446h2l-43 -269v-26q0 -109 69.5 -170.5t191.5 -61.5q64 0 123.5 12.5t98.5 30.5t69 35.5t44 30.5l13 12l121 784l-127 2l6 66h219l-133 -848q0 -6 -1 -16t-1 -15q0 -52 15 -69t42 -17l104 9l-4 -64 q-83 -14 -159 -14q-43 0 -63.5 20t-20.5 78v23q-5 -5 -15 -14.5t-45 -32.5t-76 -40.5t-108.5 -32t-140.5 -14.5q-173 0 -256 103l-90 -592h-89z" />
<glyph unicode="&#xb6;" horiz-adv-x="1353" d="M207 874q0 238 152 347.5t477 109.5h534l-8 -74h-135l-193 -1257h-88l193 1257h-244l-195 -1257h-86l80 514q-242 0 -364.5 87.5t-122.5 272.5z" />
<glyph unicode="&#xb7;" horiz-adv-x="497" d="M225 651q0 26 19 44t49 18q23 0 37 -12.5t14 -32.5q0 -27 -20.5 -45.5t-47.5 -18.5q-23 0 -37 12.5t-14 34.5z" />
<glyph unicode="&#xb8;" horiz-adv-x="532" d="M-45 -438l25 35q2 -3 6.5 -7.5t20 -16t33.5 -20.5t47.5 -16.5t62.5 -7.5q100 0 151 44t51 118q0 41 -33 69t-72.5 37t-72.5 14.5t-33 8.5l52 172h45l-43 -146q0 -3 22 -7t54 -12.5t64 -23t54.5 -44t22.5 -68.5q0 -93 -65 -149t-191 -56q-40 0 -75.5 8t-57.5 19t-38 22 t-23 19z" />
<glyph unicode="&#xb9;" horiz-adv-x="913" d="M272 471l7 59l223 7l141 919l-272 -129l-17 59l312 150h67l-155 -1004l196 -2l-12 -59h-490z" />
<glyph unicode="&#xba;" horiz-adv-x="968" d="M186 944q0 203 116 324t335 121q164 0 249 -81.5t85 -224.5q0 -203 -117.5 -323.5t-333.5 -120.5q-165 0 -249.5 80.5t-84.5 224.5zM266 942q0 -121 66 -187.5t196 -66.5q177 0 270 104.5t93 290.5q0 121 -66 186.5t-196 65.5q-178 0 -270.5 -103t-92.5 -290z" />
<glyph unicode="&#xbb;" horiz-adv-x="1071" d="M119 209l334 291l-242 301l41 43l280 -344l-382 -332zM473 209l334 291l-242 301l41 43l281 -344l-383 -332z" />
<glyph unicode="&#xbc;" horiz-adv-x="1734" d="M272 471l7 59l223 7l141 919l-272 -129l-17 59l312 150h67l-155 -1004l196 -2l-12 -59h-490zM584 76l839 1100l52 -33l-840 -1098zM803 -258l4 51q98 141 210 338t204 401l73 -10q-181 -388 -401 -719h444l76 480l25 86h67l-90 -566h139l-6 -57l-141 -4l-37 -225l100 -2 l-8 -58h-278l6 58l100 2l37 225h-524z" />
<glyph unicode="&#xbd;" horiz-adv-x="1861" d="M272 471l7 59l223 7l141 919l-272 -129l-17 59l312 150h67l-155 -1004l196 -2l-12 -59h-490zM584 76l839 1100l52 -33l-840 -1098zM911 -543l11 68q2 0 39 25.5t97 71t131.5 104t143.5 130.5t131 143.5t96 149t37 142.5q0 182 -211 182q-58 0 -112.5 -20.5t-80.5 -39 t-46 -38.5l-14 -76h-60l37 227h49l-4 -84q123 97 262 97q136 0 202.5 -65t66.5 -175q0 -85 -53.5 -184t-127 -181t-175 -169.5t-171.5 -139t-143 -100.5h526l33 147l55 -2l-35 -213h-684z" />
<glyph unicode="&#xbe;" horiz-adv-x="1738" d="M143 500l25 180l55 4l-12 -141q60 -27 182 -27q169 0 273 84.5t104 216.5q0 92 -59 148.5t-170 56.5q-69 0 -119 -33l-35 39l428 440h-442l-31 -153h-55l37 225l63 -4h533l-7 -47l-411 -418q54 6 63 6q132 0 207.5 -69.5t75.5 -184.5q0 -168 -128 -269t-333 -101 q-84 0 -145 11.5t-80 23.5zM590 76l840 1100l51 -33l-840 -1098zM809 -258l4 51q98 141 210 338t204 401l73 -10q-181 -388 -401 -719h444l76 480l25 86h67l-90 -566h140l-7 -57l-141 -4l-37 -225l101 -2l-9 -58h-278l6 58l100 2l37 225h-524z" />
<glyph unicode="&#xbf;" horiz-adv-x="927" d="M20 -256q0 77 21 137.5t57 101t82.5 74t98 61t102.5 55.5t97.5 65t82.5 83t57 115t21 156v20l51 4q0 -7 1 -21.5t1 -21.5q0 -89 -20 -160.5t-53.5 -119t-77.5 -85.5t-92.5 -65.5t-96.5 -53.5t-92 -55.5t-77.5 -65t-53.5 -88.5t-20 -120q0 -44 16.5 -82.5t52 -71.5t99 -52 t149.5 -19q91 0 176 23l43 221l64 -4l-45 -271q-8 -4 -24 -10.5t-79 -17.5t-141 -11q-201 0 -300.5 80t-99.5 199zM653 971q0 25 19 43t49 18q23 0 37 -12.5t14 -32.5q0 -27 -20 -45t-47 -18q-23 0 -37.5 12.5t-14.5 34.5z" />
<glyph unicode="&#xc0;" horiz-adv-x="1386" d="M-92 0l6 66l168 2l698 1263h117l305 -1268l166 -2l-8 -61h-408l9 53l151 4l-96 381h-641l-213 -379l153 -4l-8 -55h-399zM408 498h593l-178 759zM674 1733l86 8l147 -287l-65 -4z" />
<glyph unicode="&#xc1;" horiz-adv-x="1386" d="M-92 0l6 66l168 2l698 1263h117l305 -1268l166 -2l-8 -61h-408l9 53l151 4l-96 381h-641l-213 -379l153 -4l-8 -55h-399zM408 498h593l-178 759zM799 1454l235 287l86 -8l-258 -283z" />
<glyph unicode="&#xc2;" horiz-adv-x="1386" d="M-92 0l6 66l168 2l698 1263h117l305 -1268l166 -2l-8 -61h-408l9 53l151 4l-96 381h-641l-213 -379l153 -4l-8 -55h-399zM408 498h593l-178 759zM573 1565l310 221h51l235 -221l-34 -52l-236 213l-303 -213z" />
<glyph unicode="&#xc3;" horiz-adv-x="1386" d="M-92 0l6 66l168 2l698 1263h117l305 -1268l166 -2l-8 -61h-408l9 53l151 4l-96 381h-641l-213 -379l153 -4l-8 -55h-399zM408 498h593l-178 759zM547 1579q2 3 6.5 9t21.5 20.5t36 25.5t51 20t67 9q58 0 120 -25t120.5 -50t107.5 -25q39 0 73 11.5t48 22.5l14 11l7 -47 q-2 -3 -5.5 -7t-17 -15t-29.5 -19.5t-43.5 -15.5t-58.5 -7q-56 0 -118 24.5t-122.5 49t-111.5 24.5q-27 0 -53.5 -7t-45.5 -16.5t-34.5 -19.5t-23.5 -17l-7 -7z" />
<glyph unicode="&#xc4;" horiz-adv-x="1386" d="M-92 0l6 66l168 2l698 1263h117l305 -1268l166 -2l-8 -61h-408l9 53l151 4l-96 381h-641l-213 -379l153 -4l-8 -55h-399zM408 498h593l-178 759zM670 1581q0 20 12.5 36.5t42.5 16.5q45 0 45 -39q0 -20 -13 -36.5t-44 -16.5q-43 0 -43 39zM987 1581q0 21 14 37t43 16 q46 0 46 -39q0 -18 -14 -35.5t-44 -17.5q-45 0 -45 39z" />
<glyph unicode="&#xc5;" horiz-adv-x="1386" d="M-92 0l6 66l168 2l698 1263h117l305 -1268l166 -2l-8 -61h-408l9 53l151 4l-96 381h-641l-213 -379l153 -4l-8 -55h-399zM408 498h593l-178 759zM702 1651q0 96 65 160.5t155 64.5q69 0 114 -47.5t45 -120.5q0 -97 -64.5 -160t-154.5 -63q-72 0 -116 45t-44 121z M745 1655q0 -58 35 -93.5t88 -35.5q68 0 119 50.5t51 127.5q0 59 -34 95t-86 36q-70 0 -121.5 -51.5t-51.5 -128.5z" />
<glyph unicode="&#xc6;" horiz-adv-x="1824" d="M-223 0l6 66l184 2l989 1198l-163 2l4 63h946l78 4l-2 -4h2l-37 -260h-72l23 191h-611l-88 -555h641l-10 -68h-641l-88 -569h678l41 211l67 -5l-47 -276h-1001l4 49l168 4l59 385h-542l-316 -385l144 -2l-9 -51h-407zM414 498h501l117 764h-6z" />
<glyph unicode="&#xc7;" horiz-adv-x="1345" d="M162 565q0 176 57.5 325t157.5 249.5t235 156.5t289 56q183 0 336 -117l29 100h55l-59 -424h-70l33 260q-141 107 -316 107q-136 0 -254.5 -48t-208 -136.5t-141 -225.5t-51.5 -305q0 -237 142 -374.5t368 -137.5q85 0 163.5 21.5t130 52.5t90.5 62.5t57 52.5l18 22 l39 -47q-7 -10 -20 -26t-60 -57t-101 -72.5t-143 -57t-186 -25.5q-8 0 -25 1.5t-25 1.5l-38 -134q0 -3 22 -7t54 -12.5t64 -23t54.5 -44t22.5 -68.5q0 -93 -65 -149t-191 -56q-40 0 -75.5 8t-57.5 19t-38 22t-23 19l-7 8l25 35q2 -3 6.5 -7.5t19.5 -16t33 -20.5t47.5 -16.5 t62.5 -7.5q101 0 152 44t51 118q0 41 -33 69t-72.5 37t-72.5 14.5t-33 8.5l49 164q-227 28 -362 182.5t-135 398.5z" />
<glyph unicode="&#xc8;" horiz-adv-x="1191" d="M37 0l6 66l168 2l186 1200l-170 2l6 61h869l80 4l-37 -264h-72l21 191h-609l-86 -555h639l-10 -68h-639l-88 -569h676l43 211l65 -5l-47 -276h-1001zM635 1733l86 8l147 -287l-65 -4z" />
<glyph unicode="&#xc9;" horiz-adv-x="1191" d="M37 0l6 66l168 2l186 1200l-170 2l6 61h869l80 4l-37 -264h-72l21 191h-609l-86 -555h639l-10 -68h-639l-88 -569h676l43 211l65 -5l-47 -276h-1001zM758 1454l235 287l86 -8l-258 -283z" />
<glyph unicode="&#xca;" horiz-adv-x="1191" d="M37 0l6 66l168 2l186 1200l-170 2l6 61h869l80 4l-37 -264h-72l21 191h-609l-86 -555h639l-10 -68h-639l-88 -569h676l43 211l65 -5l-47 -276h-1001zM532 1565l310 221h51l235 -221l-34 -52l-236 213l-303 -213z" />
<glyph unicode="&#xcb;" horiz-adv-x="1191" d="M37 0l6 66l168 2l186 1200l-170 2l6 61h869l80 4l-37 -264h-72l21 191h-609l-86 -555h639l-10 -68h-639l-88 -569h676l43 211l65 -5l-47 -276h-1001zM627 1581q0 20 12.5 36.5t42.5 16.5q45 0 45 -39q0 -20 -13 -36.5t-44 -16.5q-43 0 -43 39zM944 1581q0 21 14 37t43 16 q46 0 46 -39q0 -18 -14 -35.5t-44 -17.5q-45 0 -45 39z" />
<glyph unicode="&#xcc;" horiz-adv-x="614" d="M37 0l6 66l168 2l186 1200l-170 2l6 61h431l-11 -65l-166 -2l-186 -1201l164 -2l-8 -61h-420zM285 1733l86 8l147 -287l-65 -4z" />
<glyph unicode="&#xcd;" horiz-adv-x="614" d="M37 0l6 66l168 2l186 1200l-170 2l6 61h431l-11 -65l-166 -2l-186 -1201l164 -2l-8 -61h-420zM408 1454l235 287l86 -8l-258 -283z" />
<glyph unicode="&#xce;" horiz-adv-x="614" d="M37 0l6 66l168 2l186 1200l-170 2l6 61h431l-11 -65l-166 -2l-186 -1201l164 -2l-8 -61h-420zM184 1565l310 221h51l235 -221l-35 -52l-235 213l-303 -213z" />
<glyph unicode="&#xcf;" horiz-adv-x="614" d="M37 0l6 66l168 2l186 1200l-170 2l6 61h431l-11 -65l-166 -2l-186 -1201l164 -2l-8 -61h-420zM279 1581q0 20 12.5 36.5t42.5 16.5q45 0 45 -39q0 -20 -13 -36.5t-44 -16.5q-43 0 -43 39zM596 1581q0 21 14 37t43 16q45 0 45 -39q0 -18 -13.5 -35.5t-43.5 -17.5 q-45 0 -45 39z" />
<glyph unicode="&#xd0;" horiz-adv-x="1499" d="M37 0l6 66l168 2l88 565h-197l7 59h198l90 576l-170 2l6 61h598q283 0 438.5 -134.5t155.5 -393.5q0 -368 -214 -585.5t-574 -217.5h-600zM301 74h346q153 0 280 49t217 141t139.5 228.5t49.5 306.5q0 226 -134 342t-374 116h-340l-88 -565h504l-10 -59h-504z" />
<glyph unicode="&#xd1;" horiz-adv-x="1562" d="M37 0l6 66l168 2l186 1200l-170 2l6 61h269l680 -1227v19l180 1143l-170 2l4 63h426l-10 -65l-166 -2l-199 -1280h-94l-686 1224h-2l4 -30l-174 -1112l164 -3l-8 -63h-414zM664 1579q2 3 6.5 9t21.5 20.5t36 25.5t51 20t67 9q58 0 120 -25t120.5 -50t107.5 -25 q39 0 73 11.5t48 22.5l14 11l6 -47q-2 -3 -5.5 -7t-16.5 -15t-29 -19.5t-43.5 -15.5t-58.5 -7q-56 0 -118.5 24.5t-123 49t-111.5 24.5q-43 0 -83.5 -16.5t-59.5 -33.5l-20 -17z" />
<glyph unicode="&#xd2;" d="M162 561q0 367 205 579t548 212q261 0 406 -135t145 -383q0 -123 -29.5 -243.5t-91.5 -231.5t-150.5 -196t-215.5 -135.5t-277 -50.5q-254 0 -397 158.5t-143 425.5zM254 563q0 -234 122 -373t339 -139q124 0 231.5 43t184.5 117.5t132 173t82 209.5t27 227 q0 220 -122.5 338.5t-342.5 118.5q-297 0 -475 -190.5t-178 -524.5zM748 1733l86 8l147 -287l-66 -4z" />
<glyph unicode="&#xd3;" d="M162 561q0 367 205 579t548 212q261 0 406 -135t145 -383q0 -123 -29.5 -243.5t-91.5 -231.5t-150.5 -196t-215.5 -135.5t-277 -50.5q-254 0 -397 158.5t-143 425.5zM254 563q0 -234 122 -373t339 -139q124 0 231.5 43t184.5 117.5t132 173t82 209.5t27 227 q0 220 -122.5 338.5t-342.5 118.5q-297 0 -475 -190.5t-178 -524.5zM872 1454l236 287l86 -8l-258 -283z" />
<glyph unicode="&#xd4;" d="M162 561q0 367 205 579t548 212q261 0 406 -135t145 -383q0 -123 -29.5 -243.5t-91.5 -231.5t-150.5 -196t-215.5 -135.5t-277 -50.5q-254 0 -397 158.5t-143 425.5zM254 563q0 -234 122 -373t339 -139q124 0 231.5 43t184.5 117.5t132 173t82 209.5t27 227 q0 220 -122.5 338.5t-342.5 118.5q-297 0 -475 -190.5t-178 -524.5zM647 1565l309 221h52l235 -221l-35 -52l-235 213l-303 -213z" />
<glyph unicode="&#xd5;" d="M162 561q0 367 205 579t548 212q261 0 406 -135t145 -383q0 -123 -29.5 -243.5t-91.5 -231.5t-150.5 -196t-215.5 -135.5t-277 -50.5q-254 0 -397 158.5t-143 425.5zM254 563q0 -234 122 -373t339 -139q124 0 231.5 43t184.5 117.5t132 173t82 209.5t27 227 q0 220 -122.5 338.5t-342.5 118.5q-297 0 -475 -190.5t-178 -524.5zM621 1579q2 3 6.5 9t21.5 20.5t36 25.5t51 20t67 9q58 0 120 -25t120.5 -50t107.5 -25q39 0 73 11.5t48 22.5l14 11l6 -47q-2 -3 -5.5 -7t-16.5 -15t-29 -19.5t-43.5 -15.5t-58.5 -7q-56 0 -118.5 24.5 t-123 49t-111.5 24.5q-43 0 -83.5 -16.5t-60.5 -33.5l-19 -17z" />
<glyph unicode="&#xd6;" d="M162 561q0 367 205 579t548 212q261 0 406 -135t145 -383q0 -123 -29.5 -243.5t-91.5 -231.5t-150.5 -196t-215.5 -135.5t-277 -50.5q-254 0 -397 158.5t-143 425.5zM254 563q0 -234 122 -373t339 -139q124 0 231.5 43t184.5 117.5t132 173t82 209.5t27 227 q0 220 -122.5 338.5t-342.5 118.5q-297 0 -475 -190.5t-178 -524.5zM743 1581q0 20 13 36.5t43 16.5q45 0 45 -39q0 -20 -13.5 -36.5t-44.5 -16.5q-43 0 -43 39zM1061 1581q0 21 14 37t43 16q45 0 45 -39q0 -18 -13.5 -35.5t-43.5 -17.5q-45 0 -45 39z" />
<glyph unicode="&#xd7;" horiz-adv-x="737" d="M92 414l268 241l-194 244l57 53l195 -243l270 243l41 -53l-270 -244l194 -241l-57 -52l-195 242l-266 -242z" />
<glyph unicode="&#xd8;" d="M162 561q0 367 205 579t548 212q161 0 281 -54l123 195l41 -6l-129 -207q115 -62 175 -175.5t60 -270.5q0 -123 -29.5 -243.5t-91.5 -231.5t-150.5 -196t-215.5 -135.5t-277 -50.5q-129 0 -229 41l-129 -219l-41 6l133 230q-133 67 -203.5 203t-70.5 323zM254 563 q0 -160 58 -277.5t167 -179.5l674 1121q-105 51 -246 51q-297 0 -475 -190.5t-178 -524.5zM514 90q82 -39 201 -39q124 0 231.5 43t184.5 117.5t132 173t82 209.5t27 227q0 271 -186 387z" />
<glyph unicode="&#xd9;" horiz-adv-x="1488" d="M199 1270l4 61h432l-10 -61l-168 -2l-127 -824q-6 -34 -6 -67q0 -142 94.5 -232t273.5 -90q201 0 329.5 110.5t154.5 278.5l127 822l-168 2l6 63h426l-8 -61l-170 -4l-129 -838q-14 -93 -58.5 -173.5t-115.5 -143t-176 -98.5t-230 -36q-219 0 -334 105t-115 270 q0 32 7 76l129 840zM731 1733l86 8l148 -287l-66 -4z" />
<glyph unicode="&#xda;" horiz-adv-x="1488" d="M199 1270l4 61h432l-10 -61l-168 -2l-127 -824q-6 -34 -6 -67q0 -142 94.5 -232t273.5 -90q201 0 329.5 110.5t154.5 278.5l127 822l-168 2l6 63h426l-8 -61l-170 -4l-129 -838q-14 -93 -58.5 -173.5t-115.5 -143t-176 -98.5t-230 -36q-219 0 -334 105t-115 270 q0 32 7 76l129 840zM819 1454l236 287l86 -8l-258 -283z" />
<glyph unicode="&#xdb;" horiz-adv-x="1488" d="M199 1270l4 61h432l-10 -61l-168 -2l-127 -824q-6 -34 -6 -67q0 -142 94.5 -232t273.5 -90q201 0 329.5 110.5t154.5 278.5l127 822l-168 2l6 63h426l-8 -61l-170 -4l-129 -838q-14 -93 -58.5 -173.5t-115.5 -143t-176 -98.5t-230 -36q-219 0 -334 105t-115 270 q0 32 7 76l129 840zM610 1565l310 221h51l235 -221l-35 -52l-235 213l-303 -213z" />
<glyph unicode="&#xdc;" horiz-adv-x="1488" d="M199 1270l4 61h432l-10 -61l-168 -2l-127 -824q-6 -34 -6 -67q0 -142 94.5 -232t273.5 -90q201 0 329.5 110.5t154.5 278.5l127 822l-168 2l6 63h426l-8 -61l-170 -4l-129 -838q-14 -93 -58.5 -173.5t-115.5 -143t-176 -98.5t-230 -36q-219 0 -334 105t-115 270 q0 32 7 76l129 840zM705 1581q0 20 12.5 36.5t42.5 16.5q45 0 45 -39q0 -20 -13 -36.5t-44 -16.5q-43 0 -43 39zM1022 1581q0 21 14 37t43 16q45 0 45 -39q0 -18 -13.5 -35.5t-43.5 -17.5q-45 0 -45 39z" />
<glyph unicode="&#xdd;" horiz-adv-x="1261" d="M53 1270l6 61h424l-6 -61l-139 -2l338 -623l528 621l-135 2l8 63h412l-12 -65l-183 -4l-585 -691l-80 -503l166 -2l-11 -66h-419l6 66l168 2l79 503l-380 697zM774 1454l236 287l86 -8l-258 -283z" />
<glyph unicode="&#xde;" horiz-adv-x="1144" d="M37 0l6 66l168 2l186 1200l-170 2l6 61h259l-39 -250h219q200 0 306.5 -80t106.5 -245q0 -109 -32 -198.5t-85.5 -148t-125 -98.5t-147.5 -57.5t-156 -17.5h-217l-37 -236h-248zM332 305h209q71 0 135.5 15t123 49.5t101.5 84.5t68.5 124.5t25.5 166.5q0 265 -340 265 h-215z" />
<glyph unicode="&#xdf;" horiz-adv-x="1228" d="M-262 -508l33 70q30 -19 106 -19q82 0 158.5 97t105.5 278l193 1249q63 387 444 387q156 0 236 -52.5t80 -172.5q0 -69 -26 -126t-71 -95t-90.5 -62.5t-99.5 -41.5q176 -30 264 -127t88 -269q0 -295 -142 -463t-392 -168q-59 0 -107 6.5t-74.5 16t-44.5 19t-24 15.5l-6 7 l22 55q2 -2 6.5 -5.5t22 -13t40 -16.5t62.5 -12.5t88 -5.5q215 0 338 149t123 412q0 183 -107.5 265.5t-342.5 82.5l2 19l4 49q8 0 21.5 1.5t53.5 8.5t76 18t79.5 33.5t75.5 51.5t53.5 75.5t21.5 102.5q0 95 -61.5 135.5t-180.5 40.5q-291 0 -344 -318v-2l-195 -1249 q-14 -92 -42.5 -169t-64 -128.5t-78 -87.5t-84.5 -52t-83 -16q-50 0 -84.5 6.5t-43.5 13.5z" />
<glyph unicode="&#xe0;" horiz-adv-x="1198" d="M104 408q0 139 36.5 254.5t107.5 202t183 134.5t255 48q70 0 128.5 -14t93.5 -35.5t51.5 -35.5t25.5 -26l27 88h69l-125 -805q-6 -49 -6 -78q0 -50 14.5 -66t41.5 -16l104 9l-4 -64q-82 -14 -160 -14q-43 0 -64.5 20t-21.5 76q0 34 4 57q-10 -14 -24.5 -29.5t-48.5 -41.5 t-72.5 -45.5t-98.5 -34.5t-126 -15q-179 0 -284.5 115.5t-105.5 315.5zM193 406q0 -171 89 -266t246 -95q71 0 134.5 21t106.5 54.5t64.5 55t36.5 41.5l103 653q-8 11 -22.5 24.5t-46.5 35.5t-86.5 36.5t-119.5 14.5q-130 0 -228 -41.5t-158 -118.5t-89.5 -180.5 t-29.5 -234.5zM492 1456l86 8l147 -286l-66 -4z" />
<glyph unicode="&#xe1;" horiz-adv-x="1198" d="M104 408q0 139 36.5 254.5t107.5 202t183 134.5t255 48q70 0 128.5 -14t93.5 -35.5t51.5 -35.5t25.5 -26l27 88h69l-125 -805q-6 -49 -6 -78q0 -50 14.5 -66t41.5 -16l104 9l-4 -64q-82 -14 -160 -14q-43 0 -64.5 20t-21.5 76q0 34 4 57q-10 -14 -24.5 -29.5t-48.5 -41.5 t-72.5 -45.5t-98.5 -34.5t-126 -15q-179 0 -284.5 115.5t-105.5 315.5zM193 406q0 -171 89 -266t246 -95q71 0 134.5 21t106.5 54.5t64.5 55t36.5 41.5l103 653q-8 11 -22.5 24.5t-46.5 35.5t-86.5 36.5t-119.5 14.5q-130 0 -228 -41.5t-158 -118.5t-89.5 -180.5 t-29.5 -234.5zM618 1178l236 286l86 -8l-258 -282z" />
<glyph unicode="&#xe2;" horiz-adv-x="1198" d="M104 408q0 139 36.5 254.5t107.5 202t183 134.5t255 48q70 0 128.5 -14t93.5 -35.5t51.5 -35.5t25.5 -26l27 88h69l-125 -805q-6 -49 -6 -78q0 -50 14.5 -66t41.5 -16l104 9l-4 -64q-82 -14 -160 -14q-43 0 -64.5 20t-21.5 76q0 34 4 57q-10 -14 -24.5 -29.5t-48.5 -41.5 t-72.5 -45.5t-98.5 -34.5t-126 -15q-179 0 -284.5 115.5t-105.5 315.5zM193 406q0 -171 89 -266t246 -95q71 0 134.5 21t106.5 54.5t64.5 55t36.5 41.5l103 653q-8 11 -22.5 24.5t-46.5 35.5t-86.5 36.5t-119.5 14.5q-130 0 -228 -41.5t-158 -118.5t-89.5 -180.5 t-29.5 -234.5zM391 1288l309 221h52l235 -221l-35 -51l-235 213l-303 -213z" />
<glyph unicode="&#xe3;" horiz-adv-x="1198" d="M104 408q0 139 36.5 254.5t107.5 202t183 134.5t255 48q70 0 128.5 -14t93.5 -35.5t51.5 -35.5t25.5 -26l27 88h69l-125 -805q-6 -49 -6 -78q0 -50 14.5 -66t41.5 -16l104 9l-4 -64q-82 -14 -160 -14q-43 0 -64.5 20t-21.5 76q0 34 4 57q-10 -14 -24.5 -29.5t-48.5 -41.5 t-72.5 -45.5t-98.5 -34.5t-126 -15q-179 0 -284.5 115.5t-105.5 315.5zM193 406q0 -171 89 -266t246 -95q71 0 134.5 21t106.5 54.5t64.5 55t36.5 41.5l103 653q-8 11 -22.5 24.5t-46.5 35.5t-86.5 36.5t-119.5 14.5q-130 0 -228 -41.5t-158 -118.5t-89.5 -180.5 t-29.5 -234.5zM367 1303q2 3 6.5 9t21.5 20t36 25t51 20t67 9q58 0 120 -25t120.5 -50t107.5 -25q39 0 73 11t48 23l14 11l6 -47q-2 -3 -5.5 -7t-16.5 -15t-29 -19t-43.5 -15t-58.5 -7q-56 0 -118.5 24.5t-123 49t-111.5 24.5q-43 0 -83.5 -17t-60.5 -34l-19 -17z" />
<glyph unicode="&#xe4;" horiz-adv-x="1198" d="M104 408q0 139 36.5 254.5t107.5 202t183 134.5t255 48q70 0 128.5 -14t93.5 -35.5t51.5 -35.5t25.5 -26l27 88h69l-125 -805q-6 -49 -6 -78q0 -50 14.5 -66t41.5 -16l104 9l-4 -64q-82 -14 -160 -14q-43 0 -64.5 20t-21.5 76q0 34 4 57q-10 -14 -24.5 -29.5t-48.5 -41.5 t-72.5 -45.5t-98.5 -34.5t-126 -15q-179 0 -284.5 115.5t-105.5 315.5zM193 406q0 -171 89 -266t246 -95q71 0 134.5 21t106.5 54.5t64.5 55t36.5 41.5l103 653q-8 11 -22.5 24.5t-46.5 35.5t-86.5 36.5t-119.5 14.5q-130 0 -228 -41.5t-158 -118.5t-89.5 -180.5 t-29.5 -234.5zM487 1305q0 20 13 36.5t43 16.5q45 0 45 -39q0 -20 -13.5 -36.5t-44.5 -16.5q-43 0 -43 39zM805 1305q0 21 14 37t43 16q45 0 45 -39q0 -18 -13.5 -35.5t-43.5 -17.5q-45 0 -45 39z" />
<glyph unicode="&#xe5;" horiz-adv-x="1198" d="M104 408q0 139 36.5 254.5t107.5 202t183 134.5t255 48q70 0 128.5 -14t93.5 -35.5t51.5 -35.5t25.5 -26l27 88h69l-125 -805q-6 -49 -6 -78q0 -50 14.5 -66t41.5 -16l104 9l-4 -64q-82 -14 -160 -14q-43 0 -64.5 20t-21.5 76q0 34 4 57q-10 -14 -24.5 -29.5t-48.5 -41.5 t-72.5 -45.5t-98.5 -34.5t-126 -15q-179 0 -284.5 115.5t-105.5 315.5zM193 406q0 -171 89 -266t246 -95q71 0 134.5 21t106.5 54.5t64.5 55t36.5 41.5l103 653q-8 11 -22.5 24.5t-46.5 35.5t-86.5 36.5t-119.5 14.5q-130 0 -228 -41.5t-158 -118.5t-89.5 -180.5 t-29.5 -234.5zM520 1374q0 96 64.5 160.5t154.5 64.5q69 0 114.5 -47t45.5 -120q0 -97 -64.5 -160.5t-154.5 -63.5q-72 0 -116 45t-44 121zM563 1378q0 -58 35 -93.5t88 -35.5q68 0 119 50.5t51 127.5q0 59 -34.5 95.5t-86.5 36.5q-69 0 -120.5 -51.5t-51.5 -129.5z" />
<glyph unicode="&#xe6;" horiz-adv-x="1708" d="M59 231q0 49 14.5 90.5t36.5 72.5t60 57.5t72.5 43.5t88 32t92.5 23t99.5 15.5t95.5 10.5t94 7.5t83 6.5l16 100q8 47 8 94q0 103 -54 151t-175 48q-53 0 -102.5 -14t-82.5 -35t-50.5 -35.5t-26.5 -24.5l-21 -110h-63l41 264h53l-4 -78q123 97 276 97q139 0 207.5 -59.5 t71.5 -182.5q75 113 188.5 177.5t255.5 64.5q158 0 250 -73.5t92 -197.5q0 -60 -20 -104.5t-64.5 -77t-107 -54t-157.5 -34.5t-205 -18t-259 -5q-2 -25 -2 -71q0 -173 98 -271t256 -98q66 0 125 15.5t95.5 37.5t63.5 44t38 38l12 15l45 -33q-4 -7 -13 -19.5t-42.5 -44 t-74 -55.5t-110.5 -44t-149 -20q-165 0 -276.5 84.5t-141.5 237.5q-24 -59 -55 -109.5t-79.5 -101.5t-120 -81t-156.5 -30q-153 0 -234.5 69t-81.5 185zM150 246q0 -96 64 -151.5t189 -55.5q61 0 114.5 22t91 60.5t67 80t50 92t31.5 84t19 66.5q4 59 10 91 q-225 -15 -286 -24q-251 -34 -320 -149q-30 -50 -30 -116zM870 541q116 0 204.5 3t167 9.5t134 18.5t100 29.5t70.5 42t39.5 56t13.5 72.5q0 95 -73 153t-203 58q-181 0 -301 -123t-152 -319z" />
<glyph unicode="&#xe7;" horiz-adv-x="968" d="M106 426q0 302 130 461.5t393 159.5q172 0 276 -109l25 90h57l-43 -305h-70l17 147q-8 15 -23 31t-43 36.5t-75.5 33t-106.5 12.5q-230 0 -339 -136t-109 -415q0 -183 105 -286t265 -103q59 0 110.5 12.5t83 30t54 34.5t31.5 30l10 12l47 -29q-4 -6 -11.5 -16.5 t-36.5 -37.5t-65.5 -47.5t-100 -37.5t-136.5 -17q-18 0 -33 3l-39 -134q0 -3 22 -7t54 -12.5t64 -23t54.5 -44t22.5 -68.5q0 -93 -65 -149t-191 -56q-40 0 -75.5 8t-57 19t-38 22t-23.5 19l-6 8l24 35q2 -3 6.5 -7.5t20 -16t33.5 -20.5t47.5 -16.5t62.5 -7.5q101 0 152 44 t51 118q0 41 -33 69t-72.5 37t-72.5 14.5t-33 8.5l47 164q-164 22 -265.5 139t-101.5 303z" />
<glyph unicode="&#xe8;" horiz-adv-x="1036" d="M106 412q0 127 39.5 242.5t110.5 202.5t177 138.5t231 51.5q158 0 250 -73.5t92 -197.5q0 -60 -20 -104.5t-64.5 -77t-107 -54t-157.5 -34.5t-205 -18t-259 -5q-3 -37 -3 -71q0 -173 98.5 -271t256.5 -98q66 0 124.5 15.5t95.5 37.5t64 44t39 38l11 15l45 -33 q-4 -7 -13 -19.5t-42.5 -44t-74 -55.5t-110.5 -44t-149 -20q-193 0 -311 115t-118 320zM201 541q116 0 204.5 3t167 9.5t134 18.5t100 29.5t70.5 42t39.5 56t13.5 72.5q0 95 -73 153t-204 58q-181 0 -300.5 -123t-151.5 -319zM502 1456l86 8l147 -286l-65 -4z" />
<glyph unicode="&#xe9;" horiz-adv-x="1036" d="M106 412q0 127 39.5 242.5t110.5 202.5t177 138.5t231 51.5q158 0 250 -73.5t92 -197.5q0 -60 -20 -104.5t-64.5 -77t-107 -54t-157.5 -34.5t-205 -18t-259 -5q-3 -37 -3 -71q0 -173 98.5 -271t256.5 -98q66 0 124.5 15.5t95.5 37.5t64 44t39 38l11 15l45 -33 q-4 -7 -13 -19.5t-42.5 -44t-74 -55.5t-110.5 -44t-149 -20q-193 0 -311 115t-118 320zM201 541q116 0 204.5 3t167 9.5t134 18.5t100 29.5t70.5 42t39.5 56t13.5 72.5q0 95 -73 153t-204 58q-181 0 -300.5 -123t-151.5 -319zM627 1178l235 286l86 -8l-258 -282z" />
<glyph unicode="&#xea;" horiz-adv-x="1036" d="M106 412q0 127 39.5 242.5t110.5 202.5t177 138.5t231 51.5q158 0 250 -73.5t92 -197.5q0 -60 -20 -104.5t-64.5 -77t-107 -54t-157.5 -34.5t-205 -18t-259 -5q-3 -37 -3 -71q0 -173 98.5 -271t256.5 -98q66 0 124.5 15.5t95.5 37.5t64 44t39 38l11 15l45 -33 q-4 -7 -13 -19.5t-42.5 -44t-74 -55.5t-110.5 -44t-149 -20q-193 0 -311 115t-118 320zM201 541q116 0 204.5 3t167 9.5t134 18.5t100 29.5t70.5 42t39.5 56t13.5 72.5q0 95 -73 153t-204 58q-181 0 -300.5 -123t-151.5 -319zM401 1288l310 221h51l235 -221l-34 -51 l-236 213l-303 -213z" />
<glyph unicode="&#xeb;" horiz-adv-x="1036" d="M106 412q0 127 39.5 242.5t110.5 202.5t177 138.5t231 51.5q158 0 250 -73.5t92 -197.5q0 -60 -20 -104.5t-64.5 -77t-107 -54t-157.5 -34.5t-205 -18t-259 -5q-3 -37 -3 -71q0 -173 98.5 -271t256.5 -98q66 0 124.5 15.5t95.5 37.5t64 44t39 38l11 15l45 -33 q-4 -7 -13 -19.5t-42.5 -44t-74 -55.5t-110.5 -44t-149 -20q-193 0 -311 115t-118 320zM201 541q116 0 204.5 3t167 9.5t134 18.5t100 29.5t70.5 42t39.5 56t13.5 72.5q0 95 -73 153t-204 58q-181 0 -300.5 -123t-151.5 -319zM494 1305q0 20 12.5 36.5t42.5 16.5 q45 0 45 -39q0 -20 -13 -36.5t-44 -16.5q-43 0 -43 39zM811 1305q0 21 14 37t43 16q45 0 45 -39q0 -18 -13.5 -35.5t-43.5 -17.5q-45 0 -45 39z" />
<glyph unicode="&#xec;" horiz-adv-x="489" d="M164 94q0 30 6 76l123 786l-127 2l4 66h219l-133 -854q0 -5 -1 -15t-1 -14q0 -50 16 -66t43 -16l105 9l-4 -64q-84 -14 -160 -14q-44 0 -67 22t-23 82zM184 1456l86 8l148 -286l-66 -4z" />
<glyph unicode="&#xed;" horiz-adv-x="489" d="M164 94q0 30 6 76l123 786l-127 2l4 66h219l-133 -854q0 -5 -1 -15t-1 -14q0 -50 16 -66t43 -16l105 9l-4 -64q-84 -14 -160 -14q-44 0 -67 22t-23 82zM309 1178l236 286l86 -8l-258 -282z" />
<glyph unicode="&#xee;" horiz-adv-x="489" d="M84 1288l309 221h51l236 -221l-35 -51l-235 213l-304 -213zM164 94q0 30 6 76l123 786l-127 2l4 66h219l-133 -854q0 -5 -1 -15t-1 -14q0 -50 16 -66t43 -16l105 9l-4 -64q-84 -14 -160 -14q-44 0 -67 22t-23 82z" />
<glyph unicode="&#xef;" horiz-adv-x="489" d="M164 94q0 30 6 76l123 786l-127 2l4 66h219l-133 -854q0 -5 -1 -15t-1 -14q0 -50 16 -66t43 -16l105 9l-4 -64q-84 -14 -160 -14q-44 0 -67 22t-23 82zM178 1305q0 20 12.5 36.5t42.5 16.5q46 0 46 -39q0 -20 -13.5 -36.5t-44.5 -16.5q-43 0 -43 39zM496 1305q0 21 14 37 t43 16q45 0 45 -39q0 -18 -13.5 -35.5t-43.5 -17.5q-45 0 -45 39z" />
<glyph unicode="&#xf0;" horiz-adv-x="1083" d="M102 422q0 183 67.5 325t191 221t284.5 79q121 0 223 -58t152 -160v25q0 180 -55.5 301t-157.5 211l-291 -143l-12 34l272 136q-11 9 -117 82l48 41q98 -63 133 -93l194 97l13 -35l-177 -88q105 -93 162.5 -225.5t57.5 -333.5q0 -115 -21 -256h-2q-26 -268 -183 -436.5 t-370 -168.5q-183 0 -297.5 123t-114.5 322zM190 424q0 -167 92.5 -275t239.5 -108q91 0 175 45t147 123.5t101 193t38 244.5q0 149 -95.5 242.5t-246.5 93.5q-92 0 -173.5 -36.5t-143.5 -105.5t-98 -176.5t-36 -240.5z" />
<glyph unicode="&#xf1;" horiz-adv-x="1183" d="M143 0l148 956l-127 2l6 66h207l-8 -104q17 15 40.5 31t70.5 40.5t118 40t152 15.5q313 0 313 -236q0 -31 -6 -66l-88 -565q-2 -14 -2 -37q0 -50 15.5 -67t41.5 -17l104 9l-4 -64q-81 -14 -159 -14q-44 0 -67.5 23t-23.5 85q0 42 49.5 351.5t49.5 334.5q0 189 -262 189 q-64 0 -124 -12.5t-99.5 -30.5t-69.5 -35.5t-44 -30.5l-14 -12l-131 -852h-86zM371 1303q2 3 6.5 9t21.5 20t36 25t51 20t67 9q58 0 120 -25t120.5 -50t107.5 -25q39 0 73 11t48 23l14 11l6 -47q-2 -3 -5.5 -7t-16.5 -15t-29 -19t-43.5 -15t-58.5 -7q-56 0 -118 24.5 t-122.5 49t-111.5 24.5q-43 0 -84 -17t-61 -34l-19 -17z" />
<glyph unicode="&#xf2;" horiz-adv-x="1142" d="M106 408q0 292 147 465.5t423 173.5q201 0 304 -109.5t103 -308.5q0 -191 -64.5 -336.5t-195.5 -230.5t-313 -85q-199 0 -301.5 114.5t-102.5 316.5zM195 406q0 -172 82 -268.5t243 -96.5q228 0 350.5 159.5t122.5 428.5q0 169 -82 261.5t-245 92.5q-229 0 -350 -154 t-121 -423zM512 1456l86 8l147 -286l-65 -4z" />
<glyph unicode="&#xf3;" horiz-adv-x="1142" d="M106 408q0 292 147 465.5t423 173.5q201 0 304 -109.5t103 -308.5q0 -191 -64.5 -336.5t-195.5 -230.5t-313 -85q-199 0 -301.5 114.5t-102.5 316.5zM195 406q0 -172 82 -268.5t243 -96.5q228 0 350.5 159.5t122.5 428.5q0 169 -82 261.5t-245 92.5q-229 0 -350 -154 t-121 -423zM637 1178l235 286l86 -8l-258 -282z" />
<glyph unicode="&#xf4;" horiz-adv-x="1142" d="M106 408q0 292 147 465.5t423 173.5q201 0 304 -109.5t103 -308.5q0 -191 -64.5 -336.5t-195.5 -230.5t-313 -85q-199 0 -301.5 114.5t-102.5 316.5zM195 406q0 -172 82 -268.5t243 -96.5q228 0 350.5 159.5t122.5 428.5q0 169 -82 261.5t-245 92.5q-229 0 -350 -154 t-121 -423zM410 1288l309 221h51l236 -221l-35 -51l-236 213l-303 -213z" />
<glyph unicode="&#xf5;" horiz-adv-x="1142" d="M106 408q0 292 147 465.5t423 173.5q201 0 304 -109.5t103 -308.5q0 -191 -64.5 -336.5t-195.5 -230.5t-313 -85q-199 0 -301.5 114.5t-102.5 316.5zM195 406q0 -172 82 -268.5t243 -96.5q228 0 350.5 159.5t122.5 428.5q0 169 -82 261.5t-245 92.5q-229 0 -350 -154 t-121 -423zM385 1303q2 3 6.5 9t21.5 20t36 25t51 20t67 9q58 0 120 -25t120.5 -50t107.5 -25q39 0 73 11t48 23l15 11l6 -47q-2 -3 -5.5 -7t-17 -15t-29.5 -19t-43.5 -15t-58.5 -7q-56 0 -118 24.5t-122.5 49t-111.5 24.5q-43 0 -84 -17t-61 -34l-19 -17z" />
<glyph unicode="&#xf6;" horiz-adv-x="1142" d="M106 408q0 292 147 465.5t423 173.5q201 0 304 -109.5t103 -308.5q0 -191 -64.5 -336.5t-195.5 -230.5t-313 -85q-199 0 -301.5 114.5t-102.5 316.5zM195 406q0 -172 82 -268.5t243 -96.5q228 0 350.5 159.5t122.5 428.5q0 169 -82 261.5t-245 92.5q-229 0 -350 -154 t-121 -423zM506 1305q0 20 12.5 36.5t42.5 16.5q45 0 45 -39q0 -20 -13 -36.5t-44 -16.5q-43 0 -43 39zM823 1305q0 20 14.5 36.5t43.5 16.5q45 0 45 -39q0 -18 -14 -35.5t-44 -17.5q-45 0 -45 39z" />
<glyph unicode="&#xf7;" horiz-adv-x="1036" d="M100 473l6 68h867l-8 -68h-865zM410 117q0 26 18.5 43.5t48.5 17.5q23 0 37 -12.5t14 -32.5q0 -27 -20 -45t-47 -18q-23 0 -37 12.5t-14 34.5zM532 881q0 25 19 43t49 18q23 0 37 -12.5t14 -32.5q0 -27 -20 -45t-47 -18q-23 0 -37.5 12.5t-14.5 34.5z" />
<glyph unicode="&#xf8;" horiz-adv-x="1175" d="M66 -356l229 381q-189 101 -189 383q0 292 147 465.5t423 173.5q120 0 207 -41l196 325l58 -6l-207 -346q153 -105 153 -350q0 -191 -64.5 -336.5t-195.5 -230.5t-313 -85q-85 0 -168 27l-219 -366zM195 406q0 -231 139 -318l512 854q-74 41 -180 41q-229 0 -350 -154 t-121 -423zM379 66q64 -25 141 -25q228 0 350.5 159.5t122.5 428.5q0 194 -104 282z" />
<glyph unicode="&#xf9;" horiz-adv-x="1179" d="M143 958l7 66h217l-109 -688q-4 -36 -4 -53q0 -108 69.5 -170t190.5 -62q64 0 123.5 12.5t98.5 30.5t69 35.5t43 30.5l14 12l121 784l-127 2l6 66h219l-133 -848q0 -6 -1 -16t-1 -15q0 -51 15.5 -68.5t42.5 -17.5l104 9l-4 -64q-84 -14 -160 -14q-43 0 -63.5 20t-20.5 78 v23q-5 -5 -15 -14.5t-45 -32.5t-76 -40.5t-108.5 -32t-140.5 -14.5q-145 0 -227 73.5t-82 205.5q0 40 4 63l98 637zM518 1456l86 8l148 -286l-66 -4z" />
<glyph unicode="&#xfa;" horiz-adv-x="1179" d="M143 958l7 66h217l-109 -688q-4 -36 -4 -53q0 -108 69.5 -170t190.5 -62q64 0 123.5 12.5t98.5 30.5t69 35.5t43 30.5l14 12l121 784l-127 2l6 66h219l-133 -848q0 -6 -1 -16t-1 -15q0 -51 15.5 -68.5t42.5 -17.5l104 9l-4 -64q-84 -14 -160 -14q-43 0 -63.5 20t-20.5 78 v23q-5 -5 -15 -14.5t-45 -32.5t-76 -40.5t-108.5 -32t-140.5 -14.5q-145 0 -227 73.5t-82 205.5q0 40 4 63l98 637zM643 1178l236 286l86 -8l-258 -282z" />
<glyph unicode="&#xfb;" horiz-adv-x="1179" d="M143 958l7 66h217l-109 -688q-4 -36 -4 -53q0 -108 69.5 -170t190.5 -62q64 0 123.5 12.5t98.5 30.5t69 35.5t43 30.5l14 12l121 784l-127 2l6 66h219l-133 -848q0 -6 -1 -16t-1 -15q0 -51 15.5 -68.5t42.5 -17.5l104 9l-4 -64q-84 -14 -160 -14q-43 0 -63.5 20t-20.5 78 v23q-5 -5 -15 -14.5t-45 -32.5t-76 -40.5t-108.5 -32t-140.5 -14.5q-145 0 -227 73.5t-82 205.5q0 40 4 63l98 637zM418 1288l309 221h51l236 -221l-35 -51l-236 213l-303 -213z" />
<glyph unicode="&#xfc;" horiz-adv-x="1179" d="M143 958l7 66h217l-109 -688q-4 -36 -4 -53q0 -108 69.5 -170t190.5 -62q64 0 123.5 12.5t98.5 30.5t69 35.5t43 30.5l14 12l121 784l-127 2l6 66h219l-133 -848q0 -6 -1 -16t-1 -15q0 -51 15.5 -68.5t42.5 -17.5l104 9l-4 -64q-84 -14 -160 -14q-43 0 -63.5 20t-20.5 78 v23q-5 -5 -15 -14.5t-45 -32.5t-76 -40.5t-108.5 -32t-140.5 -14.5q-145 0 -227 73.5t-82 205.5q0 40 4 63l98 637zM512 1305q0 20 12.5 36.5t42.5 16.5q45 0 45 -39q0 -20 -13 -36.5t-44 -16.5q-43 0 -43 39zM829 1305q0 20 14.5 36.5t43.5 16.5q45 0 45 -39 q0 -18 -14 -35.5t-44 -17.5q-45 0 -45 39z" />
<glyph unicode="&#xfd;" horiz-adv-x="1024" d="M-66 -485l39 268l60 4l-25 -233q56 -25 121 -25q66 0 118 27.5t85.5 70.5t59 109t39.5 127t26 141l-293 952l-137 2l6 66h209l280 -936q327 509 467 866l-127 7l6 63h213l-2 -43q-127 -349 -536 -973q-14 -108 -42.5 -199t-76.5 -171.5t-125 -126.5t-176 -46 q-58 0 -105.5 12.5t-65.5 24.5zM662 1178l235 286l86 -8l-258 -282z" />
<glyph unicode="&#xfe;" horiz-adv-x="1185" d="M66 -512l84 512l227 1468l-127 2l4 66h221l-102 -657q4 7 13 18t41.5 40t70.5 51.5t102.5 40.5t136.5 18q186 0 292 -98.5t106 -291.5q0 -107 -23.5 -206t-72 -185.5t-117 -150.5t-164.5 -101t-209 -37q-198 0 -299 109l-98 -598h-86zM260 152q10 -13 24 -25.5 t46.5 -34.5t85 -35.5t116.5 -13.5q104 0 190 33.5t145 91.5t99.5 136.5t59 166.5t18.5 184q0 166 -89.5 246t-252.5 80q-61 0 -117 -16t-92.5 -37t-67 -47.5t-43.5 -42.5t-20 -27z" />
<glyph unicode="&#xff;" horiz-adv-x="1024" d="M-66 -485l39 268l60 4l-25 -233q56 -25 121 -25q66 0 118 27.5t85.5 70.5t59 109t39.5 127t26 141l-293 952l-137 2l6 66h209l280 -936q327 509 467 866l-127 7l6 63h213l-2 -43q-127 -349 -536 -973q-14 -108 -42.5 -199t-76.5 -171.5t-125 -126.5t-176 -46 q-58 0 -105.5 12.5t-65.5 24.5zM530 1305q0 20 13 36.5t43 16.5q45 0 45 -39q0 -20 -13.5 -36.5t-44.5 -16.5q-43 0 -43 39zM848 1305q0 21 14 37t43 16q45 0 45 -39q0 -18 -13.5 -35.5t-43.5 -17.5q-45 0 -45 39z" />
<glyph unicode="&#x152;" horiz-adv-x="2250" d="M162 561q0 367 205 579t548 212q187 0 316 -72t188 -207l41 258h699l77 4l-2 -4h2l-34 -260h-72l20 191h-610l-76 -486q-4 -46 -8 -69h637l-10 -68h-637q-4 -13 -8 -43l-82 -526h676l43 211l65 -5l-47 -276h-838l43 281q-103 -145 -256.5 -224.5t-339.5 -79.5 q-254 0 -397 158.5t-143 425.5zM254 563q0 -234 122 -373t339 -139q240 0 410.5 156.5t226.5 423.5l16 106q4 58 4 84q0 220 -122.5 338.5t-342.5 118.5q-297 0 -475 -190.5t-178 -524.5z" />
<glyph unicode="&#x153;" horiz-adv-x="1902" d="M106 408q0 292 147 465.5t423 173.5q160 0 258 -71t131 -202q73 126 193 199.5t272 73.5q158 0 250 -73.5t92 -197.5q0 -88 -44.5 -145t-146.5 -90t-245 -45.5t-363 -12.5q-3 -21 -16 -80q1 -169 99.5 -264.5t254.5 -95.5q66 0 124.5 15.5t95.5 37.5t64 44t39 38l11 15 l45 -33q-4 -7 -13 -19.5t-42.5 -44t-74 -55.5t-110.5 -44t-149 -20q-151 0 -258 71t-148 202q-71 -129 -194 -201t-291 -72q-199 0 -301.5 114.5t-102.5 316.5zM195 406q0 -172 82 -268.5t243 -96.5q182 0 297 102t156 285q0 90 20 166v35q0 169 -82 261.5t-245 92.5 q-229 0 -350 -154t-121 -423zM1079 541q398 0 557.5 47.5t159.5 183.5q0 95 -73 153t-203 58q-162 0 -277.5 -102t-159.5 -267q0 -27 -4 -73z" />
<glyph unicode="&#x178;" horiz-adv-x="1261" d="M53 1270l6 61h424l-6 -61l-139 -2l338 -623l528 621l-135 2l8 63h412l-12 -65l-183 -4l-585 -691l-80 -503l166 -2l-11 -66h-419l6 66l168 2l79 503l-380 697zM643 1581q0 20 12.5 36.5t42.5 16.5q45 0 45 -39q0 -20 -13 -36.5t-44 -16.5q-43 0 -43 39zM961 1581 q0 21 14 37t43 16q45 0 45 -39q0 -18 -13.5 -35.5t-43.5 -17.5q-45 0 -45 39z" />
<glyph unicode="&#x2c6;" horiz-adv-x="768" d="M219 1288l309 221h52l235 -221l-35 -51l-235 213l-303 -213z" />
<glyph unicode="&#x2dc;" horiz-adv-x="892" d="M250 1303q2 3 6.5 9t21.5 20t36 25t51 20t67 9q58 0 120 -25t120.5 -50t107.5 -25q39 0 73 11t48 23l14 11l7 -47q-2 -3 -5.5 -7t-17 -15t-29.5 -19t-43.5 -15t-58.5 -7q-56 0 -118 24.5t-122.5 49t-111.5 24.5q-43 0 -84 -17t-60 -34l-20 -17z" />
<glyph unicode="&#x2000;" horiz-adv-x="938" />
<glyph unicode="&#x2001;" horiz-adv-x="1876" />
<glyph unicode="&#x2002;" horiz-adv-x="938" />
<glyph unicode="&#x2003;" horiz-adv-x="1876" />
<glyph unicode="&#x2004;" horiz-adv-x="625" />
<glyph unicode="&#x2005;" horiz-adv-x="469" />
<glyph unicode="&#x2006;" horiz-adv-x="312" />
<glyph unicode="&#x2007;" horiz-adv-x="312" />
<glyph unicode="&#x2008;" horiz-adv-x="234" />
<glyph unicode="&#x2009;" horiz-adv-x="375" />
<glyph unicode="&#x200a;" horiz-adv-x="104" />
<glyph unicode="&#x2010;" horiz-adv-x="653" d="M109 539l6 67h485l-10 -67h-481z" />
<glyph unicode="&#x2011;" horiz-adv-x="653" d="M109 539l6 67h485l-10 -67h-481z" />
<glyph unicode="&#x2012;" horiz-adv-x="653" d="M109 539l6 67h485l-10 -67h-481z" />
<glyph unicode="&#x2013;" horiz-adv-x="1034" d="M109 539l6 67h866l-8 -67h-864z" />
<glyph unicode="&#x2014;" horiz-adv-x="1400" d="M109 539l6 67h1233l-13 -67h-1226z" />
<glyph unicode="&#x2018;" horiz-adv-x="276" d="M178 1155q0 82 71 207t167 188l26 -28q-83 -57 -140 -160t-62 -174q19 0 34 -9t15 -30q0 -23 -16.5 -39t-43.5 -16q-51 0 -51 61z" />
<glyph unicode="&#x2019;" horiz-adv-x="278" d="M96 1108q84 59 141 161t60 173q-25 0 -36 13t-11 28q0 23 16 39t43 16q49 0 49 -63q0 -83 -69 -208.5t-164 -187.5z" />
<glyph unicode="&#x201a;" horiz-adv-x="278" d="M-121 -297q83 59 140.5 161.5t60.5 172.5h-6q-16 0 -28.5 11.5t-12.5 29.5q0 23 16 39t43 16q49 0 49 -61q0 -83 -69.5 -208.5t-163.5 -189.5z" />
<glyph unicode="&#x201c;" horiz-adv-x="575" d="M178 1155q0 82 71 207t167 188l26 -28q-83 -57 -140 -160t-62 -174q19 0 34 -9t15 -30q0 -23 -16.5 -39t-43.5 -16q-51 0 -51 61zM475 1155q0 82 71 207t167 188l26 -28q-83 -57 -140 -160t-62 -174q19 0 34 -9t15 -30q0 -23 -16.5 -39t-43.5 -16q-51 0 -51 61z" />
<glyph unicode="&#x201d;" horiz-adv-x="575" d="M96 1108q84 59 141 161t60 173q-25 0 -36 13t-11 28q0 23 16 39t43 16q49 0 49 -63q0 -83 -69 -208.5t-164 -187.5zM393 1108q84 59 141 161t60 173q-25 0 -36 13t-11 28q0 23 16 39t43 16q49 0 49 -63q0 -83 -69 -208.5t-164 -187.5z" />
<glyph unicode="&#x201e;" horiz-adv-x="575" d="M-121 -297q83 59 140.5 161.5t60.5 172.5h-6q-16 0 -28.5 11.5t-12.5 29.5q0 23 16 39t43 16q49 0 49 -61q0 -83 -69.5 -208.5t-163.5 -189.5zM176 -297q83 59 140.5 161.5t60.5 172.5h-6q-16 0 -28.5 11.5t-12.5 29.5q0 23 16 39t43 16q49 0 49 -61q0 -83 -69.5 -208.5 t-163.5 -189.5z" />
<glyph unicode="&#x2022;" horiz-adv-x="598" d="M211 631q0 34 15 60.5t37.5 39.5t43.5 19t39 6q37 0 70 -20.5t33 -67.5q0 -56 -39.5 -91.5t-96.5 -35.5q-39 0 -70.5 21t-31.5 69z" />
<glyph unicode="&#x2026;" horiz-adv-x="1366" d="M133 37q0 25 19 43t49 18q23 0 37 -12.5t14 -32.5q0 -27 -20.5 -45t-47.5 -18q-23 0 -37 12.5t-14 34.5zM565 37q0 25 19 43t49 18q23 0 37 -12.5t14 -32.5q0 -27 -20.5 -45t-47.5 -18q-23 0 -37 12.5t-14 34.5zM999 37q0 25 19 43t49 18q23 0 37 -12.5t14 -32.5 q0 -27 -20 -45t-47 -18q-23 0 -37.5 12.5t-14.5 34.5z" />
<glyph unicode="&#x202f;" horiz-adv-x="375" />
<glyph unicode="&#x2039;" horiz-adv-x="720" d="M221 512l385 332l29 -41l-334 -293l244 -299l-43 -43z" />
<glyph unicode="&#x203a;" horiz-adv-x="718" d="M119 209l334 291l-242 301l41 43l280 -344l-382 -332z" />
<glyph unicode="&#x205f;" horiz-adv-x="469" />
<glyph unicode="&#x20ac;" horiz-adv-x="1353" d="M129 477l6 58h148q0 125 20 225l-129 2l6 57h135q61 252 228 392.5t422 140.5q185 0 297 -117l26 100h51l-34 -256h-64l8 86q-85 119 -276 119q-225 0 -370.5 -118.5t-201.5 -346.5h641l-6 -59h-647q-18 -105 -18 -225h628l-8 -60h-620q12 -206 134.5 -318t334.5 -112 q80 0 151.5 18.5t116 45t77 53t46.5 44.5l14 19l35 -43q-5 -8 -16 -22t-51.5 -49.5t-88.5 -62.5t-129.5 -49t-173.5 -22q-247 0 -386.5 132t-151.5 366z" />
<glyph unicode="&#x2122;" horiz-adv-x="1720" d="M315 1485l9 51h626l-8 -51h-311l-103 -666h-55l105 666h-263zM901 819l148 717h59l168 -662l391 662h57l-86 -717h-53l70 611l-365 -611h-47l-168 629l-123 -629h-51z" />
<glyph unicode="&#x25fc;" horiz-adv-x="1024" d="M0 0v1024h1024v-1024h-1024z" />
</font>
</defs>
</svg>
