<?xml version="1.0" standalone="no"?>
<!DOCTYPE svg PUBLIC "-//W3C//DTD SVG 1.1//EN" "http://www.w3.org/Graphics/SVG/1.1/DTD/svg11.dtd" >
<svg xmlns="http://www.w3.org/2000/svg">
<metadata></metadata>
<defs>
<font id="bandera_probold_italic" horiz-adv-x="761" >
<font-face units-per-em="2048" ascent="1536" descent="-512" />
<missing-glyph horiz-adv-x="600" />
<glyph unicode="&#xfb01;" horiz-adv-x="1374" d="M-295 -498l109 228q68 -23 129 -23q53 0 96 63t61 177l133 850h-108l14 213l131 12l23 147q14 91 45 161t86 126.5t144.5 86.5t209.5 30q81 0 291 -68l12 45h209l-41 -370h-202v114q-180 62 -236 62q-108 0 -154.5 -49.5t-66.5 -167.5l-19 -115h301l-32 -227h-305 l-134 -850q-20 -126 -68 -224.5t-112 -156.5t-135.5 -87.5t-146.5 -29.5q-82 0 -140.5 13.5t-76.5 26.5zM891 109q0 10 4 38l100 652l-100 12l16 213h422l-116 -739q-2 -68 32 -68l88 4l-12 -201q-146 -38 -283 -38q-151 0 -151 127z" />
<glyph unicode="&#xfb02;" horiz-adv-x="1386" d="M-295 -498l109 228q68 -23 129 -23q53 0 96 63t61 177l133 850h-108l14 213l131 12l23 147q14 91 45 161t86 126.5t144.5 86.5t209.5 30q84 0 338 -84l8 47h303l-194 -1257q0 -62 33 -62l86 4l-13 -201q-143 -38 -282 -38q-152 0 -152 127q0 10 4 38l176 1135 q-214 74 -274 74q-108 0 -154.5 -49.5t-66.5 -167.5l-19 -115h301l-32 -227h-305l-134 -850q-20 -126 -68 -224.5t-112 -156.5t-135.5 -87.5t-146.5 -29.5q-82 0 -140.5 13.5t-76.5 26.5z" />
<glyph unicode="&#xfb03;" horiz-adv-x="2189" d="M-266 -498l108 228q68 -23 129 -23q53 0 96.5 63t61.5 177l133 850h-108l14 213l131 12l23 147q14 91 45 161t86.5 126.5t145 86.5t208.5 30q96 0 432 -117q123 117 354 117q81 0 291 -68l12 45h209l-41 -370h-202v114q-180 62 -234 62q-109 0 -155.5 -49t-67.5 -168 l-19 -115h302l-31 -227h-305l-133 -850q-20 -126 -68.5 -224.5t-113 -156.5t-136 -87.5t-145.5 -29.5q-83 0 -142 13.5t-76 26.5l-18 13l109 228q68 -23 129 -23q53 0 96.5 63t63.5 177l131 850h-109l16 213l129 12l23 147q12 74 22 107q-221 80 -288 80q-109 0 -156 -49 t-68 -168l-18 -115h301l-31 -227h-305l-133 -850q-20 -126 -68.5 -224.5t-113 -156.5t-136 -87.5t-145.5 -29.5q-83 0 -141.5 13.5t-75.5 26.5zM1706 109q0 10 4 38l100 652l-100 12l16 213h422l-116 -739q-2 -68 32 -68l88 4l-12 -201q-145 -38 -282 -38q-152 0 -152 127z " />
<glyph unicode="&#xfb04;" horiz-adv-x="2203" d="M-266 -498l108 228q68 -23 129 -23q53 0 96.5 63t61.5 177l133 850h-108l14 213l131 12l23 147q14 91 45 161t86.5 126.5t145 86.5t208.5 30q120 0 426 -123q123 123 360 123q94 0 340 -86l9 49h301l-195 -1257q0 -62 33 -62l88 4l-12 -201q-146 -38 -283 -38 q-152 0 -152 122q0 15 4 43l177 1135q-214 74 -275 74q-109 0 -155.5 -49t-67.5 -168l-19 -115h302l-31 -227h-305l-133 -850q-20 -126 -68.5 -224.5t-113 -156.5t-136 -87.5t-145.5 -29.5q-83 0 -142 13.5t-76 26.5l-18 13l109 228q68 -23 129 -23q53 0 96.5 63t63.5 175v2 l131 850h-109l16 213l129 12l23 147q6 49 22 103q-211 84 -288 84q-109 0 -156 -49t-68 -168l-18 -115h301l-31 -227h-305l-133 -850q-20 -126 -68.5 -224.5t-113 -156.5t-136 -87.5t-145.5 -29.5q-83 0 -141.5 13.5t-75.5 26.5z" />
<glyph horiz-adv-x="0" />
<glyph horiz-adv-x="682" />
<glyph unicode=" "  horiz-adv-x="600" />
<glyph unicode="&#x09;" horiz-adv-x="600" />
<glyph unicode="&#xa0;" horiz-adv-x="600" />
<glyph unicode="!" horiz-adv-x="757" d="M164 109q0 72 57.5 130t149.5 58q72 0 115.5 -39t43.5 -104q0 -74 -58.5 -130.5t-147.5 -56.5q-72 0 -116 39.5t-44 102.5zM281 473l96 897l26 166h320l-27 -166l-182 -897h-233z" />
<glyph unicode="&#x22;" horiz-adv-x="903" d="M168 1014l74 516l276 -2l-143 -514h-207zM610 1014l74 516l277 -2l-144 -514h-207z" />
<glyph unicode="#" horiz-adv-x="1198" d="M96 381l27 186h205l75 195h-249l28 186h295l109 277l166 -47l-90 -230h172l98 252l162 -47l-80 -205h166l-27 -186h-213l-76 -195h258l-26 -186h-303l-109 -279l-162 48l90 231h-176l-98 -252l-164 47l80 205h-158zM510 567h174l76 195h-172z" />
<glyph unicode="$" horiz-adv-x="993" d="M84 152l16 305l187 14v-145q82 -21 155 -21q92 0 140.5 36t48.5 93q0 28 -25 52t-65.5 43t-89.5 39t-97.5 46.5t-89 59t-65.5 83.5t-25 113q0 139 86.5 220.5t228.5 103.5l46 240h213l-21 -263q29 -11 98 -49l33 56h150l-33 -328h-187l-8 94q-76 53 -166 53 q-59 0 -96 -24t-37 -66q0 -31 26 -56t67 -44t91.5 -38.5t100.5 -44t91 -54.5t67 -77t26 -106q0 -143 -88.5 -242.5t-275.5 -131.5l-39 -215h-215l16 202q-74 4 -140 17t-95 24z" />
<glyph unicode="%" horiz-adv-x="2013" d="M156 881q0 215 130.5 351t348.5 136q165 0 258.5 -96t93.5 -254q0 -208 -129.5 -344.5t-349.5 -136.5q-172 0 -262 93.5t-90 250.5zM403 887q0 -66 33.5 -105t100.5 -39q93 0 148.5 71t55.5 202q0 69 -33.5 108t-101.5 39q-95 0 -149 -70t-54 -206zM504 16l837 1284 l215 -40l-837 -1285zM1110 305q0 215 130.5 351.5t348.5 136.5q165 0 259 -96.5t94 -254.5q0 -208 -130 -344.5t-350 -136.5q-172 0 -262 93.5t-90 250.5zM1358 311q0 -66 33 -104.5t100 -38.5q93 0 149 71t56 201q0 69 -33.5 108.5t-101.5 39.5q-95 0 -149 -70.5 t-54 -206.5z" />
<glyph unicode="&#x26;" horiz-adv-x="1486" d="M70 328q0 77 26 141t72.5 108.5t100.5 74.5t120 50q-131 101 -131 263q0 179 115.5 290t298.5 111q111 0 215 -74l33 54h163l-51 -359h-213l10 125q-45 31 -94 31q-186 0 -186 -217q0 -67 38 -106.5t93 -39.5h293l112 244h170l-38 -244h264l-29 -207h-268l-37 -231 q-4 -36 -4 -53q0 -54 23.5 -79.5t74.5 -25.5q33 0 67.5 4t53.5 8l18 3l-28 -199q-6 -4 -18.5 -10.5t-68.5 -17.5t-132 -11q-199 0 -256 125q-163 -125 -377 -125q-111 0 -195.5 29.5t-134.5 80.5t-75 116t-25 141zM385 367q0 -78 52.5 -130.5t156.5 -52.5q172 0 266 146 q0 1 2.5 18t6 40t8 52t11.5 64.5t15 68.5h-285q-47 -1 -85.5 -11t-73.5 -32.5t-54.5 -64t-19.5 -98.5z" />
<glyph unicode="'" horiz-adv-x="460" d="M168 1014l74 516l276 -2l-143 -514h-207z" />
<glyph unicode="(" horiz-adv-x="821" d="M193 279q0 138 22 278q22 138 60 266t82 222t92.5 175t92 135t79 92.5t56.5 55.5l21 17l203 -93q-9 -9 -23.5 -26t-57 -75.5t-81 -123.5t-86 -168.5t-81 -212t-57 -252t-23.5 -290.5q0 -108 14.5 -207.5t35 -165t40.5 -115.5t34 -73l15 -23l-225 -90q-9 8 -23 24.5 t-51 76.5t-65 130.5t-51 190t-23 252.5z" />
<glyph unicode=")" horiz-adv-x="821" d="M-29 -305q12 12 33 36t77.5 107.5t104 177t98 243t74.5 308.5q23 141 23 273q0 108 -14.5 208.5t-35.5 166.5t-41.5 116t-35.5 73l-14 23l227 93q9 -8 23 -24.5t51 -76.5t65 -130.5t51 -190t23 -252.5q0 -132 -23 -279q-21 -138 -59.5 -266t-82.5 -222t-92.5 -175 t-92.5 -134.5t-80 -92t-57 -55.5l-21 -17z" />
<glyph unicode="*" horiz-adv-x="946" d="M115 1028l125 264l266 -168l-10 340h280l-119 -336l322 164l49 -264l-344 -43l211 -240l-248 -163l-96 307l-193 -307l-200 163l284 236z" />
<glyph unicode="+" horiz-adv-x="1048" d="M74 453l16 221h365l51 342h231l-51 -342h340l-31 -221h-344l-51 -344h-231l51 344h-346z" />
<glyph unicode="," horiz-adv-x="604" d="M-2 -256q164 151 174 297q-42 13 -61 47t-19 66q0 65 50.5 113t127.5 48q43 0 74.5 -17t47.5 -46t23 -58t7 -61q0 -124 -85 -265.5t-208 -217.5z" />
<glyph unicode="-" d="M76 453l16 221h647l-30 -221h-633z" />
<glyph unicode="." horiz-adv-x="673" d="M109 109q0 73 57 130.5t149 57.5q72 0 116 -39.5t44 -103.5q0 -74 -59 -130.5t-148 -56.5q-72 0 -115.5 39.5t-43.5 102.5z" />
<glyph unicode="/" horiz-adv-x="1054" d="M-166 -512l1186 2048h272l-1181 -2048h-277z" />
<glyph unicode="0" horiz-adv-x="1345" d="M125 516q0 146 21.5 269t73 232t130 185t198.5 120t273 44q488 0 488 -485q0 -78 -17 -197q-25 -163 -77.5 -292t-135 -227t-203 -151t-272.5 -53q-125 0 -218.5 40.5t-150 115.5t-83.5 174.5t-27 224.5zM438 465q0 -138 49.5 -211.5t147.5 -73.5q136 0 212.5 121.5 t117.5 382.5q22 141 22 227q0 127 -46.5 182.5t-149.5 55.5q-65 0 -116.5 -19t-97 -66.5t-75.5 -124.5t-47 -196.5t-17 -277.5z" />
<glyph unicode="1" horiz-adv-x="917" d="M158 0l14 211l193 12l133 852l-250 -98l-47 205l385 149h250l-174 -1122l106 -8l-41 -201h-569z" />
<glyph unicode="2" horiz-adv-x="1124" d="M12 0l35 246q16 5 90 50t184.5 125.5t213 172.5t176 203.5t73.5 206.5q0 66 -39 96t-127 30q-101 0 -198 -59l-31 -119h-211l72 394h166l16 -66q172 86 320 86q176 0 272 -92t96 -246q0 -89 -42 -182.5t-107 -172t-156.5 -159t-176.5 -140.5t-181 -118h360l37 104 l199 -14l-68 -346h-973z" />
<glyph unicode="3" horiz-adv-x="1142" d="M59 27l31 317l201 14l2 -149q82 -19 156 -19q307 0 307 250q0 61 -43 100.5t-123 39.5q-28 0 -62 -14t-52 -25.5t-23 -16.5l-113 140l416 415h-320l-33 -112h-198l71 379l236 -15h635l-23 -172l-395 -375q146 -8 241 -98.5t95 -236.5q0 -154 -80.5 -265.5t-220 -167 t-322.5 -55.5q-102 0 -197.5 16.5t-140.5 32.5z" />
<glyph unicode="4" horiz-adv-x="1249" d="M72 360l10 177q117 157 251.5 388t217.5 439l278 -33q-152 -359 -430 -753h355l32 196l97 356h256l-86 -552h147l-24 -201l-156 -17l-27 -163l109 -11l-39 -186h-531l15 197l147 12l25 151h-647z" />
<glyph unicode="5" horiz-adv-x="1132" d="M59 27l33 315l201 14v-147q65 -19 160 -19q140 0 219.5 74.5t79.5 198.5q0 78 -61 127t-165 49q-127 0 -182 -55l-143 20l190 727h549l25 66l198 -15l-59 -317l-254 14h-283l-65 -239q38 6 80 6q225 0 353 -93.5t128 -265.5q0 -129 -49 -231t-134 -165.5t-196 -96.5 t-240 -33q-121 0 -217 16.5t-132 32.5z" />
<glyph unicode="6" horiz-adv-x="1226" d="M109 446q0 57 11.5 131.5t36.5 162.5t61 175.5t88.5 169t114.5 144t144 100t172 37.5q109 0 219 -80l39 60h166l-39 -359h-213l2 107q-73 53 -153 53q-229 0 -314 -346q146 73 293 73q199 0 313.5 -80t114.5 -253q0 -115 -41 -219.5t-116 -185t-190 -128t-253 -47.5 q-217 0 -336.5 124.5t-119.5 360.5zM412 375q0 -207 182 -207q60 0 108 29t76 70.5t46.5 92t25 90t6.5 68.5q0 166 -182 166q-84 0 -143 -34t-87 -79q-13 -28 -22.5 -84t-9.5 -112z" />
<glyph unicode="7" horiz-adv-x="1042" d="M123 950l72 396l235 -15h727l-33 -241q-165 -221 -330.5 -511.5t-293.5 -578.5h-346q218 479 630 1067h-432l-33 -117h-196z" />
<glyph unicode="8" horiz-adv-x="1243" d="M66 295q0 250 313 381q-182 87 -182 274q0 129 74.5 224t203.5 143.5t295 48.5q212 0 337.5 -86.5t125.5 -239.5q0 -240 -289 -360q219 -78 219 -283q0 -112 -42.5 -196t-123 -136.5t-191 -78t-251.5 -25.5q-489 0 -489 334zM397 313q0 -78 48.5 -119.5t136.5 -41.5 q118 0 183.5 65t65.5 182q0 36 -12 65.5t-30 48.5t-43.5 33t-49 21t-49.5 11q-31 -4 -60.5 -12.5t-65 -28.5t-62 -48t-44.5 -73.5t-18 -102.5zM512 944q0 -45 17 -79.5t45.5 -54t57 -30.5t60.5 -16q30 7 57 17.5t58.5 31.5t54 48.5t38 71.5t15.5 97q0 148 -170 148 q-114 0 -173.5 -60.5t-59.5 -173.5z" />
<glyph unicode="9" horiz-adv-x="1226" d="M104 4l37 338l203 14v-161q73 -13 154 -13q127 0 223.5 88t140.5 262q-121 -88 -293 -88q-194 0 -308 96.5t-114 282.5q0 244 169.5 393.5t439.5 149.5q450 0 450 -440q0 -122 -45 -297q-82 -339 -260.5 -503.5t-421.5 -164.5q-96 0 -189 10.5t-138 21.5l-46 11h-2z M457 827q0 -84 43 -138t133 -54q82 0 139 28.5t88 65.5q47 129 47 252q0 91 -43 135.5t-137 44.5q-125 0 -197.5 -94t-72.5 -240z" />
<glyph unicode=":" horiz-adv-x="675" d="M109 109q0 73 57 130.5t149 57.5q72 0 116 -39.5t44 -103.5q0 -74 -59 -130.5t-148 -56.5q-72 0 -115.5 39.5t-43.5 102.5zM223 827q0 73 57.5 131t149.5 58q72 0 116 -39.5t44 -104.5q0 -73 -59 -129.5t-148 -56.5q-72 0 -116 39t-44 102z" />
<glyph unicode=";" horiz-adv-x="673" d="M39 -256q164 151 174 297q-42 13 -61 47t-19 66q0 65 50.5 113t127.5 48q43 0 74.5 -17t47.5 -46t23 -58t7 -61q0 -124 -85 -265.5t-208 -217.5zM223 827q0 73 57.5 131t149.5 58q72 0 116 -39.5t44 -104.5q0 -73 -59 -129.5t-148 -56.5q-72 0 -116 39t-44 102z" />
<glyph unicode="&#x3c;" horiz-adv-x="872" d="M145 647l633 461l113 -135l-459 -328l356 -326l-149 -135z" />
<glyph unicode="=" horiz-adv-x="1210" d="M41 231l16 222h1098l-31 -222h-1083zM106 674l17 221h1098l-31 -221h-1084z" />
<glyph unicode="&#x3e;" horiz-adv-x="872" d="M59 319l455 328l-354 326l149 135l496 -461l-635 -463z" />
<glyph unicode="?" horiz-adv-x="1026" d="M174 109q0 72 57.5 130t149.5 58q72 0 116 -39.5t44 -103.5q0 -74 -59 -130.5t-148 -56.5q-72 0 -116 39.5t-44 102.5zM195 1171l67 379h166l16 -63q164 86 285 86q150 0 250 -86t100 -225q0 -92 -32.5 -165t-84 -120.5t-114 -87t-124.5 -75t-113.5 -74t-84 -94 t-32.5 -124.5q0 -15 4 -51l-168 -14q-17 80 -17 129q0 76 25.5 138t66 103.5t89 77t97.5 66.5t89.5 64t66 78t25.5 99q0 58 -43 94.5t-123 36.5q-95 0 -172 -55l-31 -117h-208z" />
<glyph unicode="@" horiz-adv-x="2011" d="M86 240q0 248 68.5 444t203.5 336.5t346 215.5t486 75q363 0 567.5 -163t204.5 -446q0 -362 -152.5 -550.5t-410.5 -188.5q-188 0 -232 84q-103 -86 -254 -86q-154 0 -242.5 95.5t-88.5 271.5q0 156 66.5 273t178.5 177t252 60q129 0 213 -70l41 33h129l-90 -570 q-2 -12 -2 -30q0 -68 70 -68q38 0 73.5 13t74.5 50t67 95.5t46.5 159t18.5 231.5q0 210 -139 319t-403 109q-194 0 -341.5 -46t-256.5 -143t-165.5 -258.5t-56.5 -383.5q0 -272 165.5 -430t445.5 -158q89 0 176 17t147.5 41t108.5 48t71 41l23 17l53 -187q-7 -8 -21.5 -21 t-67 -46.5t-115.5 -59t-169 -46.5t-225 -21q-211 0 -376 56.5t-271.5 159t-161.5 242t-55 308.5zM825 326q0 -89 42 -141t122 -52q68 0 112 36t64 77l54 354q-30 72 -138 72q-256 0 -256 -346z" />
<glyph unicode="A" horiz-adv-x="1474" d="M-53 0l16 213l146 10l571 1108h410l227 -1124l133 -6l-29 -201h-567l25 170l114 12l-41 183h-485l-90 -168l123 -15l-27 -182h-526zM565 559h353l-89 528h-2z" />
<glyph unicode="B" horiz-adv-x="1333" d="M23 0l16 213l158 10l139 897l-150 13l15 198h641q118 0 205.5 -23t138 -64t74.5 -92.5t24 -113.5q0 -188 -201 -321q87 -38 133 -104.5t46 -153.5q0 -92 -35.5 -172t-106.5 -145.5t-192 -103.5t-279 -38h-626zM475 221h189q147 0 219.5 61.5t72.5 174.5q0 64 -43 93.5 t-129 29.5h-254zM561 778h236q70 0 128 56t58 159q0 66 -46.5 92.5t-141.5 26.5h-183z" />
<glyph unicode="C" horiz-adv-x="1349" d="M111 588q0 221 89.5 398t254 278.5t374.5 101.5q173 0 308 -104l53 84h178l-63 -525h-230l15 240q-103 63 -232 63q-190 0 -306 -135t-116 -411q0 -177 106 -274t269 -97q66 0 129.5 17t106.5 41t77 48t50 41l16 17l119 -160q-6 -10 -19 -27t-61 -60t-104.5 -76t-152 -60 t-202.5 -27q-301 0 -480 171t-179 456z" />
<glyph unicode="D" horiz-adv-x="1554" d="M23 0l16 213l158 12l139 895l-150 13l15 198h667q318 0 493 -132.5t175 -393.5q0 -183 -54 -330.5t-158 -253.5t-264 -163.5t-366 -57.5h-671zM514 246h217q229 0 353 133.5t124 417.5q0 288 -372 288h-191z" />
<glyph unicode="E" horiz-adv-x="1263" d="M23 0l16 213l158 12l139 895l-150 13l15 198h813l270 15l-41 -377h-244l5 129h-359l-49 -316l532 2l-32 -225h-535l-51 -326h399l47 148l224 -14l-70 -367h-1087z" />
<glyph unicode="F" horiz-adv-x="1177" d="M23 0l16 213l158 12l139 895l-150 13l15 198h833l271 15l-45 -377h-242l6 129h-377l-53 -342l528 2l-30 -228h-533l-49 -321l190 -8l-43 -201h-634z" />
<glyph unicode="G" horiz-adv-x="1456" d="M109 559q0 186 57 338.5t157.5 254.5t239.5 158t303 56q140 0 279 -96l43 76h180l-53 -463h-230l9 182q-83 59 -211 59q-225 0 -336 -126t-111 -406q0 -179 91 -282t237 -103q58 0 106.5 11.5t77.5 27.5t51.5 37.5t32 37t15.5 31.5l18 123h-242l29 197h510l-102 -672 h-179l-12 80q-141 -119 -389 -119q-175 0 -305.5 77t-198 212t-67.5 309z" />
<glyph unicode="H" horiz-adv-x="1622" d="M23 0l16 213l158 12l139 895l-150 13l15 198h624l-28 -213l-148 -12l-51 -328h543l51 328l-148 12l15 213h627l-33 -213l-146 -12l-139 -897l150 -8l-27 -201h-608l16 213l158 12l49 328h-543l-51 -330l150 -10l-31 -213h-608z" />
<glyph unicode="I" d="M23 0l16 213l158 12l139 895l-150 13l15 198h624l-28 -213l-148 -12l-139 -897l149 -8l-28 -201h-608z" />
<glyph unicode="J" horiz-adv-x="972" d="M-14 18l22 355l217 14l-4 -186q34 -11 82 -11q71 0 117 52t67 180l111 698l-184 13l14 198h625l-31 -213l-113 -12l-104 -684q-20 -130 -59.5 -219.5t-103 -142.5t-144.5 -76t-191 -23q-98 0 -178.5 14.5t-111.5 28.5z" />
<glyph unicode="K" horiz-adv-x="1517" d="M23 0l16 213l158 12l139 895l-150 13l15 198h596l-27 -184l-117 -12l-59 -381l137 57l328 332l-37 6l25 182h555l-31 -213l-236 -10l-385 -387l316 -502l223 -6l-31 -213h-440l-78 72l-262 458l-129 -69l-37 -238l150 -10l-31 -213h-608z" />
<glyph unicode="L" horiz-adv-x="1161" d="M23 0l16 213l158 10l139 897l-150 13l15 198h624l-28 -213l-148 -12l-135 -873h363l49 162l227 -12l-74 -383h-1056z" />
<glyph unicode="M" horiz-adv-x="2117" d="M23 0l16 213l158 12l141 895l-148 13l15 198h571l271 -1001h10l581 1001h541l-31 -213l-147 -12l-133 -883l149 -10l-28 -213h-570l15 184l129 13l112 706h-8l-532 -903h-293l-242 903h-8l-117 -706l123 -15l-25 -182h-550z" />
<glyph unicode="N" horiz-adv-x="1644" d="M23 0l16 213l158 12l139 895l-150 13l15 198h493l477 -911h7l4 92l98 594l-154 16l15 209h596l-29 -213l-143 -12l-174 -1112l-316 -2l-493 893h-7l-6 -121l-90 -541l152 -14l-29 -209h-579z" />
<glyph unicode="O" horiz-adv-x="1544" d="M111 580q0 362 214 574t595 212q293 0 448.5 -142t155.5 -397q0 -168 -55 -322t-156.5 -276t-260.5 -195t-352 -73q-143 0 -256.5 47.5t-185.5 131t-109.5 195.5t-37.5 245zM434 575q0 -162 77.5 -267t223.5 -105q85 0 156.5 30t120.5 81t86 113.5t57.5 131.5t30.5 130.5 t10 115.5q0 155 -79 237t-232 82q-216 0 -333.5 -142t-117.5 -407z" />
<glyph unicode="P" horiz-adv-x="1259" d="M23 0l16 213l158 12l139 895l-150 13l15 198h622q477 0 477 -352q0 -113 -38 -208.5t-100 -160t-142.5 -110t-164.5 -66t-167 -20.5h-170l-35 -217l187 -11l-25 -186h-622zM551 627h108q65 0 119.5 17t98 52t68 95.5t24.5 142.5q0 176 -230 176h-114z" />
<glyph unicode="Q" horiz-adv-x="1542" d="M111 580q0 362 214 574t595 212q294 0 450 -144.5t156 -406.5q0 -205 -76 -379.5t-224 -296t-345 -159.5q102 -123 258 -123q68 0 133 22l-6 -237q-80 -29 -172 -29q-163 0 -301 93t-197 263q-158 21 -269 107t-163.5 214.5t-52.5 289.5zM434 578q0 -105 32 -188.5 t101.5 -135t167.5 -51.5q141 0 247.5 80t160 213.5t53.5 298.5q0 156 -79.5 242.5t-231.5 86.5q-216 0 -333.5 -142t-117.5 -404z" />
<glyph unicode="R" horiz-adv-x="1349" d="M23 0l16 213l160 25l137 882l-150 13l15 198h624q229 0 352 -88t123 -258q0 -162 -89.5 -286t-231.5 -193l147 -289l197 -4l-29 -213h-399l-66 66l-159 370h-148l-37 -239l123 -11l-24 -186h-561zM557 664h119q297 0 297 288q0 83 -56.5 120.5t-177.5 37.5h-112z" />
<glyph unicode="S" horiz-adv-x="1173" d="M76 45l45 373l215 14l4 -219q100 -29 182 -29q138 0 206.5 50t68.5 128q0 38 -32 70.5t-83.5 58.5t-113.5 53.5t-124 62.5t-113.5 77.5t-83.5 106.5t-32 143q0 98 41 180t110.5 137t162.5 85t198 30q127 0 240 -92l49 72h180l-41 -390h-242l5 140q-61 53 -158 53 q-104 0 -167 -46.5t-63 -125.5q0 -36 25 -68t66 -54.5t93.5 -48t107.5 -49t107.5 -56.5t93.5 -70t66 -91.5t25 -119.5q0 -217 -157.5 -338t-432.5 -121q-82 0 -158.5 8.5t-126.5 21t-89 25t-56 20.5z" />
<glyph unicode="T" horiz-adv-x="1218" d="M84 942l70 404l268 -15h668l270 15l-47 -404h-228l2 156h-210l-136 -875l150 -10l-31 -213h-608l16 213l156 10l135 875h-207l-45 -156h-223z" />
<glyph unicode="U" horiz-adv-x="1519" d="M137 1133l15 198h622l-29 -198l-145 -13l-86 -553q-8 -49 -8 -102q0 -242 235 -242q148 0 230.5 92.5t107.5 251.5l84 539l-153 16l16 209h606l-28 -198l-148 -17l-94 -612q-14 -90 -45 -168.5t-85.5 -148t-128.5 -119t-178.5 -78.5t-230.5 -29q-135 0 -236 33.5 t-160 93.5t-87.5 136.5t-28.5 170.5q0 60 8 109l95 616z" />
<glyph unicode="V" horiz-adv-x="1411" d="M100 1130l15 201h581l-28 -198l-119 -13l145 -884h8l420 872l-125 14l15 209h559l-27 -198l-123 -11l-567 -1122h-410l-215 1120z" />
<glyph unicode="W" horiz-adv-x="2121" d="M100 1130l15 201h579l-26 -198l-119 -11l90 -770h4l424 979h326l129 -973h8l311 750l-133 14l14 209h559l-26 -198l-115 -11l-510 -1122h-327l-136 948h-4l-432 -948h-330l-172 1120z" />
<glyph unicode="X" horiz-adv-x="1464" d="M-47 0l16 213l226 10l387 439l-254 460l-203 11l14 198h606l-26 -198l-35 -5l129 -249l205 241l-29 2l31 209h559l-29 -213l-211 -8l-378 -436l258 -455l215 -6l-29 -213h-608l28 199l37 2l-131 254h-2l-203 -242l41 -2l-28 -211h-586z" />
<glyph unicode="Y" horiz-adv-x="1347" d="M78 1133l14 198h617l-27 -198l-74 -7l152 -346h2l248 338l-62 4l31 209h549l-31 -213l-182 -8l-451 -592l-45 -295l150 -10l-31 -213h-608l16 213l156 12l47 289l-287 610z" />
<glyph unicode="Z" horiz-adv-x="1298" d="M27 0l28 203l846 895h-430l-33 -129h-237l63 362l2 15l266 -15h805l-28 -205l-842 -893h475l47 148l225 -14l-71 -367h-1116z" />
<glyph unicode="[" horiz-adv-x="882" d="M102 -182l250 1638h684l-30 -207h-418l-189 -1224h416l-31 -207h-682z" />
<glyph unicode="\" horiz-adv-x="1054" d="M115 1536h272l551 -2048h-272z" />
<glyph unicode="]" horiz-adv-x="882" d="M-80 -182l29 207h420l188 1224h-414l29 205h684l-252 -1636h-684z" />
<glyph unicode="^" horiz-adv-x="823" d="M168 1087l401 343l297 -343l-137 -116l-194 231l-269 -231z" />
<glyph unicode="_" horiz-adv-x="1574" d="M-51 -367l16 222h1460l-30 -222h-1446z" />
<glyph unicode="`" horiz-adv-x="548" d="M47 1456l289 35l153 -301l-204 -19z" />
<glyph unicode="a" horiz-adv-x="1267" d="M70 420q0 282 163 461.5t418 179.5q56 0 105 -9t79 -22t51.5 -26t30.5 -22l9 -9h10l53 51h234l-109 -698q-6 -30 -6 -52q0 -31 10.5 -44t22.5 -13l88 4l-12 -201q-146 -38 -283 -38q-69 0 -100.5 25.5t-34.5 78.5h-6q-4 -5 -12 -13.5t-38 -30t-64.5 -38t-92 -30 t-121.5 -13.5q-181 0 -288 129t-107 330zM381 410q0 -108 52.5 -167t154.5 -59q43 0 84.5 14.5t69.5 36t44.5 37.5t24.5 27l74 473q-61 70 -178 70q-162 0 -244 -102.5t-82 -329.5z" />
<glyph unicode="b" horiz-adv-x="1241" d="M82 0l203 1311l-101 12l17 213h422l-88 -569h8q4 4 11.5 10t34.5 22.5t58.5 29t84.5 22.5t112 10q185 0 292 -112.5t107 -305.5q0 -133 -42 -256.5t-115 -218t-182 -151t-234 -56.5q-60 0 -113 10.5t-86.5 25.5t-58.5 30t-36 25l-11 11h-9l-43 -63h-231zM424 250 q8 -13 22.5 -26t56.5 -28.5t99 -15.5q87 0 152.5 38t104 104t57 147t18.5 176q0 102 -53.5 148.5t-161.5 46.5q-61 0 -113.5 -23.5t-73 -43t-32.5 -36.5z" />
<glyph unicode="c" horiz-adv-x="1019" d="M72 430q0 287 142.5 459t379.5 172q122 0 229 -82l35 59h184l-49 -415h-227l8 186q-43 43 -123 43q-61 0 -107.5 -20t-83.5 -66t-56 -128t-19 -198q0 -126 68 -196t168 -70q40 0 78 13t63.5 32t45 37.5t28.5 31.5l10 13l143 -100q-4 -10 -13 -26t-44.5 -57.5t-79.5 -73 t-121 -57.5t-166 -26q-223 0 -358 128.5t-135 340.5z" />
<glyph unicode="d" horiz-adv-x="1263" d="M70 420q0 138 40.5 256.5t113 203.5t178.5 133t231 48q56 0 105.5 -7.5t79 -18.5t51.5 -22t31 -19l9 -7h9l51 324l-103 12l17 213h420l-189 -1210q-6 -30 -6 -52q0 -31 10.5 -44t22.5 -13l88 4l-12 -201q-146 -38 -283 -38q-124 0 -133 90h-8q-4 -5 -12 -12t-38 -26.5 t-64.5 -34t-92 -26.5t-121.5 -12q-181 0 -288 129t-107 330zM381 410q0 -108 52.5 -167t154.5 -59q53 0 104 21t75.5 40t41.5 38l76 491q-12 13 -30 26.5t-59.5 27.5t-88.5 14q-162 0 -244 -102.5t-82 -329.5z" />
<glyph unicode="e" horiz-adv-x="1071" d="M72 414q0 185 82.5 334t222.5 231t309 82q175 0 288 -86.5t113 -229.5q0 -181 -166.5 -256.5t-553.5 -78.5q0 -115 67.5 -172.5t173.5 -57.5q48 0 91.5 12t71.5 28.5t49 33.5t30 29l10 12l148 -107q-5 -9 -14.5 -24.5t-47 -54.5t-83.5 -69t-127 -54.5t-175 -24.5 q-220 0 -354.5 118t-134.5 335zM383 590q168 0 263.5 15.5t134 46t38.5 83.5q0 52 -41.5 84.5t-122.5 32.5q-101 0 -172.5 -63.5t-99.5 -198.5z" />
<glyph unicode="f" horiz-adv-x="786" d="M33 -512l200 1309h-108l14 213l129 12v2q0 282 113 415.5t305 133.5q88 0 191 -62l24 39h166l-35 -340h-209l2 105q-46 41 -98 41q-80 0 -122.5 -75.5t-45.5 -256.5h313l-32 -227h-312l-200 -1309h-295z" />
<glyph unicode="g" horiz-adv-x="1247" d="M72 428q0 183 73.5 328t201.5 225t288 80q63 0 115 -11t80.5 -26.5t48.5 -31.5t27 -27l7 -11h15l37 70h258l-150 -965q2 -18 2 -53q0 -136 -49.5 -244t-134 -175t-193 -102.5t-231.5 -35.5q-120 0 -218.5 18.5t-137.5 36.5l-39 19l37 309l198 14v-168q95 -26 174 -26 q138 0 214.5 82.5t76.5 242.5q0 38 -2 58h-8q-12 -8 -36 -20.5t-101.5 -33t-161.5 -20.5q-185 0 -288 129t-103 338zM383 428q0 -254 215 -254q104 0 203 66l80 512q-9 17 -26.5 36t-61.5 39.5t-99 20.5q-73 0 -127.5 -21t-97 -68t-64.5 -130t-22 -201z" />
<glyph unicode="h" horiz-adv-x="1253" d="M82 0l203 1311l-99 12l13 213h422l-89 -569h11q5 4 13.5 10t39 22.5t64.5 29t88.5 22.5t111.5 10q324 0 324 -264q0 -37 -6 -84l-70 -447q2 -49 35 -49l86 4l-12 -201q-144 -38 -283 -38q-152 0 -152 124q0 13 4 41l84 517q4 28 4 41q0 58 -36 84t-119 26q-56 0 -111 -18 t-76 -31t-34 -23l-115 -743h-301z" />
<glyph unicode="i" horiz-adv-x="598" d="M117 109q0 10 4 38l100 652l-100 12l16 213h422l-117 -739v-7q0 -61 33 -61l88 4l-12 -201q-146 -38 -283 -38q-151 0 -151 127zM279 1311q0 26 9 54.5t29.5 59t62 50.5t97.5 20q62 0 107 -30.5t45 -104.5q0 -77 -52.5 -131.5t-144.5 -54.5q-70 0 -111.5 37t-41.5 100z " />
<glyph unicode="j" horiz-adv-x="587" d="M-285 -498l95 228q68 -23 129 -23q53 0 96 63t61 177l133 854l-100 10l18 213h418l-168 -1077q-20 -126 -68 -224.5t-112 -156.5t-135 -87.5t-145 -29.5q-83 0 -138.5 13.5t-69.5 26.5zM287 1311q0 26 9 54.5t29.5 59t62 50.5t97.5 20q62 0 107 -30.5t45 -104.5 q0 -77 -52.5 -131.5t-144.5 -54.5q-70 0 -111.5 37t-41.5 100z" />
<glyph unicode="k" horiz-adv-x="1159" d="M82 0l203 1311l-99 12l13 213h422l-89 -563q151 90 299 90q151 0 235.5 -72.5t84.5 -199.5q0 -243 -279 -371q98 -203 138 -203l98 2l-12 -201q-107 -36 -238 -36q-40 0 -76 23.5t-70.5 74.5t-63 107t-66.5 143q-115 -19 -152 -21l-47 -309h-301zM459 489q70 6 132 20 t126.5 41.5t102.5 76.5t38 114q0 55 -31 83t-88 28q-98 0 -243 -117z" />
<glyph unicode="l" horiz-adv-x="583" d="M100 109q0 10 4 38l181 1164l-101 12l17 213h422l-195 -1257q0 -33 10 -47.5t23 -14.5l86 4l-12 -201q-144 -38 -283 -38q-152 0 -152 127z" />
<glyph unicode="m" horiz-adv-x="1775" d="M98 0l123 799l-100 12l16 213h383l10 -76h2q4 5 12.5 12.5t36.5 27t60 34.5t83 27t105 12q191 0 256 -111h2q5 5 14 12t41 26.5t68 34t94.5 26.5t120.5 12q144 0 214.5 -58t70.5 -182q0 -48 -8 -92l-70 -461q2 -51 33 -51l86 4l-10 -201q-146 -38 -285 -38 q-149 0 -149 122q0 15 4 43h2l84 537q4 36 4 47q0 53 -27.5 71.5t-89.5 18.5q-90 0 -174 -65q0 -4 -1 -11t-1 -10l-113 -735h-301l109 684q4 36 4 47q0 53 -26.5 71.5t-86.5 18.5q-55 0 -103 -20.5t-73 -40.5l-119 -760h-301z" />
<glyph unicode="n" horiz-adv-x="1271" d="M98 0l123 799l-100 12l16 213h383l12 -72h3q4 4 12.5 11.5t39.5 26.5t67.5 33t96.5 26t126 12q161 0 243 -62.5t82 -195.5q0 -24 -8 -86l-68 -438q0 -62 33 -62l88 4l-12 -201q-146 -38 -283 -38q-151 0 -151 127q0 25 45 298.5t45 301.5q0 56 -36.5 81t-117.5 25 q-122 0 -223 -72l-115 -743h-301z" />
<glyph unicode="o" horiz-adv-x="1183" d="M72 424q0 295 167.5 466t471.5 171q230 0 352.5 -116t122.5 -327q0 -291 -178.5 -474t-466.5 -183q-227 0 -348 124t-121 339zM379 399q0 -107 47.5 -168t144.5 -61q145 0 225.5 116.5t80.5 344.5q0 105 -49.5 163t-147.5 58q-301 0 -301 -453z" />
<glyph unicode="p" horiz-adv-x="1251" d="M16 -512l205 1311l-100 12l16 213h379l10 -84h6q4 5 13 13t40 29t67 37t95 29t123 13q182 0 283.5 -110t101.5 -302q0 -135 -41.5 -260t-115 -220t-181 -151.5t-231.5 -56.5q-56 0 -105.5 7.5t-79 18.5t-51.5 22t-31 19l-9 7h-11l-84 -547h-299zM432 252q62 -72 180 -72 q158 0 245 118.5t87 352.5q0 105 -51.5 147t-159.5 42q-63 0 -119 -27t-81 -53l-25 -27z" />
<glyph unicode="q" horiz-adv-x="1249" d="M72 420q0 186 74.5 332.5t206.5 227.5t298 81q52 0 99.5 -9t78.5 -22t54.5 -26t34.5 -22l10 -9h8l57 51h230l-193 -1247v-15q0 -57 31 -57l88 4l-12 -201q-146 -38 -283 -38q-149 0 -149 127q0 10 4 38l65 435h-6l-11.5 -11.5t-34.5 -26.5t-59 -33t-85.5 -26t-112.5 -12 q-181 0 -287 129t-106 330zM381 408q0 -224 209 -224q45 0 84.5 11.5t66.5 30t41.5 31.5t24.5 26l76 489q-10 13 -27.5 26.5t-58 28.5t-88.5 15q-167 0 -247.5 -101t-80.5 -333z" />
<glyph unicode="r" horiz-adv-x="940" d="M90 811l16 213h383l15 -123h6q3 7 10 17.5t33 38t57 48.5t83.5 38.5t111.5 17.5q44 0 89 -9.5t68 -18.5l23 -9l-39 -387h-205l-12 190h-18q-46 0 -85.5 -15.5t-63 -39t-36 -40.5t-18.5 -30l-109 -702h-301l123 799z" />
<glyph unicode="s" horiz-adv-x="993" d="M61 12l17 305l186 15v-146q78 -20 156 -20q91 0 139.5 36t48.5 93q0 28 -25 52t-65.5 43t-89 39t-97 46.5t-89 59t-65.5 83.5t-25 113q0 162 115.5 246t293.5 84q118 0 242 -78l33 55h149l-33 -327h-186l-8 94q-76 53 -166 53q-59 0 -96 -24t-37 -66q0 -31 26 -56t67 -44 t91.5 -38.5t100.5 -44t91 -54.5t67 -77t26 -106q0 -83 -29.5 -151t-91.5 -122t-168.5 -84t-249.5 -30q-90 0 -172 12.5t-119 25.5z" />
<glyph unicode="t" horiz-adv-x="784" d="M106 797l17 213l129 10v2l96 342h258l-53 -340h266l-31 -227h-270l-67 -435q-7 -44 -7 -63q0 -48 22 -69t73 -21q34 0 69 4.5t54 8.5l18 5l-25 -192q-8 -6 -24 -16t-79 -26t-142 -16q-141 0 -210 52t-69 172q0 46 8 90l78 506h-111z" />
<glyph unicode="u" horiz-adv-x="1259" d="M98 811l19 213h420l-99 -618q-4 -36 -4 -52q0 -145 150 -145q59 0 114.5 18.5t81.5 36.5l25 19l80 516l-101 12l17 213h422l-115 -731v-17q0 -23 5.5 -37t11.5 -18t12 -4l88 4l-13 -201q-145 -38 -282 -38q-122 0 -131 88h-13q-4 -4 -13 -11.5t-40.5 -26.5t-67.5 -33 t-96.5 -26t-126.5 -12q-156 0 -237.5 79t-81.5 222q0 42 6 88l70 449z" />
<glyph unicode="v" horiz-adv-x="1122" d="M39 811l16 213h414l131 -709h12q144 177 273 478l-129 22l16 209h445q-118 -474 -586 -1024h-273l-180 801z" />
<glyph unicode="w" horiz-adv-x="1652" d="M31 811l16 213h385l60 -664h10l256 664h284l134 -664h10q127 187 217 431l-139 24l16 209h442q-92 -503 -497 -1024h-283l-90 643l-291 -643h-309l-102 803z" />
<glyph unicode="x" horiz-adv-x="1177" d="M16 0l21 135q15 23 153 173t238 249l-133 246l-201 8l6 213h416l170 -379h4q12 14 43 45.5t60.5 63t52.5 61.5l-66 14l4 195h408l-18 -135q-2 -10 -51 -73t-132.5 -160.5t-161.5 -178.5q60 -118 112.5 -189t80.5 -71l127 2l-10 -199q-138 -38 -275 -38q-138 0 -311 405 h-8q-96 -101 -150 -166l51 -10l-32 -211h-398z" />
<glyph unicode="y" horiz-adv-x="1136" d="M-82 -502l37 334l199 14v-190q24 -4 34 -4q48 0 83.5 25t58.5 75.5t37 110t24 143.5l-205 795l-139 10l16 213h402l153 -729h9q68 95 141.5 230.5t126.5 267.5l-127 22l16 209h406l-10 -139q-39 -139 -186.5 -393t-307.5 -472q-13 -160 -78 -288.5t-179.5 -205.5 t-258.5 -77q-79 0 -142 12.5t-86 24.5z" />
<glyph unicode="z" horiz-adv-x="1048" d="M-4 135l676 672h-295l-35 -127h-209l66 371l237 -27h627l-12 -195l-578 -585q209 -40 264 -47l51 165l209 -14l-71 -385q-118 0 -234.5 16.5t-229 38.5t-183.5 29l-136 -86z" />
<glyph unicode="{" horiz-adv-x="931" d="M229 481l33 217l2 17q32 0 68.5 9.5t73.5 28.5t61.5 55.5t24.5 84.5q0 35 -7.5 122.5t-7.5 129.5q0 76 13 131.5t49 106t98 82t163.5 49.5t241.5 18l-26 -203q-160 0 -223.5 -58t-63.5 -181q0 -40 7 -124.5t7 -123.5q0 -149 -141 -244q82 -70 82 -160q0 -48 -20 -106 t-43.5 -104.5t-43.5 -106t-20 -109.5q0 -72 54 -108.5t173 -36.5l-28 -205q-132 0 -223.5 17.5t-145 52t-77 82t-23.5 112.5q0 61 20 129t43.5 117t43.5 103t20 92q0 37 -33 64.5t-73.5 38.5t-78.5 11z" />
<glyph unicode="|" horiz-adv-x="788" d="M121 -512l317 2048h264l-315 -2048h-266z" />
<glyph unicode="}" horiz-adv-x="931" d="M-29 -338l29 205q158 0 221.5 58t63.5 181q0 40 -6.5 124.5t-6.5 123.5q0 145 140 244q-80 67 -80 160q0 48 19.5 106t43 104.5t43 106t19.5 109.5q0 72 -54 108.5t-172 36.5l29 203q173 0 278 -31.5t147 -87.5t42 -143q0 -61 -19.5 -129t-43 -117t-43 -103t-19.5 -92 q0 -54 60 -84t122 -30l-30 -217l-2 -17q-32 0 -68.5 -9.5t-73.5 -28.5t-61.5 -55.5t-24.5 -84.5q0 -35 6.5 -122.5t6.5 -129.5q0 -76 -13 -131.5t-49 -106.5t-98.5 -82.5t-164 -50t-241.5 -18.5z" />
<glyph unicode="~" horiz-adv-x="1388" d="M76 666q3 5 9 14.5t26.5 36.5t44.5 51t63.5 54t82 51.5t100.5 36t120 14.5q84 0 153.5 -16.5t118 -40.5t94.5 -48t104 -40.5t124 -16.5q34 0 65 8t51.5 19.5t36 23t22.5 19.5l7 8l101 -123q-6 -10 -16.5 -27t-48.5 -60.5t-81.5 -77t-113.5 -60.5t-146 -27 q-75 0 -139.5 16.5t-112.5 39.5t-95 46t-109.5 39.5t-133.5 16.5q-39 0 -75 -9.5t-59 -23.5t-40 -27.5t-25 -22.5l-7 -10z" />
<glyph unicode="&#xa1;" horiz-adv-x="757" d="M70 -512l26 166l183 897h235l-98 -897l-25 -166h-321zM264 868q0 73 57.5 131t149.5 58q72 0 116 -39.5t44 -104.5q0 -73 -59 -129.5t-148 -56.5q-72 0 -116 39t-44 102z" />
<glyph unicode="&#xa2;" horiz-adv-x="1019" d="M76 573q0 255 114 421.5t310 201.5l43 238h217l-23 -258q38 -16 90 -54l35 60h185l-50 -416h-227l8 186q-43 43 -123 43q-61 0 -107.5 -20t-83.5 -65.5t-56 -127.5t-19 -198q0 -126 68.5 -196.5t167.5 -70.5q40 0 78 13t63.5 31.5t45 37.5t28.5 32l10 13l143 -100 q-4 -8 -11.5 -22t-37.5 -50.5t-66.5 -66t-100.5 -58.5t-138 -38l-35 -211h-219l18 227q-153 43 -240 161t-87 287z" />
<glyph unicode="&#xa3;" horiz-adv-x="1230" d="M27 0l36 250h91q62 40 94 110t49 172l-186 5l16 219h192q6 94 21 198q28 190 145.5 301t298.5 111q120 0 232 -86l37 66h164l-35 -359h-213l2 98q-56 45 -125 45q-149 0 -176 -188l-29 -186h475l-31 -226h-487q-39 -176 -100 -280h456l41 110l199 -14l-68 -346h-1099z " />
<glyph unicode="&#xa4;" horiz-adv-x="1271" d="M68 258l247 178q-32 63 -32 156q0 147 88 262l-181 178l134 137l165 -204q114 71 246 71q123 0 213 -71l240 202l92 -135l-246 -178q35 -68 35 -156q0 -147 -92 -266l178 -176l-131 -135l-168 203q-112 -70 -242 -70q-124 0 -213 70l-241 -203zM477 608q0 -82 43.5 -128 t120.5 -46q101 0 169.5 68.5t68.5 181.5q0 80 -46.5 125t-121.5 45q-102 0 -168 -67t-66 -179z" />
<glyph unicode="&#xa5;" horiz-adv-x="1347" d="M78 1133l14 198h617l-27 -198l-74 -7l152 -346h2l248 338l-62 4l31 209h549l-31 -213l-182 -8l-256 -336h135l-23 -168h-241l-66 -88l-2 -12h295l-24 -170h-297l-17 -113l150 -10l-31 -213h-608l16 213l156 12l18 111h-289l11 170h305l2 8l-43 92h-238l11 168h147 l-164 350z" />
<glyph unicode="&#xa6;" horiz-adv-x="788" d="M121 -512l127 819h266l-127 -819h-266zM309 717l129 819h264l-127 -819h-266z" />
<glyph unicode="&#xa7;" horiz-adv-x="1171" d="M113 -104l34 337l211 15l11 -189q31 -4 104 -4q52 0 90 12t57 31.5t27 40.5t8 45q0 32 -27 56t-70 41.5t-95.5 35.5t-104.5 43t-95 57.5t-70 86.5t-27 123q0 160 166 286q-29 56 -29 123q0 136 107.5 233t294.5 97q104 0 227 -78l41 58h166l-37 -342h-223v110 q-52 41 -113 41q-77 0 -111 -37.5t-34 -83.5q0 -34 28 -61t73 -46.5t99.5 -38.5t108.5 -44t99 -56.5t73 -82.5t28 -115q0 -151 -172 -293q17 -39 17 -78q0 -64 -12.5 -116t-47 -101.5t-89.5 -83t-144.5 -54t-208.5 -20.5q-121 0 -211 13t-120 26zM422 664q0 -38 24.5 -67 t69.5 -50.5t91.5 -37.5t108.5 -38t103 -43q55 52 55 129q0 39 -41.5 70.5t-96 49.5t-135 48t-132.5 59q-47 -47 -47 -120z" />
<glyph unicode="&#xa8;" horiz-adv-x="968" d="M143 1315q0 61 45.5 111.5t126.5 50.5q62 0 98 -33t36 -88q0 -21 -8.5 -46.5t-26.5 -53.5t-54.5 -46t-85.5 -18q-70 0 -100.5 38t-30.5 85zM578 1315q0 67 46 114.5t126 47.5q50 0 90.5 -28t40.5 -93q0 -66 -46.5 -115t-125.5 -49q-70 0 -100.5 37t-30.5 86z" />
<glyph unicode="&#xa9;" horiz-adv-x="1701" d="M162 567q0 181 53 328t154.5 252t256.5 162t351 57q306 0 475.5 -162t169.5 -430q0 -68 -12 -141q-50 -322 -255 -497t-554 -175q-153 0 -275 45.5t-201 126.5t-121 191.5t-42 242.5zM360 569q0 -206 123 -327t338 -121q250 0 401 135t191 389q10 68 10 117 q0 206 -125.5 326t-345.5 120q-283 0 -437.5 -172.5t-154.5 -466.5zM539 635q0 178 103 282.5t263 104.5q82 0 135 -53l29 43l133 -2l-28 -291h-181l2 108q-29 29 -73 29q-172 0 -172 -221q0 -84 43 -130t116 -46q50 0 99 21t72 42l24 21l63 -121q-4 -6 -12 -15t-36 -32.5 t-59.5 -41.5t-81 -33t-101.5 -15q-150 0 -244 94t-94 256z" />
<glyph unicode="&#xaa;" horiz-adv-x="952" d="M125 815q0 49 20 90t53 70t79.5 52.5t95 37.5t105 24t103 14.5t95.5 6.5q6 36 6 41q0 41 -29.5 60.5t-93.5 19.5q-56 0 -111 -17.5t-82 -35.5l-28 -17l-70 121q4 5 11.5 13t38 28t67.5 35.5t101 28t137 12.5q163 0 246 -53.5t83 -169.5q0 -38 -4 -58l-71 -463h-218 l-28 80h-2q-3 -4 -9 -11.5t-28.5 -25.5t-49.5 -32t-72.5 -25.5t-96.5 -11.5q-122 0 -185 49t-63 137zM395 854q0 -66 101 -66q33 0 62 12.5t47 31t26 29.5t12 18l14 102q-134 -10 -198 -37t-64 -90z" />
<glyph unicode="&#xab;" horiz-adv-x="1239" d="M199 512l436 381l102 -131l-272 -254l192 -252l-139 -135zM629 512l436 381l102 -131l-272 -254l192 -252l-139 -135z" />
<glyph unicode="&#xac;" horiz-adv-x="1140" d="M131 535l31 221h921l-30 -221h-2l-50 -332h-231l51 332h-690z" />
<glyph unicode="&#xad;" horiz-adv-x="817" d="M102 453l17 221h647l-31 -221h-633z" />
<glyph unicode="&#xae;" horiz-adv-x="1552" d="M166 768q0 230 93 408t267.5 278t405.5 100q279 0 443.5 -150t164.5 -403q0 -60 -10 -126.5t-35.5 -145.5t-63.5 -151.5t-100 -141.5t-139.5 -119.5t-186.5 -81t-237 -30.5q-284 0 -443 153.5t-159 409.5zM362 772q0 -195 111.5 -301t314.5 -106q232 0 368 132t175 382 q10 68 10 118q0 194 -113.5 301t-318.5 107q-136 0 -241.5 -47t-171.5 -132t-100 -200t-34 -254zM571 561l97 635h231q133 0 198.5 -41t65.5 -129q0 -81 -41.5 -136.5t-115.5 -82.5l90 -246h-178l-80 219h-72l-33 -219h-162zM782 887h74q58 0 95.5 31t37.5 92q0 67 -102 67 h-76z" />
<glyph unicode="&#xaf;" horiz-adv-x="985" d="M379 1262l20 151h502l-22 -151h-500z" />
<glyph unicode="&#xb0;" horiz-adv-x="972" d="M188 1081q0 215 131 351.5t349 136.5q165 0 258.5 -96t93.5 -254q0 -208 -129.5 -345t-349.5 -137q-172 0 -262.5 93.5t-90.5 250.5zM436 1087q0 -66 33 -104.5t100 -38.5q93 0 149 71t56 202q0 69 -33.5 108t-101.5 39q-95 0 -149 -70.5t-54 -206.5z" />
<glyph unicode="&#xb1;" horiz-adv-x="1210" d="M41 229l16 222h1098l-31 -222h-1083zM238 967l16 221h364l52 342h231l-51 -342h340l-31 -221h-344l-51 -344h-232l52 344h-346z" />
<glyph unicode="&#xb2;" horiz-adv-x="1009" d="M106 471l33 225q13 4 73 39t147.5 95.5t169.5 128.5t140 146.5t58 141.5q0 56 -31 80.5t-96 24.5q-78 0 -151 -54l-21 -81h-192l57 331h151l19 -61q129 80 250 80q155 0 236 -82.5t81 -214.5q0 -64 -31 -131.5t-79.5 -125t-117 -116t-134.5 -103.5t-142 -89h242l31 79 l182 -14l-57 -299h-818z" />
<glyph unicode="&#xb3;" horiz-adv-x="1005" d="M143 492l27 270l184 12l2 -115q47 -12 109 -12q118 0 177.5 43t59.5 121q0 107 -112 107q-26 0 -56 -12t-45.5 -22t-21.5 -16l-102 129l321 310h-225l-27 -88h-180l59 329l219 -12h508l-22 -158l-297 -274q109 -12 179.5 -87t70.5 -190q0 -127 -70 -216.5t-185.5 -131 t-266.5 -41.5q-80 0 -156.5 13.5t-112.5 26.5z" />
<glyph unicode="&#xb4;" horiz-adv-x="548" d="M227 1186l240 303l283 -33l-324 -285z" />
<glyph unicode="&#xb5;" horiz-adv-x="1282" d="M14 -512l129 819l76 492l-100 12l18 213h420l-98 -618q-4 -36 -4 -52q0 -145 149 -145q59 0 114.5 18.5t81.5 36.5l25 19l80 516l-100 12l16 213h422l-115 -731v-17q0 -23 5.5 -37t11.5 -18t12 -4l88 4l-12 -201q-146 -38 -283 -38q-122 0 -131 88h-12q-4 -4 -13 -11.5 t-40.5 -26.5t-67.5 -33t-96.5 -26t-126.5 -12q-39 0 -74 6q-33 -228 -72 -479h-303z" />
<glyph unicode="&#xb6;" horiz-adv-x="1619" d="M152 854q0 121 33 206.5t108.5 148t204.5 92.5t317 30h873l-35 -250h-150l-168 -1081h-299l168 1081h-190l-170 -1081h-293l74 477q-228 0 -350.5 94.5t-122.5 282.5z" />
<glyph unicode="&#xb7;" horiz-adv-x="673" d="M203 723q0 72 57.5 130t149.5 58q72 0 115.5 -39t43.5 -104q0 -73 -59 -129.5t-148 -56.5q-72 0 -115.5 39t-43.5 102z" />
<glyph unicode="&#xb8;" horiz-adv-x="567" d="M-55 -436l63 110q7 -6 19.5 -15t49.5 -23.5t73 -14.5q102 0 102 84q0 35 -35 59t-69.5 35t-34.5 15l51 184h145l-26 -111q0 -3 17.5 -10t43 -19.5t51.5 -30.5t44 -48.5t18 -67.5q0 -102 -74 -163.5t-209 -61.5q-45 0 -85 8t-65 19.5t-44 23t-27 19.5z" />
<glyph unicode="&#xb9;" horiz-adv-x="1007" d="M225 471l17 195l219 20l92 598l-199 -90l-53 188l334 154h231l-133 -862l182 -8l-38 -195h-652z" />
<glyph unicode="&#xba;" horiz-adv-x="1015" d="M150 950q0 207 131.5 328t380.5 121q194 0 293.5 -84.5t99.5 -237.5q0 -206 -136.5 -327t-375.5 -121q-195 0 -294 84t-99 237zM426 932q0 -146 139 -146q213 0 213 306q0 141 -141 141q-104 0 -157.5 -71t-53.5 -230z" />
<glyph unicode="&#xbb;" horiz-adv-x="1236" d="M100 250l273 254l-191 254l140 135l319 -391l-436 -381zM535 250l272 254l-191 254l140 135l319 -391l-436 -381z" />
<glyph unicode="&#xbc;" horiz-adv-x="2037" d="M225 471l17 195l219 20l92 598l-199 -90l-53 188l334 154h231l-133 -862l182 -8l-38 -195h-652zM569 -2l981 1239l164 -96l-979 -1239zM1006 -240l8 162q89 126 185.5 300t152.5 329l254 -29q-97 -251 -308 -563h218l12 72l90 329h233l-63 -401h104l-24 -182l-111 -15 l-18 -114l80 -8l-27 -183h-455l13 181l112 10l21 112h-477z" />
<glyph unicode="&#xbd;" horiz-adv-x="2164" d="M225 471l17 195l219 20l92 598l-199 -90l-53 188l334 154h231l-133 -862l182 -8l-38 -195h-652zM569 -2l981 1239l164 -96l-979 -1239zM1104 -543l33 226q13 4 73 39t147 95.5t169 128t140 146t58 141.5q0 56 -31 80.5t-96 24.5q-80 0 -151 -53l-21 -82h-192l59 332h150 l18 -62q129 80 250 80q156 0 237 -82t81 -215q0 -266 -504 -565h241l31 80l182 -15l-57 -299h-817z" />
<glyph unicode="&#xbe;" horiz-adv-x="1988" d="M145 492l27 270l184 12l2 -115q46 -12 109 -12q118 0 178 43t60 121q0 107 -113 107q-26 0 -56 -12t-45.5 -22t-21.5 -16l-102 129l321 310h-225l-27 -88h-180l59 329l220 -12h507l-22 -158l-297 -274q109 -12 179.5 -87t70.5 -190q0 -127 -70 -216.5t-185.5 -131 t-266.5 -41.5q-80 0 -156.5 13.5t-112.5 26.5zM522 -2l981 1239l164 -96l-979 -1239zM958 -240l9 162q89 126 185.5 300t152.5 329l254 -29q-97 -251 -308 -563h217l13 72l90 329h233l-63 -401h104l-24 -182l-111 -15l-18 -114l80 -8l-27 -183h-455l13 181l112 10l21 112 h-478z" />
<glyph unicode="&#xbf;" horiz-adv-x="1026" d="M-18 -242q0 92 32.5 164t84 118t113.5 84.5t124.5 72t114 70.5t84 92t32.5 124q0 16 -4 52l168 14q17 -80 17 -129q0 -76 -25 -137t-65.5 -101t-89 -74t-97.5 -64t-89.5 -62t-65.5 -76.5t-25 -98.5q0 -129 178 -129q34 0 111 15l49 190l209 -14l-68 -379 q-139 -41 -317 -41q-221 0 -346 83.5t-125 225.5zM516 868q0 73 57.5 131t149.5 58q72 0 116 -39.5t44 -104.5q0 -73 -59 -129.5t-148 -56.5q-72 0 -116 39t-44 102z" />
<glyph unicode="&#xc0;" horiz-adv-x="1474" d="M-53 0l16 213l146 10l571 1108h410l227 -1124l133 -6l-29 -201h-567l25 170l114 12l-41 183h-485l-90 -168l123 -15l-27 -182h-526zM565 559h353l-89 528h-2zM590 1733l289 34l153 -301l-205 -18z" />
<glyph unicode="&#xc1;" horiz-adv-x="1474" d="M-53 0l16 213l146 10l571 1108h410l227 -1124l133 -6l-29 -201h-567l25 170l114 12l-41 183h-485l-90 -168l123 -15l-27 -182h-526zM565 559h353l-89 528h-2zM770 1462l240 303l282 -32l-323 -285z" />
<glyph unicode="&#xc2;" horiz-adv-x="1474" d="M-53 0l16 213l146 10l571 1108h410l227 -1124l133 -6l-29 -201h-567l25 170l114 12l-41 183h-485l-90 -168l123 -15l-27 -182h-526zM565 559h353l-89 528h-2zM582 1630l295 189h159l236 -189l-117 -168l-227 164l-277 -164z" />
<glyph unicode="&#xc3;" horiz-adv-x="1474" d="M-53 0l16 213l146 10l571 1108h410l227 -1124l133 -6l-29 -201h-567l25 170l114 12l-41 183h-485l-90 -168l123 -15l-27 -182h-526zM551 1677q2 5 7.5 13t25.5 29t45.5 37t69.5 29t96 13q58 0 111.5 -16.5t87 -36.5t76.5 -36.5t83 -16.5q41 0 77.5 9t53.5 19l16 9 l15 -148q-1 -4 -4.5 -11.5t-19 -25.5t-37.5 -32t-63 -25.5t-93 -11.5q-51 0 -102 16t-85.5 35t-81.5 35t-90 16q-41 0 -85 -16t-68 -32l-23 -16zM565 559h353l-89 528h-2z" />
<glyph unicode="&#xc4;" horiz-adv-x="1474" d="M-53 0l16 213l146 10l571 1108h410l227 -1124l133 -6l-29 -201h-567l25 170l114 12l-41 183h-485l-90 -168l123 -15l-27 -182h-526zM553 1591q0 61 45.5 111.5t126.5 50.5q62 0 97.5 -33t35.5 -88q0 -17 -4.5 -36t-17 -42.5t-31 -42t-50 -31t-71.5 -12.5q-70 0 -100.5 38 t-30.5 85zM565 559h353l-89 528h-2zM987 1591q0 67 46 114.5t126 47.5q50 0 90.5 -28t40.5 -93q0 -66 -46.5 -115t-125.5 -49q-70 0 -100.5 37t-30.5 86z" />
<glyph unicode="&#xc5;" horiz-adv-x="1474" d="M-53 0l16 213l146 10l571 1108h410l227 -1124l133 -6l-29 -201h-567l25 170l114 12l-41 183h-485l-90 -168l123 -15l-27 -182h-526zM565 559h353l-89 528h-2zM694 1673q0 118 81.5 197.5t199.5 79.5q92 0 150.5 -59t58.5 -150q0 -115 -81 -194t-200 -79 q-98 0 -153.5 56.5t-55.5 148.5zM834 1692q0 -41 24 -67t64 -26q53 0 87.5 37.5t34.5 92.5q0 41 -24.5 66.5t-61.5 25.5q-52 0 -88 -36.5t-36 -92.5z" />
<glyph unicode="&#xc6;" horiz-adv-x="1916" d="M-147 0l16 213l199 10l682 887l-168 12l16 209h1090l270 15l-39 -377h-244l4 129h-360l-49 -316l532 2l-33 -225h-534l-51 -326h399l47 148l225 -14l-71 -367h-1086l9 158l155 12l29 195h-412l-141 -191l96 -8l-22 -166h-559zM616 559h306l84 539h-15z" />
<glyph unicode="&#xc7;" horiz-adv-x="1349" d="M113 588q0 221 89.5 398t254 278.5t374.5 101.5q173 0 308 -104l53 84h178l-63 -525h-230l15 240q-103 63 -232 63q-190 0 -306 -135t-116 -411q0 -177 106 -274t269 -97q66 0 129.5 17t106.5 41t77 48t50 41l16 17l119 -160q-6 -10 -19 -27t-61 -60t-104.5 -76t-152 -60 t-202.5 -27q-33 0 -47 2l-18 -76q0 -3 17.5 -10t43 -19.5t51.5 -30.5t44 -48.5t18 -67.5q0 -102 -74 -163.5t-209 -61.5q-45 0 -85 8t-65 19.5t-44 23t-27 19.5l-8 8l63 110q7 -6 19.5 -15t49 -23.5t72.5 -14.5q103 0 103 84q0 35 -35 59t-69.5 35t-34.5 15l47 168 q-220 50 -345.5 210t-125.5 396z" />
<glyph unicode="&#xc8;" horiz-adv-x="1263" d="M23 0l16 213l158 12l139 895l-150 13l15 198h813l270 15l-41 -377h-244l5 129h-359l-49 -316l532 2l-32 -225h-535l-51 -326h399l47 148l224 -14l-70 -367h-1087zM526 1733l289 34l154 -301l-205 -18z" />
<glyph unicode="&#xc9;" horiz-adv-x="1263" d="M23 0l16 213l158 12l139 895l-150 13l15 198h813l270 15l-41 -377h-244l5 129h-359l-49 -316l532 2l-32 -225h-535l-51 -326h399l47 148l224 -14l-70 -367h-1087zM705 1462l239 303l283 -32l-324 -285z" />
<glyph unicode="&#xca;" horiz-adv-x="1263" d="M23 0l16 213l158 12l139 895l-150 13l15 198h813l270 15l-41 -377h-244l5 129h-359l-49 -316l532 2l-32 -225h-535l-51 -326h399l47 148l224 -14l-70 -367h-1087zM516 1630l295 189h160l235 -189l-116 -168l-228 164l-276 -164z" />
<glyph unicode="&#xcb;" horiz-adv-x="1263" d="M23 0l16 213l158 12l139 895l-150 13l15 198h813l270 15l-41 -377h-244l5 129h-359l-49 -316l532 2l-32 -225h-535l-51 -326h399l47 148l224 -14l-70 -367h-1087zM487 1591q0 61 45.5 111.5t126.5 50.5q62 0 98 -33t36 -88q0 -21 -8.5 -46.5t-26.5 -53.5t-54.5 -46 t-85.5 -18q-70 0 -100.5 38t-30.5 85zM922 1591q0 67 46 114.5t126 47.5q50 0 90.5 -28t40.5 -93q0 -66 -46.5 -115t-125.5 -49q-70 0 -100.5 37t-30.5 86z" />
<glyph unicode="&#xcc;" d="M23 0l16 213l158 12l139 895l-150 13l15 198h624l-28 -213l-148 -12l-139 -897l149 -8l-28 -201h-608zM229 1733l289 34l154 -301l-205 -18z" />
<glyph unicode="&#xcd;" d="M23 0l16 213l158 12l139 895l-150 13l15 198h624l-28 -213l-148 -12l-139 -897l149 -8l-28 -201h-608zM408 1462l239 303l283 -32l-324 -285z" />
<glyph unicode="&#xce;" d="M23 0l16 213l158 12l139 895l-150 13l15 198h624l-28 -213l-148 -12l-139 -897l149 -8l-28 -201h-608zM219 1630l295 189h160l235 -189l-116 -168l-228 164l-276 -164z" />
<glyph unicode="&#xcf;" d="M23 0l16 213l158 12l139 895l-150 13l15 198h624l-28 -213l-148 -12l-139 -897l149 -8l-28 -201h-608zM190 1591q0 61 45.5 111.5t126.5 50.5q62 0 98 -33t36 -88q0 -17 -4.5 -36t-17 -42.5t-31 -42t-50 -31t-71.5 -12.5q-70 0 -101 38t-31 85zM625 1591q0 67 46 114.5 t126 47.5q50 0 90.5 -28t40.5 -93q0 -66 -46.5 -115t-125.5 -49q-70 0 -100.5 37t-30.5 86z" />
<glyph unicode="&#xd0;" horiz-adv-x="1554" d="M23 0l16 213l158 12l51 338h-180l14 193h197l57 364l-150 13l15 198h667q318 0 493 -132.5t175 -393.5q0 -183 -54 -330.5t-158 -253.5t-264 -163.5t-366 -57.5h-671zM514 246h217q229 0 353 133.5t124 417.5q0 288 -372 288h-191l-53 -329h297l-29 -193h-297z" />
<glyph unicode="&#xd1;" horiz-adv-x="1644" d="M23 0l16 213l158 12l139 895l-150 13l15 198h493l477 -911h7l4 92l98 594l-154 16l15 209h596l-29 -213l-143 -12l-174 -1112l-316 -2l-493 893h-7l-6 -121l-90 -541l152 -14l-29 -209h-579zM637 1677q2 5 7.5 13t25.5 29t45.5 37t69.5 29t96 13q58 0 111.5 -16.5 t87 -36.5t76.5 -36.5t83 -16.5q41 0 77.5 9t53.5 19l16 9l15 -148q-1 -4 -4.5 -11.5t-19 -25.5t-37.5 -32t-63 -25.5t-93 -11.5q-51 0 -102 16t-85.5 35t-81.5 35t-90 16q-41 0 -85 -16t-68 -32l-23 -16z" />
<glyph unicode="&#xd2;" horiz-adv-x="1544" d="M111 580q0 362 214 574t595 212q293 0 448.5 -142t155.5 -397q0 -168 -55 -322t-156.5 -276t-260.5 -195t-352 -73q-143 0 -256.5 47.5t-185.5 131t-109.5 195.5t-37.5 245zM434 575q0 -162 77.5 -267t223.5 -105q85 0 156.5 30t120.5 81t86 113.5t57.5 131.5t30.5 130.5 t10 115.5q0 155 -79 237t-232 82q-216 0 -333.5 -142t-117.5 -407zM623 1733l288 34l154 -301l-205 -18z" />
<glyph unicode="&#xd3;" horiz-adv-x="1544" d="M111 580q0 362 214 574t595 212q293 0 448.5 -142t155.5 -397q0 -168 -55 -322t-156.5 -276t-260.5 -195t-352 -73q-143 0 -256.5 47.5t-185.5 131t-109.5 195.5t-37.5 245zM434 575q0 -162 77.5 -267t223.5 -105q85 0 156.5 30t120.5 81t86 113.5t57.5 131.5t30.5 130.5 t10 115.5q0 155 -79 237t-232 82q-216 0 -333.5 -142t-117.5 -407zM801 1462l239 303l283 -32l-324 -285z" />
<glyph unicode="&#xd4;" horiz-adv-x="1544" d="M111 580q0 362 214 574t595 212q293 0 448.5 -142t155.5 -397q0 -168 -55 -322t-156.5 -276t-260.5 -195t-352 -73q-143 0 -256.5 47.5t-185.5 131t-109.5 195.5t-37.5 245zM434 575q0 -162 77.5 -267t223.5 -105q85 0 156.5 30t120.5 81t86 113.5t57.5 131.5t30.5 130.5 t10 115.5q0 155 -79 237t-232 82q-216 0 -333.5 -142t-117.5 -407zM612 1630l295 189h160l236 -189l-117 -168l-228 164l-276 -164z" />
<glyph unicode="&#xd5;" horiz-adv-x="1544" d="M111 580q0 362 214 574t595 212q293 0 448.5 -142t155.5 -397q0 -168 -55 -322t-156.5 -276t-260.5 -195t-352 -73q-143 0 -256.5 47.5t-185.5 131t-109.5 195.5t-37.5 245zM434 575q0 -162 77.5 -267t223.5 -105q85 0 156.5 30t120.5 81t86 113.5t57.5 131.5t30.5 130.5 t10 115.5q0 155 -79 237t-232 82q-216 0 -333.5 -142t-117.5 -407zM582 1677q2 5 7.5 13t25.5 29t45 37t69 29t96 13q58 0 111.5 -16.5t87.5 -36.5t77 -36.5t83 -16.5q41 0 77.5 9t52.5 19l17 9l15 -148q-1 -4 -4.5 -11.5t-19.5 -25.5t-37.5 -32t-63 -25.5t-93.5 -11.5 q-64 0 -126 25.5t-120 51t-112 25.5q-41 0 -85 -16t-67 -32l-24 -16z" />
<glyph unicode="&#xd6;" horiz-adv-x="1544" d="M111 580q0 362 214 574t595 212q293 0 448.5 -142t155.5 -397q0 -168 -55 -322t-156.5 -276t-260.5 -195t-352 -73q-143 0 -256.5 47.5t-185.5 131t-109.5 195.5t-37.5 245zM434 575q0 -162 77.5 -267t223.5 -105q85 0 156.5 30t120.5 81t86 113.5t57.5 131.5t30.5 130.5 t10 115.5q0 155 -79 237t-232 82q-216 0 -333.5 -142t-117.5 -407zM584 1591q0 61 45.5 111.5t126.5 50.5q62 0 97.5 -33t35.5 -88q0 -17 -4.5 -36t-17 -42.5t-31 -42t-50 -31t-71.5 -12.5q-70 0 -100.5 38t-30.5 85zM1018 1591q0 67 46 114.5t126 47.5q50 0 90.5 -28 t40.5 -93q0 -66 -46.5 -115t-125.5 -49q-70 0 -100.5 37t-30.5 86z" />
<glyph unicode="&#xd7;" horiz-adv-x="970" d="M76 420l276 233l-205 236l189 176l213 -244l289 244l139 -176l-279 -238l205 -231l-190 -176l-211 241l-285 -241z" />
<glyph unicode="&#xd8;" horiz-adv-x="1544" d="M111 580q0 362 214 574t595 212q142 0 245 -33l99 154l127 -23l-115 -176q122 -66 185 -183.5t63 -277.5q0 -168 -55 -322t-156.5 -276t-260.5 -195t-352 -73q-106 0 -204 29l-119 -209l-127 22q115 204 133 234q-134 76 -203 218t-69 325zM434 575q0 -185 94 -286 l492 813q-61 22 -135 22q-216 0 -333.5 -142t-117.5 -407zM629 219q53 -16 106 -16q85 0 156.5 30t120.5 81t86 113.5t57.5 131.5t30.5 130.5t10 115.5q0 149 -76 231z" />
<glyph unicode="&#xd9;" horiz-adv-x="1519" d="M137 1133l15 198h622l-29 -198l-145 -13l-86 -553q-8 -49 -8 -102q0 -242 235 -242q148 0 230.5 92.5t107.5 251.5l84 539l-153 16l16 209h606l-28 -198l-148 -17l-94 -612q-14 -90 -45 -168.5t-85.5 -148t-128.5 -119t-178.5 -78.5t-230.5 -29q-135 0 -236 33.5 t-160 93.5t-87.5 136.5t-28.5 170.5q0 60 8 109l95 616zM698 1733l289 34l154 -301l-205 -18z" />
<glyph unicode="&#xda;" horiz-adv-x="1519" d="M137 1133l15 198h622l-29 -198l-145 -13l-86 -553q-8 -49 -8 -102q0 -242 235 -242q148 0 230.5 92.5t107.5 251.5l84 539l-153 16l16 209h606l-28 -198l-148 -17l-94 -612q-14 -90 -45 -168.5t-85.5 -148t-128.5 -119t-178.5 -78.5t-230.5 -29q-135 0 -236 33.5 t-160 93.5t-87.5 136.5t-28.5 170.5q0 60 8 109l95 616zM743 1462l240 303l283 -32l-324 -285z" />
<glyph unicode="&#xdb;" horiz-adv-x="1519" d="M137 1133l15 198h622l-29 -198l-145 -13l-86 -553q-8 -49 -8 -102q0 -242 235 -242q148 0 230.5 92.5t107.5 251.5l84 539l-153 16l16 209h606l-28 -198l-148 -17l-94 -612q-14 -90 -45 -168.5t-85.5 -148t-128.5 -119t-178.5 -78.5t-230.5 -29q-135 0 -236 33.5 t-160 93.5t-87.5 136.5t-28.5 170.5q0 60 8 109l95 616zM610 1630l295 189h160l235 -189l-116 -168l-228 164l-276 -164z" />
<glyph unicode="&#xdc;" horiz-adv-x="1519" d="M137 1133l15 198h622l-29 -198l-145 -13l-86 -553q-8 -49 -8 -102q0 -242 235 -242q148 0 230.5 92.5t107.5 251.5l84 539l-153 16l16 209h606l-28 -198l-148 -17l-94 -612q-14 -90 -45 -168.5t-85.5 -148t-128.5 -119t-178.5 -78.5t-230.5 -29q-135 0 -236 33.5 t-160 93.5t-87.5 136.5t-28.5 170.5q0 60 8 109l95 616zM582 1591q0 61 45.5 111.5t126.5 50.5q62 0 97.5 -33t35.5 -88q0 -17 -4.5 -36t-17 -42.5t-31 -42t-50 -31t-71.5 -12.5q-70 0 -100.5 38t-30.5 85zM1016 1591q0 67 46 114.5t126 47.5q50 0 90.5 -28t40.5 -93 q0 -66 -46.5 -115t-125.5 -49q-70 0 -100.5 37t-30.5 86z" />
<glyph unicode="&#xdd;" horiz-adv-x="1347" d="M78 1133l14 198h617l-27 -198l-74 -7l152 -346h2l248 338l-62 4l31 209h549l-31 -213l-182 -8l-451 -592l-45 -295l150 -10l-31 -213h-608l16 213l156 12l47 289l-287 610zM748 1462l239 303l283 -32l-324 -285z" />
<glyph unicode="&#xde;" horiz-adv-x="1280" d="M23 0l16 213l158 12l139 895l-150 13l15 198h461l-33 -205h162q229 0 351 -93.5t122 -284.5q0 -119 -38 -217t-100 -162.5t-143 -109t-164.5 -64t-167.5 -19.5h-170l-26 -176h-432zM516 399h135q140 0 219.5 79t79.5 243q0 96 -55.5 134t-163.5 38h-137z" />
<glyph unicode="&#xdf;" horiz-adv-x="1363" d="M-264 -498l106 228q68 -23 129 -23q54 0 97 63t63 177l178 1147q19 127 68.5 217.5t125.5 143.5t168.5 77t209.5 24q198 0 302.5 -69t104.5 -205q0 -114 -61 -197t-156 -137q256 -95 256 -370q0 -284 -147.5 -450.5t-382.5 -166.5q-64 0 -116 7t-80 17.5t-46.5 21 t-24.5 17.5l-6 7l66 178q45 -29 143 -29q120 0 201.5 104.5t81.5 290.5q0 118 -69.5 167t-231.5 49v2l26 217q10 1 26.5 4t58.5 18t74 36t58.5 62.5t26.5 94.5q0 112 -145 112q-98 0 -152.5 -56.5t-77.5 -184.5h2l-180 -1149q-20 -126 -68.5 -224.5t-113 -156.5t-136 -87.5 t-145.5 -29.5q-83 0 -141 13.5t-75 26.5z" />
<glyph unicode="&#xe0;" horiz-adv-x="1267" d="M70 420q0 282 163 461.5t418 179.5q56 0 105 -9t79 -22t51.5 -26t30.5 -22l9 -9h10l53 51h234l-109 -698q-6 -30 -6 -52q0 -31 10.5 -44t22.5 -13l88 4l-12 -201q-146 -38 -283 -38q-69 0 -100.5 25.5t-34.5 78.5h-6q-4 -5 -12 -13.5t-38 -30t-64.5 -38t-92 -30 t-121.5 -13.5q-181 0 -288 129t-107 330zM381 410q0 -108 52.5 -167t154.5 -59q43 0 84.5 14.5t69.5 36t44.5 37.5t24.5 27l74 473q-61 70 -178 70q-162 0 -244 -102.5t-82 -329.5zM422 1456l289 35l153 -301l-205 -19z" />
<glyph unicode="&#xe1;" horiz-adv-x="1267" d="M70 420q0 282 163 461.5t418 179.5q56 0 105 -9t79 -22t51.5 -26t30.5 -22l9 -9h10l53 51h234l-109 -698q-6 -30 -6 -52q0 -31 10.5 -44t22.5 -13l88 4l-12 -201q-146 -38 -283 -38q-69 0 -100.5 25.5t-34.5 78.5h-6q-4 -5 -12 -13.5t-38 -30t-64.5 -38t-92 -30 t-121.5 -13.5q-181 0 -288 129t-107 330zM381 410q0 -108 52.5 -167t154.5 -59q43 0 84.5 14.5t69.5 36t44.5 37.5t24.5 27l74 473q-61 70 -178 70q-162 0 -244 -102.5t-82 -329.5zM602 1186l240 303l282 -33l-323 -285z" />
<glyph unicode="&#xe2;" horiz-adv-x="1267" d="M70 420q0 282 163 461.5t418 179.5q56 0 105 -9t79 -22t51.5 -26t30.5 -22l9 -9h10l53 51h234l-109 -698q-6 -30 -6 -52q0 -31 10.5 -44t22.5 -13l88 4l-12 -201q-146 -38 -283 -38q-69 0 -100.5 25.5t-34.5 78.5h-6q-4 -5 -12 -13.5t-38 -30t-64.5 -38t-92 -30 t-121.5 -13.5q-181 0 -288 129t-107 330zM381 410q0 -108 52.5 -167t154.5 -59q43 0 84.5 14.5t69.5 36t44.5 37.5t24.5 27l74 473q-61 70 -178 70q-162 0 -244 -102.5t-82 -329.5zM412 1354l295 188h159l236 -188l-117 -168l-227 164l-277 -164z" />
<glyph unicode="&#xe3;" horiz-adv-x="1267" d="M70 420q0 282 163 461.5t418 179.5q56 0 105 -9t79 -22t51.5 -26t30.5 -22l9 -9h10l53 51h234l-109 -698q-6 -30 -6 -52q0 -31 10.5 -44t22.5 -13l88 4l-12 -201q-146 -38 -283 -38q-69 0 -100.5 25.5t-34.5 78.5h-6q-4 -5 -12 -13.5t-38 -30t-64.5 -38t-92 -30 t-121.5 -13.5q-181 0 -288 129t-107 330zM381 410q0 -108 52.5 -167t154.5 -59q43 0 84.5 14.5t69.5 36t44.5 37.5t24.5 27l74 473q-61 70 -178 70q-162 0 -244 -102.5t-82 -329.5zM383 1401q2 5 7.5 13t25.5 29t45.5 37t69.5 29t96 13q58 0 111.5 -16.5t87 -37t76.5 -37 t83 -16.5q41 0 78 9.5t53 18.5l17 9l14 -147q-1 -4 -4.5 -11.5t-19 -26t-37.5 -32.5t-63 -25.5t-93 -11.5q-51 0 -102 16t-85.5 35t-81.5 35t-90 16q-41 0 -85 -16t-68 -32l-23 -15z" />
<glyph unicode="&#xe4;" horiz-adv-x="1267" d="M70 420q0 282 163 461.5t418 179.5q56 0 105 -9t79 -22t51.5 -26t30.5 -22l9 -9h10l53 51h234l-109 -698q-6 -30 -6 -52q0 -31 10.5 -44t22.5 -13l88 4l-12 -201q-146 -38 -283 -38q-69 0 -100.5 25.5t-34.5 78.5h-6q-4 -5 -12 -13.5t-38 -30t-64.5 -38t-92 -30 t-121.5 -13.5q-181 0 -288 129t-107 330zM381 410q0 -108 52.5 -167t154.5 -59q43 0 84.5 14.5t69.5 36t44.5 37.5t24.5 27l74 473q-61 70 -178 70q-162 0 -244 -102.5t-82 -329.5zM381 1315q0 61 45.5 111.5t126.5 50.5q62 0 97.5 -33t35.5 -88q0 -17 -4.5 -36t-17 -42.5 t-31 -42t-50 -31t-71.5 -12.5q-70 0 -100.5 38t-30.5 85zM815 1315q0 67 46 114.5t126 47.5q50 0 90.5 -28t40.5 -93q0 -66 -46.5 -115t-125.5 -49q-70 0 -100.5 37t-30.5 86z" />
<glyph unicode="&#xe5;" horiz-adv-x="1267" d="M70 420q0 282 163 461.5t418 179.5q56 0 105 -9t79 -22t51.5 -26t30.5 -22l9 -9h10l53 51h234l-109 -698q-6 -30 -6 -52q0 -31 10.5 -44t22.5 -13l88 4l-12 -201q-146 -38 -283 -38q-69 0 -100.5 25.5t-34.5 78.5h-6q-4 -5 -12 -13.5t-38 -30t-64.5 -38t-92 -30 t-121.5 -13.5q-181 0 -288 129t-107 330zM381 410q0 -108 52.5 -167t154.5 -59q43 0 84.5 14.5t69.5 36t44.5 37.5t24.5 27l74 473q-61 70 -178 70q-162 0 -244 -102.5t-82 -329.5zM526 1395q0 118 81.5 197t199.5 79q92 0 150.5 -59t58.5 -150q0 -115 -81 -193.5 t-200 -78.5q-98 0 -153.5 56.5t-55.5 148.5zM666 1413q0 -41 24 -66.5t64 -25.5q53 0 88 37t35 92q0 41 -24.5 66.5t-61.5 25.5q-52 0 -88.5 -36.5t-36.5 -92.5z" />
<glyph unicode="&#xe6;" horiz-adv-x="1699" d="M27 233q0 70 26 127.5t67 97t102.5 71t120.5 50t134 32t130.5 19t121.5 9.5q10 38 10 80q0 71 -34 100t-103 29q-98 0 -182 -72l-23 -88h-211l60 350h166l12 -47q134 70 248 70q194 0 266 -129q164 129 377 129q175 0 288 -86.5t113 -229.5q0 -181 -167 -256.5 t-554 -78.5q0 -115 68 -172.5t174 -57.5q48 0 91.5 12t71.5 28.5t49 33.5t31 29l9 12l147 -107q-5 -9 -14.5 -24.5t-46.5 -54.5t-83.5 -69t-127 -54.5t-174.5 -24.5q-140 0 -248 48t-170 141q-141 -189 -405 -189q-156 0 -248 74t-92 198zM342 272q0 -110 131 -110 q48 0 88.5 22.5t67 60t43 71.5t28.5 73v25q0 33 2 49q-75 -3 -127 -9t-99 -19t-74.5 -33.5t-43.5 -53t-16 -76.5zM1012 590q168 0 263.5 15.5t134 46t38.5 83.5q0 52 -41.5 84.5t-122.5 32.5q-101 0 -172.5 -63.5t-99.5 -198.5z" />
<glyph unicode="&#xe7;" horiz-adv-x="1019" d="M72 430q0 287 142.5 459t379.5 172q122 0 229 -82l35 59h184l-49 -415h-227l8 186q-43 43 -123 43q-61 0 -107.5 -20t-83.5 -66t-56 -128t-19 -198q0 -126 68 -196t168 -70q40 0 78 13t63.5 32t45 37.5t28.5 31.5l10 13l143 -100q-4 -10 -13 -26t-44.5 -57.5t-79.5 -73 t-121 -57.5t-166 -26h-6l-16 -74q0 -3 17.5 -10t43 -19.5t51.5 -30.5t44 -48.5t18 -67.5q0 -102 -74 -163.5t-209 -61.5q-45 0 -85 8t-65 19.5t-44 23t-27 19.5l-8 8l63 110q7 -6 19.5 -15t49.5 -23.5t73 -14.5q102 0 102 84q0 35 -35 59t-69.5 35t-34.5 15l45 163 q-161 38 -253.5 158.5t-92.5 294.5z" />
<glyph unicode="&#xe8;" horiz-adv-x="1071" d="M72 414q0 185 82.5 334t222.5 231t309 82q175 0 288 -86.5t113 -229.5q0 -181 -166.5 -256.5t-553.5 -78.5q0 -115 67.5 -172.5t173.5 -57.5q48 0 91.5 12t71.5 28.5t49 33.5t30 29l10 12l148 -107q-5 -9 -14.5 -24.5t-47 -54.5t-83.5 -69t-127 -54.5t-175 -24.5 q-220 0 -354.5 118t-134.5 335zM383 590q168 0 263.5 15.5t134 46t38.5 83.5q0 52 -41.5 84.5t-122.5 32.5q-101 0 -172.5 -63.5t-99.5 -198.5zM393 1456l289 35l154 -301l-205 -19z" />
<glyph unicode="&#xe9;" horiz-adv-x="1071" d="M72 414q0 185 82.5 334t222.5 231t309 82q175 0 288 -86.5t113 -229.5q0 -181 -166.5 -256.5t-553.5 -78.5q0 -115 67.5 -172.5t173.5 -57.5q48 0 91.5 12t71.5 28.5t49 33.5t30 29l10 12l148 -107q-5 -9 -14.5 -24.5t-47 -54.5t-83.5 -69t-127 -54.5t-175 -24.5 q-220 0 -354.5 118t-134.5 335zM383 590q168 0 263.5 15.5t134 46t38.5 83.5q0 52 -41.5 84.5t-122.5 32.5q-101 0 -172.5 -63.5t-99.5 -198.5zM573 1186l240 303l283 -33l-324 -285z" />
<glyph unicode="&#xea;" horiz-adv-x="1071" d="M72 414q0 185 82.5 334t222.5 231t309 82q175 0 288 -86.5t113 -229.5q0 -181 -166.5 -256.5t-553.5 -78.5q0 -115 67.5 -172.5t173.5 -57.5q48 0 91.5 12t71.5 28.5t49 33.5t30 29l10 12l148 -107q-5 -9 -14.5 -24.5t-47 -54.5t-83.5 -69t-127 -54.5t-175 -24.5 q-220 0 -354.5 118t-134.5 335zM383 590q168 0 263.5 15.5t134 46t38.5 83.5q0 52 -41.5 84.5t-122.5 32.5q-101 0 -172.5 -63.5t-99.5 -198.5zM385 1354l295 188h160l235 -188l-117 -168l-227 164l-276 -164z" />
<glyph unicode="&#xeb;" horiz-adv-x="1071" d="M72 414q0 185 82.5 334t222.5 231t309 82q175 0 288 -86.5t113 -229.5q0 -181 -166.5 -256.5t-553.5 -78.5q0 -115 67.5 -172.5t173.5 -57.5q48 0 91.5 12t71.5 28.5t49 33.5t30 29l10 12l148 -107q-5 -9 -14.5 -24.5t-47 -54.5t-83.5 -69t-127 -54.5t-175 -24.5 q-220 0 -354.5 118t-134.5 335zM354 1315q0 61 45.5 111.5t126.5 50.5q62 0 97.5 -33t35.5 -88q0 -17 -4.5 -36t-17 -42.5t-31 -42t-50 -31t-71.5 -12.5q-70 0 -100.5 38t-30.5 85zM383 590q168 0 263.5 15.5t134 46t38.5 83.5q0 52 -41.5 84.5t-122.5 32.5 q-101 0 -172.5 -63.5t-99.5 -198.5zM788 1315q0 67 46.5 114.5t126.5 47.5q50 0 90.5 -28t40.5 -93q0 -66 -46.5 -115t-125.5 -49q-70 0 -101 37t-31 86z" />
<glyph unicode="&#xec;" horiz-adv-x="598" d="M117 109q0 10 4 38l100 652l-100 12l16 213h422l-117 -739q-2 -68 33 -68l88 4l-12 -201q-146 -38 -283 -38q-151 0 -151 127zM121 1456l289 35l153 -301l-205 -19z" />
<glyph unicode="&#xed;" horiz-adv-x="598" d="M117 109q0 10 4 38l100 652l-100 12l16 213h422l-117 -739q-2 -68 33 -68l88 4l-12 -201q-146 -38 -283 -38q-151 0 -151 127zM299 1186l240 303l282 -33l-323 -285z" />
<glyph unicode="&#xee;" horiz-adv-x="598" d="M111 1354l295 188h159l236 -188l-117 -168l-227 164l-277 -164zM117 109q0 10 4 38l100 652l-100 12l16 213h422l-117 -739q-2 -68 33 -68l88 4l-12 -201q-146 -38 -283 -38q-151 0 -151 127z" />
<glyph unicode="&#xef;" horiz-adv-x="598" d="M80 1315q0 61 45.5 111.5t126.5 50.5q62 0 97.5 -33t35.5 -88q0 -17 -4.5 -36t-17 -42.5t-31 -42t-50 -31t-71.5 -12.5q-70 0 -100.5 38t-30.5 85zM117 109q0 10 4 38l100 652l-100 12l16 213h422l-117 -739q-2 -68 33 -68l88 4l-12 -201q-146 -38 -283 -38 q-151 0 -151 127zM514 1315q0 67 46 114.5t126 47.5q50 0 90.5 -28t40.5 -93q0 -66 -46.5 -115t-125.5 -49q-70 0 -100.5 37t-30.5 86z" />
<glyph unicode="&#xf0;" horiz-adv-x="1210" d="M72 420q0 78 16 158.5t59.5 169.5t109.5 156.5t176.5 112t250.5 44.5q144 0 266 -76q-35 153 -129 272l-229 -106l-37 106l186 86q-47 44 -96 76l135 135q100 -58 160 -118l186 88l35 -107l-143 -67q178 -233 178 -564q0 -85 -16 -194q-40 -293 -210.5 -462t-426.5 -169 q-216 0 -343.5 126t-127.5 333zM379 414q0 -108 50 -176t142 -68q132 0 216.5 125.5t84.5 349.5q0 98 -50.5 152.5t-147.5 54.5q-137 0 -216 -104.5t-79 -333.5z" />
<glyph unicode="&#xf1;" horiz-adv-x="1271" d="M98 0l123 799l-100 12l16 213h383l12 -72h3q4 4 12.5 11.5t39.5 26.5t67.5 33t96.5 26t126 12q161 0 243 -62.5t82 -195.5q0 -24 -8 -86l-68 -438q0 -62 33 -62l88 4l-12 -201q-146 -38 -283 -38q-151 0 -151 127q0 25 45 298.5t45 301.5q0 56 -36.5 81t-117.5 25 q-122 0 -223 -72l-115 -743h-301zM397 1401q2 5 7.5 13t25.5 29t45.5 37t69.5 29t96 13q58 0 111.5 -16.5t87 -37t76.5 -37t83 -16.5q41 0 78 9.5t53 18.5l17 9l14 -147q-1 -4 -4.5 -11.5t-19 -26t-37.5 -32.5t-63 -25.5t-93 -11.5q-64 0 -126 25.5t-120 51t-112 25.5 q-41 0 -85 -16t-67 -32l-24 -15z" />
<glyph unicode="&#xf2;" horiz-adv-x="1183" d="M72 424q0 295 167.5 466t471.5 171q230 0 352.5 -116t122.5 -327q0 -291 -178.5 -474t-466.5 -183q-227 0 -348 124t-121 339zM379 399q0 -107 47.5 -168t144.5 -61q145 0 225.5 116.5t80.5 344.5q0 105 -49.5 163t-147.5 58q-301 0 -301 -453zM420 1456l289 35l153 -301 l-205 -19z" />
<glyph unicode="&#xf3;" horiz-adv-x="1183" d="M72 424q0 295 167.5 466t471.5 171q230 0 352.5 -116t122.5 -327q0 -291 -178.5 -474t-466.5 -183q-227 0 -348 124t-121 339zM379 399q0 -107 47.5 -168t144.5 -61q145 0 225.5 116.5t80.5 344.5q0 105 -49.5 163t-147.5 58q-301 0 -301 -453zM598 1186l240 303l282 -33 l-323 -285z" />
<glyph unicode="&#xf4;" horiz-adv-x="1183" d="M72 424q0 295 167.5 466t471.5 171q230 0 352.5 -116t122.5 -327q0 -291 -178.5 -474t-466.5 -183q-227 0 -348 124t-121 339zM379 399q0 -107 47.5 -168t144.5 -61q145 0 225.5 116.5t80.5 344.5q0 105 -49.5 163t-147.5 58q-301 0 -301 -453zM408 1354l294 188h160 l236 -188l-117 -168l-227 164l-277 -164z" />
<glyph unicode="&#xf5;" horiz-adv-x="1183" d="M72 424q0 295 167.5 466t471.5 171q230 0 352.5 -116t122.5 -327q0 -291 -178.5 -474t-466.5 -183q-227 0 -348 124t-121 339zM377 1401q2 5 7.5 13t25.5 29t45.5 37t69.5 29t96 13q58 0 111.5 -16.5t87 -37t76.5 -37t83 -16.5q41 0 77.5 9.5t53.5 18.5l16 9l15 -147 q-1 -4 -4.5 -11.5t-19 -26t-37.5 -32.5t-63 -25.5t-93 -11.5q-51 0 -102 16t-85.5 35t-81.5 35t-90 16q-41 0 -85 -16t-68 -32l-23 -15zM379 399q0 -107 47.5 -168t144.5 -61q145 0 225.5 116.5t80.5 344.5q0 105 -49.5 163t-147.5 58q-301 0 -301 -453z" />
<glyph unicode="&#xf6;" horiz-adv-x="1183" d="M72 424q0 295 167.5 466t471.5 171q230 0 352.5 -116t122.5 -327q0 -291 -178.5 -474t-466.5 -183q-227 0 -348 124t-121 339zM379 399q0 -107 47.5 -168t144.5 -61q145 0 225.5 116.5t80.5 344.5q0 105 -49.5 163t-147.5 58q-301 0 -301 -453zM379 1315q0 61 45.5 111.5 t126.5 50.5q62 0 97.5 -33t35.5 -88q0 -17 -4.5 -36t-17 -42.5t-31 -42t-50 -31t-71.5 -12.5q-70 0 -100.5 38t-30.5 85zM813 1315q0 67 46 114.5t126 47.5q50 0 90.5 -28t40.5 -93q0 -66 -46.5 -115t-125.5 -49q-70 0 -100.5 37t-30.5 86z" />
<glyph unicode="&#xf7;" horiz-adv-x="1212" d="M72 432l16 221h1098l-31 -221h-1083zM381 133q0 73 57.5 131t149.5 58q72 0 116 -39.5t44 -104.5q0 -73 -59 -129.5t-148 -56.5q-72 0 -116 39t-44 102zM502 907q0 73 57.5 131t149.5 58q72 0 115.5 -39.5t43.5 -104.5q0 -74 -58.5 -130t-147.5 -56q-72 0 -116 39 t-44 102z" />
<glyph unicode="&#xf8;" horiz-adv-x="1193" d="M6 -352l236 393q-170 120 -170 383q0 295 167.5 466t471.5 171q73 0 137 -12l170 282l184 -22l-194 -322q178 -113 178 -369q0 -291 -178.5 -474t-466.5 -183q-67 0 -142 14l-211 -350zM379 399q0 -63 14 -106l334 555q-28 4 -47 4q-301 0 -301 -453zM520 174 q28 -4 51 -4q145 0 225.5 116.5t80.5 344.5q0 59 -19 108z" />
<glyph unicode="&#xf9;" horiz-adv-x="1259" d="M98 811l19 213h420l-99 -618q-4 -36 -4 -52q0 -145 150 -145q59 0 114.5 18.5t81.5 36.5l25 19l80 516l-101 12l17 213h422l-115 -731v-17q0 -23 5.5 -37t11.5 -18t12 -4l88 4l-13 -201q-145 -38 -282 -38q-122 0 -131 88h-13q-4 -4 -13 -11.5t-40.5 -26.5t-67.5 -33 t-96.5 -26t-126.5 -12q-156 0 -237.5 79t-81.5 222q0 42 6 88l70 449zM446 1456l289 35l154 -301l-205 -19z" />
<glyph unicode="&#xfa;" horiz-adv-x="1259" d="M98 811l19 213h420l-99 -618q-4 -36 -4 -52q0 -145 150 -145q59 0 114.5 18.5t81.5 36.5l25 19l80 516l-101 12l17 213h422l-115 -731v-17q0 -23 5.5 -37t11.5 -18t12 -4l88 4l-13 -201q-145 -38 -282 -38q-122 0 -131 88h-13q-4 -4 -13 -11.5t-40.5 -26.5t-67.5 -33 t-96.5 -26t-126.5 -12q-156 0 -237.5 79t-81.5 222q0 42 6 88l70 449zM625 1186l239 303l283 -33l-324 -285z" />
<glyph unicode="&#xfb;" horiz-adv-x="1259" d="M98 811l19 213h420l-99 -618q-4 -36 -4 -52q0 -145 150 -145q59 0 114.5 18.5t81.5 36.5l25 19l80 516l-101 12l17 213h422l-115 -731v-17q0 -23 5.5 -37t11.5 -18t12 -4l88 4l-13 -201q-145 -38 -282 -38q-122 0 -131 88h-13q-4 -4 -13 -11.5t-40.5 -26.5t-67.5 -33 t-96.5 -26t-126.5 -12q-156 0 -237.5 79t-81.5 222q0 42 6 88l70 449zM436 1354l295 188h160l235 -188l-116 -168l-228 164l-276 -164z" />
<glyph unicode="&#xfc;" horiz-adv-x="1259" d="M98 811l19 213h420l-99 -618q-4 -36 -4 -52q0 -145 150 -145q59 0 114.5 18.5t81.5 36.5l25 19l80 516l-101 12l17 213h422l-115 -731v-17q0 -23 5.5 -37t11.5 -18t12 -4l88 4l-13 -201q-145 -38 -282 -38q-122 0 -131 88h-13q-4 -4 -13 -11.5t-40.5 -26.5t-67.5 -33 t-96.5 -26t-126.5 -12q-156 0 -237.5 79t-81.5 222q0 42 6 88l70 449zM406 1315q0 61 45.5 111.5t126.5 50.5q62 0 97.5 -33t35.5 -88q0 -17 -4.5 -36t-17 -42.5t-31 -42t-50 -31t-71.5 -12.5q-70 0 -100.5 38t-30.5 85zM840 1315q0 67 46 114.5t126 47.5q50 0 90.5 -28 t40.5 -93q0 -66 -46.5 -115t-125.5 -49q-70 0 -100.5 37t-30.5 86z" />
<glyph unicode="&#xfd;" horiz-adv-x="1136" d="M-82 -502l37 334l199 14v-190q24 -4 34 -4q48 0 83.5 25t58.5 75.5t37 110t24 143.5l-205 795l-139 10l16 213h402l153 -729h9q68 95 141.5 230.5t126.5 267.5l-127 22l16 209h406l-10 -139q-39 -139 -186.5 -393t-307.5 -472q-13 -160 -78 -288.5t-179.5 -205.5 t-258.5 -77q-79 0 -142 12.5t-86 24.5zM633 1186l239 303l283 -33l-324 -285z" />
<glyph unicode="&#xfe;" horiz-adv-x="1275" d="M35 -512l284 1823l-100 12l17 213h421l-88 -569h9q4 4 11.5 10t34.5 22.5t58.5 29t84.5 22.5t112 10q185 0 292 -112.5t107 -305.5q0 -133 -42 -256.5t-115 -218t-182 -151t-234 -56.5q-170 0 -283 80l-86 -553h-301zM459 250q8 -13 22.5 -26t56.5 -28.5t99 -15.5 q87 0 152.5 38t104 104t57 147t18.5 176q0 102 -53.5 148.5t-161.5 46.5q-61 0 -113.5 -23.5t-73 -43t-32.5 -36.5z" />
<glyph unicode="&#xff;" horiz-adv-x="1136" d="M-82 -502l37 334l199 14v-190q24 -4 34 -4q48 0 83.5 25t58.5 75.5t37 110t24 143.5l-205 795l-139 10l16 213h402l153 -729h9q68 95 141.5 230.5t126.5 267.5l-127 22l16 209h406l-10 -139q-39 -139 -186.5 -393t-307.5 -472q-13 -160 -78 -288.5t-179.5 -205.5 t-258.5 -77q-79 0 -142 12.5t-86 24.5zM414 1315q0 61 45.5 111.5t126.5 50.5q62 0 97.5 -33t35.5 -88q0 -17 -4.5 -36t-17 -42.5t-31 -42t-50 -31t-71.5 -12.5q-70 0 -100.5 38t-30.5 85zM848 1315q0 67 46 114.5t126 47.5q50 0 90.5 -28t40.5 -93q0 -66 -46.5 -115 t-125.5 -49q-70 0 -100.5 37t-30.5 86z" />
<glyph unicode="&#x152;" horiz-adv-x="2185" d="M111 580q0 362 214 574t595 212q211 0 358 -80l8 45h647l271 15l-41 -377h-242l4 129h-360l-41 -264v-52l522 2l-33 -225h-528q-2 -14 -10 -37l-45 -289h399l45 148l227 -14l-71 -367h-949l9 51q-178 -90 -390 -90q-143 0 -256.5 47.5t-185.5 131t-109.5 195.5t-37.5 245 zM434 575q0 -162 77.5 -267t223.5 -105q85 0 156.5 30t120.5 81t86 113.5t57.5 131.5t30.5 130.5t10 115.5q0 155 -79 237t-232 82q-216 0 -333.5 -142t-117.5 -407z" />
<glyph unicode="&#x153;" horiz-adv-x="1857" d="M72 424q0 295 167.5 466t471.5 171q249 0 374 -137q166 137 388 137q175 0 288 -86.5t113 -229.5q0 -181 -166 -256.5t-551 -78.5l-4 -17q4 -108 71.5 -160.5t170.5 -52.5q48 0 91.5 12t71.5 28.5t49 33.5t31 29l9 12l147 -107q-5 -9 -14.5 -24.5t-46.5 -54.5t-83.5 -69 t-127 -54.5t-174.5 -24.5q-250 0 -383 145q-172 -145 -424 -145q-227 0 -348 124t-121 339zM379 399q0 -107 47.5 -168t144.5 -61q110 0 183.5 67t103.5 201q0 66 16 135q0 9 1.5 28.5t1.5 29.5q0 105 -49.5 163t-147.5 58q-301 0 -301 -453zM1184 649q0 -5 1 -15.5t1 -15.5 v-28q161 0 253.5 16t129.5 46.5t37 82.5t-41.5 84.5t-122.5 32.5q-89 0 -156.5 -49.5t-101.5 -153.5z" />
<glyph unicode="&#x178;" horiz-adv-x="1347" d="M78 1133l14 198h617l-27 -198l-74 -7l152 -346h2l248 338l-62 4l31 209h549l-31 -213l-182 -8l-451 -592l-45 -295l150 -10l-31 -213h-608l16 213l156 12l47 289l-287 610zM528 1591q0 61 45.5 111.5t126.5 50.5q62 0 98 -33t36 -88q0 -21 -8.5 -46.5t-26.5 -53.5 t-54.5 -46t-85.5 -18q-70 0 -100.5 38t-30.5 85zM963 1591q0 67 46 114.5t126 47.5q50 0 90.5 -28t40.5 -93q0 -66 -46.5 -115t-125.5 -49q-70 0 -100.5 37t-30.5 86z" />
<glyph unicode="&#x2c6;" horiz-adv-x="823" d="M211 1354l295 188h160l235 -188l-117 -168l-227 164l-276 -164z" />
<glyph unicode="&#x2dc;" horiz-adv-x="985" d="M258 1401q2 5 7.5 13t25.5 29t45.5 37t69.5 29t96 13q58 0 111.5 -16.5t87 -37t76.5 -37t83 -16.5q41 0 78 9.5t54 18.5l16 9l14 -147q-1 -4 -4.5 -11.5t-19 -26t-37.5 -32.5t-63 -25.5t-93 -11.5q-51 0 -102 16t-85.5 35t-81.5 35t-90 16q-41 0 -85 -16t-67 -32l-24 -15 z" />
<glyph unicode="&#x2000;" horiz-adv-x="975" />
<glyph unicode="&#x2001;" horiz-adv-x="1950" />
<glyph unicode="&#x2002;" horiz-adv-x="975" />
<glyph unicode="&#x2003;" horiz-adv-x="1950" />
<glyph unicode="&#x2004;" horiz-adv-x="650" />
<glyph unicode="&#x2005;" horiz-adv-x="487" />
<glyph unicode="&#x2006;" horiz-adv-x="325" />
<glyph unicode="&#x2007;" horiz-adv-x="325" />
<glyph unicode="&#x2008;" horiz-adv-x="243" />
<glyph unicode="&#x2009;" horiz-adv-x="390" />
<glyph unicode="&#x200a;" horiz-adv-x="108" />
<glyph unicode="&#x2010;" d="M76 453l16 221h647l-30 -221h-633z" />
<glyph unicode="&#x2011;" d="M76 453l16 221h647l-30 -221h-633z" />
<glyph unicode="&#x2012;" d="M76 453l16 221h647l-30 -221h-633z" />
<glyph unicode="&#x2013;" horiz-adv-x="1210" d="M74 453l16 221h1098l-31 -221h-1083z" />
<glyph unicode="&#x2014;" horiz-adv-x="1572" d="M74 453l16 221h1460l-30 -221h-1446z" />
<glyph unicode="&#x2018;" horiz-adv-x="401" d="M137 1047q0 123 98.5 272.5t229.5 232.5l88 -92q-86 -61 -140.5 -138t-66.5 -153q29 -4 51 -15.5t33.5 -25.5t19 -30.5t9.5 -27.5t2 -21q0 -64 -51 -113t-125 -49q-60 0 -104 37t-44 123z" />
<glyph unicode="&#x2019;" horiz-adv-x="401" d="M90 975q85 59 140 135.5t69 151.5q-36 5 -61 21t-35.5 36.5t-14.5 36t-4 28.5q0 65 50.5 113.5t127.5 48.5q63 0 103 -37l14 -18q29 -42 29 -105q0 -124 -98.5 -274.5t-229.5 -230.5z" />
<glyph unicode="&#x201a;" horiz-adv-x="401" d="M-102 -256q85 60 139.5 138t66.5 151q-46 6 -73 31.5t-33 46.5t-6 43q0 63 51 112t125 49q38 0 72 -14.5t47 -42.5q28 -45 28 -104q0 -123 -98.5 -272t-230.5 -232z" />
<glyph unicode="&#x201c;" horiz-adv-x="837" d="M137 1047q0 123 98.5 272.5t229.5 232.5l88 -92q-86 -61 -140.5 -138t-66.5 -153q29 -4 51 -15.5t33.5 -25.5t19 -30.5t9.5 -27.5t2 -21q0 -64 -51 -113t-125 -49q-60 0 -104 37t-44 123zM573 1047q0 123 98.5 272.5t229.5 232.5l88 -92q-86 -61 -140.5 -138t-66.5 -153 q29 -4 51 -15.5t33.5 -25.5t19 -30.5t9.5 -27.5t2 -21q0 -64 -51 -113t-125 -49q-60 0 -104 37t-44 123z" />
<glyph unicode="&#x201d;" horiz-adv-x="837" d="M90 975q85 59 140 135.5t69 151.5q-36 5 -61 21t-35.5 36.5t-14.5 36t-4 28.5q0 65 50.5 113.5t127.5 48.5q63 0 103 -37l14 -18q29 -42 29 -105q0 -124 -98.5 -274.5t-229.5 -230.5zM526 975q85 59 140 135.5t69 151.5q-36 5 -60.5 21t-35 36.5t-14.5 36t-4 28.5 q0 65 50.5 113.5t127.5 48.5q62 0 102 -37l14 -18q29 -42 29 -105q0 -124 -98.5 -274.5t-229.5 -230.5z" />
<glyph unicode="&#x201e;" horiz-adv-x="837" d="M-102 -256q85 60 139.5 138t66.5 151q-46 6 -73 31.5t-33 46.5t-6 43q0 63 51 112t125 49q38 0 72 -14.5t47 -42.5q28 -45 28 -104q0 -123 -98.5 -272t-230.5 -232zM334 -256q85 61 140 138.5t67 150.5q-35 5 -59.5 20t-35 35t-14.5 35.5t-4 30.5q0 63 51 112t125 49 q38 0 72 -14.5t47 -42.5q29 -47 29 -104q0 -123 -99 -272t-231 -232z" />
<glyph unicode="&#x2022;" horiz-adv-x="864" d="M174 639q0 51 20.5 101.5t58.5 93.5t100.5 69.5t138.5 26.5q115 0 188 -64q57 -63 57 -153q0 -118 -88.5 -205.5t-228.5 -87.5q-112 0 -179 60t-67 159z" />
<glyph unicode="&#x2026;" horiz-adv-x="1865" d="M109 109q0 73 57 130.5t149 57.5q72 0 116 -39.5t44 -103.5q0 -74 -59 -130.5t-148 -56.5q-72 0 -115.5 39.5t-43.5 102.5zM705 109q0 73 57 130.5t149 57.5q72 0 116 -39.5t44 -103.5q0 -74 -59 -130.5t-148 -56.5q-72 0 -115.5 39.5t-43.5 102.5zM1300 109 q0 72 57.5 130t149.5 58q72 0 116 -39.5t44 -103.5q0 -74 -59 -130.5t-148 -56.5q-72 0 -116 39.5t-44 102.5z" />
<glyph unicode="&#x202f;" horiz-adv-x="390" />
<glyph unicode="&#x2039;" horiz-adv-x="806" d="M199 512l436 381l102 -131l-272 -254l192 -252l-139 -135z" />
<glyph unicode="&#x203a;" horiz-adv-x="806" d="M100 250l273 254l-191 254l140 135l319 -391l-436 -381z" />
<glyph unicode="&#x205f;" horiz-adv-x="487" />
<glyph unicode="&#x20ac;" horiz-adv-x="1323" d="M90 403l12 187h131q3 55 9 112l-107 5l15 188h135q70 220 221.5 345.5t372.5 125.5q138 0 270 -82l35 62h166l-37 -345h-213v95q-66 53 -191 53q-118 0 -199.5 -58.5t-123.5 -195.5h551l-29 -197h-557q-4 -39 -8 -108h547l-27 -197h-506q57 -213 317 -213q53 0 102.5 12 t82.5 28.5t58 33.5t37 29l11 12l101 -141q-5 -8 -15.5 -21t-50.5 -46t-87.5 -58.5t-129.5 -46.5t-174 -21q-247 0 -390.5 116t-176.5 320z" />
<glyph unicode="&#x2122;" horiz-adv-x="1857" d="M268 1372l23 164h725l-25 -164h-282l-86 -553h-187l86 553h-254zM930 819l166 717h196l111 -530l317 530h185l-93 -717h-176l47 400l-241 -400h-156l-108 445l-80 -445h-168z" />
<glyph unicode="&#x25fc;" horiz-adv-x="1024" d="M0 0v1024h1024v-1024h-1024z" />
</font>
</defs>
</svg>
